<svg width="402" height="611" viewBox="0 0 402 611" fill="none" xmlns="http://www.w3.org/2000/svg">
<path d="M118.947 391.802V356.957C118.947 340.21 120.963 325.083 124.995 311.578C129.296 298.072 136.822 285.241 147.575 273.086C158.327 260.931 173.246 248.776 192.331 236.621C210.61 225.006 224.05 215.011 232.652 206.638C241.254 197.994 246.899 190.161 249.587 183.138C252.275 175.845 253.619 168.552 253.619 161.259C253.619 149.914 248.512 141 238.297 134.517C228.082 127.764 214.776 124.388 198.379 124.388C177.95 124.388 155.773 128.034 131.85 135.328C108.195 142.621 82.9268 153.425 56.0461 167.741L0 57.5345C30.3751 39.977 62.7663 26.0661 97.1735 15.8017C131.581 5.26724 169.079 0 209.669 0C270.688 0 317.998 13.6408 351.599 40.9224C385.2 67.9339 402 103.589 402 147.888C402 168.957 398.774 188.27 392.323 205.828C385.872 223.385 375.657 239.862 361.679 255.259C347.701 270.655 329.288 285.782 306.439 300.638C290.311 310.902 277.543 319.681 268.134 326.974C258.995 334.267 252.409 341.29 248.377 348.043C244.614 354.796 242.732 362.494 242.732 371.138V391.802H118.947ZM101.609 533.612C101.609 504.98 109.807 484.856 126.205 473.241C142.871 461.626 163.031 455.819 186.686 455.819C209.266 455.819 228.754 461.626 245.151 473.241C261.817 484.856 270.15 504.98 270.15 533.612C270.15 560.894 261.817 580.612 245.151 592.767C228.754 604.922 209.266 611 186.686 611C163.031 611 142.871 604.922 126.205 592.767C109.807 580.612 101.609 560.894 101.609 533.612Z" fill="white" fill-opacity="0.4"/>
</svg>
