<svg width="75" height="75" viewBox="0 0 75 75" fill="none" xmlns="http://www.w3.org/2000/svg">
<path d="M40.6248 18.75C40.6248 20.4758 39.2258 21.8748 37.5 21.8748C35.7742 21.8748 34.3752 20.4758 34.3752 18.75C34.3752 17.0242 35.7742 15.6252 37.5 15.6252C39.2258 15.6252 40.6248 17.0242 40.6248 18.75Z" fill="white"/>
<path d="M37.5 59.3748C36.2062 59.3748 35.1562 58.3248 35.1562 57.0311V32.8125H32.0314C30.7377 32.8125 29.6877 31.7625 29.6877 30.4688C29.6877 29.175 30.7377 28.125 32.0314 28.125H37.5C38.7938 28.125 39.8438 29.175 39.8438 30.4688V57.0311C39.8438 58.3248 38.7938 59.3748 37.5 59.3748Z" fill="white"/>
<path d="M37.5 75C16.8217 75 0 58.1783 0 37.5C0 16.8217 16.8217 0 37.5 0C58.1783 0 75 16.8217 75 37.5C75 58.1783 58.1783 75 37.5 75ZM37.5 4.6875C19.4063 4.6875 4.6875 19.4063 4.6875 37.5C4.6875 55.5937 19.4063 70.3125 37.5 70.3125C55.5937 70.3125 70.3125 55.5937 70.3125 37.5C70.3125 19.4063 55.5937 4.6875 37.5 4.6875Z" fill="white"/>
<path d="M44.5312 59.3748H30.4688C29.175 59.3748 28.125 58.3248 28.125 57.0311C28.125 55.7373 29.175 54.6873 30.4688 54.6873H44.5312C45.825 54.6873 46.875 55.7373 46.875 57.0311C46.875 58.3248 45.825 59.3748 44.5312 59.3748Z" fill="white"/>
</svg>
