<svg width="100" height="100" viewBox="0 0 100 100" fill="none" xmlns="http://www.w3.org/2000/svg">
<path d="M56.888 51.1557C53.0137 51.1557 49.8617 54.3267 49.8617 58.2243C49.8617 62.122 53.0137 65.2931 56.888 65.2931C60.7624 65.2931 63.9143 62.122 63.9143 58.2243C63.9143 54.3267 60.7624 51.1557 56.888 51.1557ZM56.888 61.4026C55.146 61.4026 53.7289 59.977 53.7289 58.2243C53.7289 56.4719 55.1462 55.0462 56.888 55.0462C58.6298 55.0462 60.0471 56.4719 60.0471 58.2243C60.0471 59.977 58.63 61.4026 56.888 61.4026Z" fill="#F14F33"/>
<path d="M98.0664 67.2727H95.6308C95.179 64.6224 93.9716 62.1581 92.1367 60.1695H98.0664C99.1343 60.1695 100 59.2985 100 58.2243C100 49.5774 97.4774 41.2271 92.7047 34.0764C92.1094 33.1842 90.908 32.9464 90.0217 33.5458C89.1351 34.1445 88.8989 35.3531 89.4942 36.245C93.4782 42.2145 95.7393 49.1039 96.086 56.2789H87.5854C87.5798 56.2789 85.3389 56.2789 85.3389 56.2789C84.3416 41.364 71.9619 29.5367 56.888 29.5367C41.8141 29.5367 29.4345 41.364 28.4371 56.2789H17.6902C18.7019 35.4093 35.8969 18.7432 56.888 18.7432C64.2504 18.7432 71.4257 20.8055 77.6386 24.7068C78.5445 25.2756 79.7371 24.9981 80.3027 24.0867C80.8681 23.1754 80.5923 21.9754 79.6862 21.4066C73.404 17.4615 66.2277 15.2293 58.8214 14.8976V3.94523C58.8214 2.87107 57.9557 2 56.8878 2C41.9595 2 27.9249 7.84833 17.369 18.4677C6.81335 29.0871 1 43.2064 1 58.2243C1 59.2985 1.86567 60.1695 2.93359 60.1695H16.1717C17.0264 63.0084 18.7668 65.4995 21.1113 67.2727H15.7096C14.6417 67.2727 13.776 68.1438 13.776 69.218V78.6107C13.776 79.6848 14.6417 80.5559 15.7096 80.5559H28.1846L25.8971 81.8845C25.3507 82.2018 24.9926 82.7673 24.9377 83.3997C24.8828 84.0319 25.1378 84.6514 25.621 85.0591C29.0249 87.9324 33.6277 88.9875 37.9322 87.8818L38.6693 87.6926L35.8099 91.1208C35.4044 91.607 35.2602 92.2615 35.4234 92.8747C35.5866 93.4878 36.0369 93.9821 36.6298 94.1994C40.8052 95.7279 45.4887 95.136 49.1583 92.6154L49.7865 92.1839L48.265 96.3895C48.0492 96.9857 48.1362 97.6506 48.4982 98.1704C48.8599 98.6903 49.4512 99 50.082 99C54.5254 99 58.7251 96.832 61.3165 93.2009L61.7601 92.5794V97.0548C61.7601 97.6895 62.0679 98.2842 62.5846 98.6481C62.9141 98.8802 63.3021 99 63.6939 99C63.9164 99 64.1403 98.9615 64.355 98.8825C68.5304 97.3538 71.7399 93.8714 72.9405 89.5676L73.1461 88.8311L74.6676 93.0363C74.8834 93.6327 75.3747 94.0858 75.9842 94.2499C76.5938 94.4139 77.2443 94.2694 77.7275 93.8611C81.1314 90.9878 82.9635 86.6112 82.6286 82.1537L82.5712 81.391L85.4306 84.8191C85.836 85.3052 86.4515 85.5612 87.0803 85.5065C87.7087 85.4513 88.2708 85.0908 88.5864 84.5413C89.3065 83.2866 89.8156 81.951 90.1172 80.5555H98.0664C99.1343 80.5555 100 79.6845 100 78.6103V69.2176C100 68.1436 99.1343 67.2727 98.0664 67.2727ZM54.9544 5.92605V14.8975C44.1648 15.3734 34.0884 19.8245 26.4032 27.556C18.7179 35.2875 14.2935 45.4243 13.8205 56.2789H4.90277C5.90031 28.9663 27.805 6.92979 54.9544 5.92605ZM25.0935 65.1795C22.9304 64.1333 21.2345 62.3389 20.2868 60.1695H30.3057C31.3737 60.1695 32.2393 59.2985 32.2393 58.2243C32.2393 44.5513 43.2966 33.4273 56.888 33.4273C70.4792 33.4273 81.5365 44.5513 81.5365 58.2243C81.5365 59.2985 82.4022 60.1695 83.4701 60.1695H86.7423L89.1297 62.6287C90.392 63.9289 91.266 65.5335 91.6838 67.2727H71.564C73.2133 64.5751 74.0999 61.4656 74.0999 58.2243C74.0999 48.6765 66.3787 40.9089 56.888 40.9089C47.3974 40.9089 39.6761 48.6765 39.6761 58.2243C39.6761 61.4637 40.5633 64.5739 42.213 67.2727H29.4215L25.0935 65.1795ZM47.0344 67.2727C44.7818 64.7935 43.5433 61.5985 43.5433 58.2243C43.5433 50.8217 49.5297 44.7993 56.888 44.7993C64.2463 44.7993 70.2327 50.8217 70.2327 58.2243C70.2327 61.6008 68.9954 64.7935 66.7426 67.2727H47.0344ZM78.7724 82.4473C78.9383 84.6541 78.3666 86.8336 77.1971 88.6525L76.5747 86.9324C76.0271 85.4184 74.5806 84.4433 72.984 84.503C71.3838 84.5639 70.0181 85.6468 69.5853 87.1979L69.2176 88.5164C68.6232 90.6472 67.3451 92.4985 65.6275 93.8055V91.9748C65.6275 90.3638 64.6034 88.9498 63.079 88.4565C61.5545 87.9632 59.9033 88.5107 58.9693 89.8191L58.1752 90.9318C56.8923 92.7296 55.0619 94.0295 53.0036 94.6666L53.626 92.9463C54.1738 91.4327 53.692 89.7516 52.4274 88.7634C51.1628 87.7751 49.4245 87.7216 48.1022 88.6298L46.978 89.402C45.1612 90.6501 42.9998 91.2401 40.8485 91.1323L42.0181 89.7302C43.0475 88.4962 43.1663 86.7507 42.3139 85.3869C41.4616 84.0231 39.8459 83.3748 38.2952 83.7733L36.9759 84.112C34.8443 84.66 32.6117 84.4721 30.6279 83.629L35.919 80.5557H78.6305L78.7724 82.4473ZM96.1328 76.6655H17.6432V71.1632H96.1328V76.6655Z" fill="#F14F33"/>
<path d="M85.5135 30.3941C86.024 30.3941 86.5229 30.186 86.8825 29.8242C87.2421 29.4624 87.4471 28.9605 87.4471 28.4489C87.4471 27.9373 87.2421 27.4354 86.8825 27.0736C86.5209 26.712 86.024 26.5037 85.5135 26.5037C85.0069 26.5037 84.508 26.7118 84.1465 27.0736C83.7868 27.4354 83.5799 27.9373 83.5799 28.4489C83.5799 28.9605 83.7868 29.4624 84.1465 29.8242C84.508 30.1879 85.005 30.3941 85.5135 30.3941Z" fill="#F14F33"/>
</svg>
