<svg width="100" height="100" viewBox="0 0 100 100" fill="none" xmlns="http://www.w3.org/2000/svg">
<path d="M40.625 62.0543H18.7499C18.3181 62.0543 17.9686 62.4004 17.9686 62.8246V68.9866C17.9686 69.4139 18.3181 69.7569 18.7499 69.7569H40.625C41.0568 69.7569 41.4063 69.4139 41.4061 68.9866V62.8246C41.4061 62.4004 41.0568 62.0543 40.625 62.0543ZM39.8437 68.2165H19.5313V63.5949H39.8437V68.2165Z" fill="#F14F33"/>
<path d="M81.2502 22.0002H59.375C58.9434 22.0002 58.5939 22.3448 58.5939 22.7705C58.5939 23.1963 58.9434 23.5406 59.375 23.5406H81.2501C81.6819 23.5406 82.0314 23.1963 82.0314 22.7705C82.0314 22.3448 81.6821 22.0002 81.2502 22.0002Z" fill="#F14F33"/>
<path d="M81.8022 22.2258C81.4971 21.9248 81.0029 21.9248 80.6976 22.2258L40.0725 62.2801C39.7674 62.5809 39.7674 63.0681 40.0725 63.3691C40.2253 63.5195 40.4251 63.5949 40.625 63.5949C40.8249 63.5949 41.0248 63.5195 41.1775 63.3691L81.8022 23.3149C82.1074 23.014 82.1073 22.5268 81.8022 22.2258Z" fill="#F14F33"/>
<path d="M81.8022 28.3893C81.4971 28.0883 81.0029 28.0883 80.6976 28.3893L40.0725 68.4421C39.7674 68.7429 39.7674 69.2303 40.0725 69.5313C40.2253 69.6815 40.4251 69.7569 40.625 69.7569C40.8249 69.7569 41.0248 69.6817 41.1771 69.5313L81.8022 29.4784C82.1074 29.1776 82.1073 28.6903 81.8022 28.3893Z" fill="#F14F33"/>
<path d="M59.9273 22.2258C59.6222 21.9248 59.1278 21.9248 58.8225 22.2258L18.1976 62.2801C17.8924 62.5809 17.8924 63.0681 18.1976 63.3691C18.3502 63.5195 18.5501 63.5949 18.7499 63.5949C18.9498 63.5949 19.1499 63.5195 19.3024 63.3691L59.9273 23.3149C60.2324 23.014 60.2324 22.5268 59.9273 22.2258Z" fill="#F14F33"/>
<path d="M81.2501 22C80.8182 22 80.4687 22.3446 80.4687 22.7703V28.9339C80.4687 29.3596 80.8182 29.7042 81.2501 29.7042C81.6819 29.7042 82.0312 29.3596 82.0312 28.9339V22.7703C82.0312 22.3446 81.6819 22 81.2501 22Z" fill="#F14F33"/>
<path d="M53.6042 49.8936C53.5614 49.8604 49.489 46.8312 44.7594 51.4971L33.8226 62.2801L34.9274 63.3691L45.864 52.5856C49.5926 48.9112 52.5282 51.021 52.6459 51.1089C52.9878 51.3729 53.4791 51.3104 53.7415 50.9743C54.0071 50.6383 53.9459 50.1547 53.6042 49.8936Z" fill="#F14F33"/>
<path d="M45.0837 31.4704C44.7784 31.1694 44.2842 31.1694 43.9789 31.4704L39.2914 36.092C38.9861 36.3928 38.9861 36.8802 39.2914 37.1812C39.4439 37.3316 39.6438 37.4068 39.8437 37.4068C40.0438 37.4068 40.2434 37.3316 40.3962 37.1812L45.0837 32.5595C45.3888 32.2589 45.3888 31.7714 45.0837 31.4704Z" fill="#F14F33"/>
<path d="M22.6563 71.2976H0.781266C0.34944 71.2976 0.000146672 71.6435 0.000146672 72.0679V78.2299C0.000146672 78.6572 0.34944 79 0.781266 79H22.6563C23.0881 79 23.4376 78.657 23.4376 78.2299V72.0679C23.4376 71.6435 23.0881 71.2976 22.6563 71.2976ZM21.875 77.4594H1.56258V72.8378H21.875V77.4594Z" fill="#F14F33"/>
<path d="M46.8781 31.2402H41.4061C40.9743 31.2402 40.625 31.5846 40.625 32.0103C40.625 32.4361 40.9743 32.7807 41.4061 32.7807H46.8781C47.3099 32.7807 47.6594 32.4361 47.6594 32.0103C47.6594 31.5846 47.3099 31.2402 46.8781 31.2402Z" fill="#F14F33"/>
<path d="M29.4099 71.5714C29.1048 71.2704 28.6105 71.2704 28.3053 71.5714L22.104 77.6853C21.7987 77.9861 21.7987 78.4734 22.104 78.7744C22.2566 78.9248 22.4566 79 22.6563 79C22.8562 79 23.0561 78.9248 23.2086 78.7744L29.4099 72.6604C29.7151 72.3596 29.715 71.8723 29.4099 71.5714Z" fill="#F14F33"/>
<path d="M41.9586 31.4689C41.6535 31.1679 41.1593 31.1679 40.854 31.4689L0.228967 71.5231C-0.0763224 71.824 -0.0763224 72.3114 0.228967 72.6124C0.381514 72.7626 0.58139 72.838 0.781266 72.838C0.981142 72.838 1.18102 72.7626 1.33356 72.6124L41.9586 32.5579C42.2639 32.2573 42.2639 31.7699 41.9586 31.4689Z" fill="#F14F33"/>
<path d="M58.5939 71.2976H36.7188C36.287 71.2976 35.9375 71.6435 35.9375 72.0679V78.2299C35.9375 78.6572 36.287 79 36.7188 79H58.5937C59.0255 79 59.375 78.657 59.375 78.2299V72.0679C59.375 71.6435 59.0257 71.2976 58.5939 71.2976ZM57.8126 77.4594H37.4999V72.8378H57.8126V77.4594Z" fill="#F14F33"/>
<path d="M99.2187 31.2433H81.2577C80.8257 31.2433 80.4764 31.5877 80.4764 32.0134C80.4764 32.4392 80.8257 32.7837 81.2577 32.7837H99.2187C99.6506 32.7837 99.9998 32.4392 99.9998 32.0134C99.9998 31.5877 99.6506 31.2433 99.2187 31.2433Z" fill="#F14F33"/>
<path d="M99.771 31.4689C99.4659 31.1679 98.9717 31.1679 98.6664 31.4689L58.0414 71.5231C57.7361 71.824 57.7361 72.3114 58.0414 72.6124C58.1939 72.7626 58.394 72.838 58.5937 72.838C58.7938 72.838 58.9934 72.7626 59.1462 72.6124L99.771 32.5579C100.076 32.2573 100.076 31.7699 99.771 31.4689Z" fill="#F14F33"/>
<path d="M99.771 37.6324C99.4659 37.3316 98.9717 37.3316 98.6664 37.6324L58.0414 77.6853C57.7361 77.9861 57.7361 78.4734 58.0414 78.7744C58.1939 78.9248 58.394 79 58.5937 79C58.7938 79 58.9934 78.9248 59.1462 78.7744L99.771 38.7217C100.076 38.4209 100.076 37.9334 99.771 37.6324Z" fill="#F14F33"/>
<path d="M99.2187 31.2433C98.7869 31.2433 98.4376 31.5877 98.4376 32.0134V38.1772C98.4376 38.6029 98.7869 38.9473 99.2187 38.9473C99.6506 38.9473 99.9998 38.6029 99.9998 38.1772V32.0134C99.9998 31.5877 99.6506 31.2433 99.2187 31.2433Z" fill="#F14F33"/>
<path d="M51.3336 65.3612C51.0285 65.0602 50.5341 65.0602 50.2288 65.3612L43.9789 71.5231C43.6736 71.824 43.6736 72.3114 43.9789 72.6124C44.1314 72.7626 44.3315 72.838 44.5312 72.838C44.7313 72.838 44.9311 72.7626 45.0835 72.6124L51.3336 66.4502C51.6389 66.1496 51.6387 65.6621 51.3336 65.3612Z" fill="#F14F33"/>
<path d="M63.8337 60.7396C63.5286 60.4386 63.0342 60.4386 62.7289 60.7396L51.7915 71.5201C51.4862 71.8209 51.4862 72.3083 51.7915 72.6093C51.9438 72.7595 52.1439 72.8349 52.3438 72.8349C52.5436 72.8349 52.7435 72.7595 52.896 72.6093L63.8337 61.8287C64.1388 61.5279 64.1388 61.0406 63.8337 60.7396Z" fill="#F14F33"/>
<path d="M84.0821 31.5352C83.7771 31.2342 83.2828 31.235 82.9776 31.5345L76.3032 38.1139L77.4078 39.203L84.0821 32.6251C84.3874 32.3242 84.3872 31.8362 84.0821 31.5352Z" fill="#F14F33"/>
<path d="M65.399 22.2258C65.0939 21.9248 64.5997 21.9248 64.2944 22.2258L56.4805 29.9313C56.1752 30.2321 56.1752 30.7194 56.4805 31.0204C56.6331 31.1708 56.8329 31.2462 57.0328 31.2462C57.2327 31.2462 57.4326 31.171 57.5851 31.0204L65.399 23.3149C65.7043 23.014 65.7041 22.5268 65.399 22.2258Z" fill="#F14F33"/>
<path d="M73.2087 22.2258C72.9036 21.9248 72.4094 21.9248 72.1041 22.2258L56.4805 37.6294C56.1752 37.9302 56.1752 38.4176 56.4805 38.7186C56.6331 38.869 56.8329 38.9442 57.0328 38.9442C57.2327 38.9442 57.4326 38.8692 57.5851 38.7186L73.2087 23.3149C73.514 23.014 73.5138 22.5268 73.2087 22.2258Z" fill="#F14F33"/>
</svg>
