<svg width="100" height="100" viewBox="0 0 100 100" fill="none" xmlns="http://www.w3.org/2000/svg">
<path d="M50 30.6924C49.0501 30.6924 48.2801 31.4618 48.2801 32.4111C48.2801 33.3603 49.0501 34.1298 50 34.1298C58.7565 34.1298 65.8805 41.2488 65.8805 49.9992C65.8805 50.9483 66.6505 51.718 67.6004 51.718C68.5503 51.718 69.3203 50.9483 69.3203 49.9992C69.3203 39.3532 60.6531 30.6924 50 30.6924Z" fill="#F14F33"/>
<path d="M44.5885 64.924C38.3265 62.6563 34.1194 56.6583 34.1194 49.9992C34.1194 49.05 33.3494 48.2805 32.3995 48.2805C31.4496 48.2805 30.6796 49.05 30.6796 49.9992C30.6796 58.1003 35.7983 65.3968 43.4165 68.1557C43.61 68.2259 43.8078 68.2592 44.0025 68.2592C44.7059 68.2592 45.366 67.8247 45.6196 67.1255C45.9431 66.2332 45.4816 65.2475 44.5885 64.924Z" fill="#F14F33"/>
<path d="M49.9999 65.8686L49.9404 65.8685C49.9362 65.8685 49.9323 65.8685 49.928 65.8685C48.9837 65.8685 48.2151 66.63 48.2084 67.5752C48.2017 68.5242 48.9662 69.2992 49.9161 69.3059L49.9999 69.3061C50.9498 69.3061 51.7198 68.5364 51.7198 67.5874C51.7198 66.6383 50.9498 65.8686 49.9999 65.8686Z" fill="#F14F33"/>
<path d="M90.7394 43.6267L83.2768 38.5865C83.0059 38.4036 82.8575 38.0881 82.8895 37.7629C82.9249 37.4021 83.1463 37.2015 83.2751 37.1142C83.4039 37.0267 83.6721 36.8951 84.0207 36.9953L89.1789 38.4765C89.5523 38.6774 89.9995 38.741 90.4393 38.6234C91.323 38.3869 91.8667 37.5004 91.6766 36.6062L91.6673 36.5627C91.6458 36.4613 91.6154 36.3631 91.577 36.2693L90.3736 32.5682C89.526 29.9614 87.3216 28.0448 84.621 27.5661L75.7522 25.9949C75.4302 25.9378 75.1662 25.7099 75.0631 25.4C74.9486 25.0561 75.0693 24.7828 75.1514 24.6507C75.2334 24.5183 75.4249 24.289 75.7841 24.2389L81.4406 23.4477C82.0706 23.3595 82.6006 22.9312 82.8183 22.334C83.036 21.7367 82.906 21.068 82.4805 20.5957L79.7601 17.5765C77.9248 15.5393 75.1309 14.6841 72.469 15.3451L63.7273 17.5145C63.4096 17.5929 63.0758 17.4921 62.8556 17.251C62.6111 16.9832 62.61 16.6845 62.6312 16.5303C62.6523 16.3762 62.7339 16.089 63.0415 15.897L67.8869 12.8751C68.4266 12.5386 68.7362 11.9319 68.6922 11.2977C68.648 10.6636 68.2571 10.1055 67.6759 9.84704L63.9619 8.19448C61.4561 7.07988 58.5558 7.43411 56.393 9.11967L49.2899 14.6545C49.0321 14.8554 48.6862 14.8989 48.3864 14.7681C48.0539 14.6229 47.9315 14.3505 47.8881 14.2011C47.8448 14.0516 47.8023 13.7561 48.0053 13.4557L51.2017 8.72557C51.4183 8.4052 51.5122 8.03807 51.4945 7.67972C51.4745 6.74851 50.7126 6 49.7758 6H45.7102C42.9673 6 40.462 7.50269 39.1721 9.92146L34.9361 17.8649C34.7823 18.1532 34.4837 18.3336 34.1569 18.3359C34.1547 18.3359 34.1525 18.3359 34.1502 18.3359C33.7914 18.3359 33.5708 18.1386 33.4708 18.0203C33.3704 17.9014 33.2113 17.6487 33.2744 17.2917L34.2694 11.6713C34.3802 11.0453 34.1363 10.4092 33.6351 10.0177C33.1341 9.62636 32.4575 9.54334 31.8763 9.80167L28.1623 11.4542C25.6565 12.569 23.9796 14.9599 23.7856 17.6941L23.1489 26.6724C23.1258 26.9983 22.9265 27.2844 22.6288 27.4194C22.2985 27.5692 22.0141 27.4778 21.8737 27.4099C21.7336 27.3422 21.4852 27.176 21.3977 26.8242L20.019 21.2854C19.8654 20.6685 19.3836 20.1866 18.7665 20.0326C18.1497 19.8784 17.4975 20.0778 17.0717 20.5501L14.3515 23.5692C12.5161 25.6061 11.9571 28.4721 12.893 31.0488L15.9658 39.51C16.0772 39.8171 16.0117 40.1596 15.7946 40.4039C15.5539 40.6749 15.2585 40.7078 15.101 40.7023C14.9453 40.6973 14.6509 40.6464 14.4278 40.3606L10.9138 35.8609C10.5224 35.3597 9.88584 35.115 9.25961 35.2257C8.63304 35.3359 8.11861 35.7827 7.92203 36.3874L6.66579 40.2511C5.81821 42.8579 6.47419 45.7033 8.37763 47.6767L14.6285 54.1575C14.8554 54.3926 14.9349 54.7321 14.836 55.0432C14.7262 55.389 14.4679 55.539 14.3236 55.5978C14.1796 55.6568 13.89 55.7297 13.5696 55.5592L8.5283 52.8766C7.96657 52.578 7.28617 52.6132 6.75849 52.9685C6.23099 53.3238 5.94291 53.9411 6.00947 54.5733L6.43446 58.6137C6.72117 61.3398 8.47859 63.6726 11.0208 64.7018L19.369 68.0813C19.672 68.204 19.8827 68.4818 19.9192 68.8065C19.9596 69.1669 19.7849 69.4089 19.677 69.5211C19.5694 69.6335 19.3351 69.8188 18.9724 69.7923L13.275 69.391C12.641 69.3463 12.033 69.6553 11.6957 70.1943C11.3584 70.7335 11.3464 71.4145 11.6646 71.965L13.6974 75.4834C15.0688 77.8573 17.6243 79.2739 20.3648 79.1809L29.3668 78.8753C29.6915 78.8636 29.999 79.0322 30.1645 79.3143C30.348 79.6267 30.2867 79.9191 30.2341 80.0655C30.1813 80.212 30.0418 80.476 29.7008 80.5997L24.3325 82.5489C23.7347 82.766 23.3054 83.2952 23.2168 83.9246C23.1282 84.554 23.3943 85.1812 23.9089 85.5547L27.1981 87.9427C29.417 89.5535 32.3276 89.8094 34.7942 88.6106L42.8935 84.6724C43.1874 84.5291 43.5352 84.559 43.8007 84.7487C44.0957 84.96 44.1588 85.2518 44.1702 85.407C44.1815 85.5622 44.1616 85.8602 43.9005 86.1119L39.7897 90.0744C39.3318 90.5156 39.1552 91.1737 39.3303 91.7847C39.5054 92.3959 40.0038 92.8605 40.6261 92.9925L44.6029 93.8372C45.1182 93.9467 45.6361 94.0002 46.1498 94C48.3102 94 50.388 93.0547 51.814 91.3597L57.6102 84.4701C57.8205 84.2201 58.1504 84.1059 58.4703 84.1714C58.8257 84.2443 59.0021 84.4853 59.0757 84.6224C59.1492 84.7596 59.2522 85.0399 59.1162 85.3759L57.0283 90.5314C56.8543 90.8716 56.792 91.2717 56.8785 91.6742C57.0779 92.6008 57.9898 93.1922 58.9177 92.9942L62.8945 92.1496C65.5774 91.5797 67.7153 89.5894 68.4736 86.9553L70.9644 78.3054C71.0549 77.9915 71.3094 77.7528 71.6285 77.6827C71.9828 77.6053 72.2421 77.7535 72.3651 77.8489C72.4881 77.9445 72.6964 78.1586 72.7087 78.5207L72.9048 84.2249C72.9267 84.8601 73.2976 85.4316 73.8693 85.7104C74.4409 85.9893 75.1199 85.93 75.6347 85.5564L78.9237 83.1685C81.1427 81.5574 82.2856 78.8702 81.9064 76.1554L80.6612 67.241C80.6161 66.9174 80.7515 66.5962 81.0146 66.4023C81.3067 66.1869 81.6037 66.2168 81.755 66.2547C81.9062 66.2918 82.1836 66.4026 82.3426 66.7289L84.8435 71.8601C85.122 72.4316 85.6935 72.8027 86.3292 72.8252C86.964 72.8445 87.5612 72.5174 87.8792 71.9669L89.912 68.4485C91.2834 66.0745 91.2339 63.1551 89.7825 60.8295L85.0165 53.1918C84.8437 52.9147 84.8365 52.566 84.9981 52.2819C85.1773 51.9668 85.4611 51.8737 85.6144 51.8462C85.7676 51.8183 86.0662 51.8072 86.344 52.0406L90.7172 55.7118C91.2045 56.1205 91.8775 56.2276 92.4674 55.9894C93.0574 55.7515 93.4676 55.2075 93.5341 54.5752L93.9591 50.5346C94.2455 47.8085 93.0118 45.1617 90.7394 43.6267ZM90.5378 50.1751L90.4513 50.9985L88.5565 49.408C87.5693 48.5792 86.2752 48.2348 85.0062 48.4623C83.7373 48.6901 82.6441 49.4633 82.0072 50.5834C81.2213 51.9653 81.2559 53.6615 82.0977 55.0102L86.8636 62.6479C87.641 63.8938 87.6676 65.4579 86.9329 66.7294L86.5185 67.4464L85.435 65.2233C84.8705 64.0648 83.8286 63.2238 82.5767 62.916C81.3245 62.6087 80.0112 62.8703 78.9736 63.6348C77.6933 64.5777 77.0345 66.1416 77.2543 67.7158L78.4996 76.6303C78.7027 78.0845 78.0906 79.524 76.9017 80.3869L76.2315 80.8735L76.1465 78.402C76.1022 77.1145 75.4928 75.9229 74.4742 75.1328C73.4559 74.3428 72.1493 74.0481 70.8901 74.3248C69.3367 74.6658 68.0985 75.8266 67.6585 77.3541L65.1677 86.0038C64.7613 87.4148 63.6162 88.4811 62.179 88.7864L61.3763 88.9569L62.3046 86.6643C62.7882 85.4701 62.7165 84.1338 62.1075 82.9982C61.4986 81.8625 60.425 81.0624 59.1621 80.8032C57.6038 80.4837 56.0003 81.0406 54.977 82.2573L49.1808 89.1468C48.2352 90.2707 46.7549 90.7789 45.3179 90.4742L44.5074 90.302L46.2884 88.5851C47.2165 87.6907 47.6946 86.4407 47.6007 85.1557C47.5068 83.8708 46.8517 82.7035 45.8032 81.9532C44.51 81.0277 42.8183 80.8852 41.3882 81.5806L33.2891 85.5187C31.9678 86.1612 30.4087 86.024 29.2199 85.1611L28.5496 84.6743L30.8755 83.8297C32.0872 83.3897 33.0328 82.4424 33.47 81.2303C33.9072 80.0183 33.7839 78.6856 33.1315 77.5742C32.3268 76.2032 30.8409 75.3839 29.2498 75.4392L20.2479 75.7448C18.7796 75.7928 17.4107 75.0357 16.6761 73.7641L16.2618 73.0471L18.7302 73.221C20.0174 73.3116 21.2661 72.8305 22.1587 71.9009C23.0514 70.9712 23.481 69.7036 23.3376 68.4234C23.1604 66.8438 22.1346 65.4917 20.6605 64.895L12.3123 61.5154C10.9505 60.9642 10.009 59.7144 9.85539 58.2541L9.76888 57.4305L11.953 58.5927C13.0911 59.1986 14.4285 59.2668 15.6221 58.7804C16.8161 58.294 17.7246 57.3107 18.1147 56.0827C18.5957 54.5678 18.2089 52.9156 17.1051 51.7714L10.8543 45.2906C9.83458 44.2334 9.4832 42.7092 9.93726 41.3127L10.1932 40.5252L11.7158 42.4748C12.5091 43.4906 13.703 44.0966 14.9916 44.1373C16.2797 44.1753 17.5104 43.6492 18.3666 42.6858C19.4227 41.4973 19.7417 39.831 19.1991 38.3368L16.1264 29.876C15.6251 28.4956 15.9245 26.9605 16.9078 25.8692L17.4621 25.2539L18.0594 27.6538C18.3708 28.9042 19.2149 29.943 20.3755 30.5042C21.5361 31.0651 22.8751 31.0816 24.0493 30.5499C25.4978 29.8933 26.4677 28.5006 26.58 26.9153L27.2167 17.9368C27.3206 16.4722 28.2189 15.1913 29.5611 14.5942L30.3181 14.2573L29.8869 16.6924C29.6622 17.961 30.0105 19.2532 30.8425 20.2376C31.6678 21.2144 32.872 21.7728 34.1502 21.7728C34.1602 21.7728 34.1703 21.7728 34.1803 21.7728C35.7709 21.7618 37.2236 20.8835 37.9714 19.4811L42.2074 11.5376C42.8988 10.2425 44.2409 9.43747 45.7102 9.43747H46.5707L45.1553 11.5319C44.4338 12.5996 44.2259 13.9216 44.5854 15.1591C44.9447 16.3966 45.8284 17.4021 47.0096 17.918C48.4671 18.5547 50.1517 18.3429 51.4059 17.3655L58.5089 11.8306C59.6674 10.9278 61.2212 10.738 62.5634 11.3351L63.3202 11.6718L61.2208 12.9812C60.1271 13.6631 59.3993 14.7865 59.2238 16.0628C59.0482 17.3393 59.4462 18.617 60.3156 19.5687C61.388 20.7426 63.0135 21.234 64.5568 20.8507L73.2985 18.6813C74.7243 18.3274 76.221 18.7855 77.2041 19.8767L77.7586 20.492L75.3077 20.8349C74.031 21.0135 72.9088 21.7438 72.2291 22.8384C71.5492 23.9333 71.3927 25.2624 71.7994 26.4849C72.3013 27.9931 73.5859 29.1024 75.1521 29.3799L84.0209 30.9512C85.4677 31.2076 86.6486 32.2342 87.1025 33.6307L87.3439 34.3732L84.971 33.6917C83.7319 33.3361 82.4093 33.5472 81.3428 34.2709C80.2761 34.9947 79.5922 36.1454 79.4663 37.4276C79.311 39.0095 80.033 40.545 81.3509 41.435L88.8134 46.4751C90.0306 47.297 90.6914 48.7148 90.5378 50.1751Z" fill="#F14F33"/>
<path d="M50.0912 24.2186L50 24.2184C49.0501 24.2184 48.2801 24.9879 48.2801 25.9371C48.2801 26.8864 49.0501 27.6559 50 27.6559L50.081 27.656C50.0828 27.656 50.0845 27.656 50.0862 27.656C51.0337 27.656 51.8032 26.8898 51.8061 25.9423C51.8089 24.993 51.0411 24.2213 50.0912 24.2186Z" fill="#F14F33"/>
<path d="M70.5136 34.3629C67.1677 29.9854 62.4227 26.7393 57.1534 25.2227C56.2404 24.9604 55.2874 25.4865 55.0246 26.3986C54.7616 27.3107 55.2886 28.2631 56.2012 28.5259C65.7145 31.2642 72.3587 40.0942 72.3587 49.9992C72.3587 62.3194 62.3286 72.3426 49.9999 72.3426C37.6711 72.3426 27.641 62.3196 27.641 49.9992C27.641 39.9873 34.3764 31.1313 44.0198 28.4635C44.9354 28.2102 45.472 27.2633 45.2186 26.3484C44.9651 25.4335 44.0176 24.8973 43.1021 25.1505C31.9738 28.2291 24.2013 38.4471 24.2013 49.999C24.2013 64.2145 35.7745 75.7799 50 75.7799C64.2255 75.7799 75.7988 64.2147 75.7988 49.999C75.7986 44.2932 73.9712 38.8862 70.5136 34.3629Z" fill="#F14F33"/>
<path d="M50 36.9369C42.7923 36.9369 36.9288 42.7965 36.9288 49.9991C36.9288 57.2016 42.7925 63.0613 50 63.0613C57.2076 63.0613 63.0713 57.2014 63.0713 49.9991C63.0713 42.7965 57.2077 36.9369 50 36.9369ZM50 59.624C44.6892 59.624 40.3686 55.3063 40.3686 49.9992C40.3686 44.6921 44.6892 40.3745 50 40.3745C55.3108 40.3745 59.6314 44.6923 59.6314 49.9992C59.6314 55.3063 55.3108 59.624 50 59.624Z" fill="#F14F33"/>
</svg>
