<svg width="100" height="100" viewBox="0 0 100 100" fill="none" xmlns="http://www.w3.org/2000/svg">
<path d="M49.8597 44.9321C46.8517 44.9321 44.405 47.3759 44.405 50.3792C44.405 53.3827 46.8521 55.8263 49.8597 55.8263C52.8676 55.8263 55.3146 53.3825 55.3146 50.3792C55.3146 47.3759 52.8678 44.9321 49.8597 44.9321ZM49.8597 52.8593C48.4902 52.8593 47.3761 51.7466 47.3761 50.3792C47.3761 49.0118 48.4904 47.8991 49.8597 47.8991C51.229 47.8991 52.3434 49.0118 52.3434 50.3792C52.3434 51.7466 51.2292 52.8593 49.8597 52.8593Z" fill="#F14F33"/>
<path d="M49.8597 37.6173C42.8127 37.6173 37.0797 43.3423 37.0797 50.3794C37.0797 57.4165 42.8127 63.1415 49.8597 63.1415C56.9066 63.1415 62.6397 57.4165 62.6397 50.3794C62.6397 43.3423 56.9066 37.6173 49.8597 37.6173ZM49.8597 60.1743C44.4509 60.1743 40.0508 55.7804 40.0508 50.3792C40.0508 44.978 44.4511 40.5841 49.8597 40.5841C55.2682 40.5841 59.6685 44.9782 59.6685 50.3792C59.6685 55.7802 55.2682 60.1743 49.8597 60.1743Z" fill="#F14F33"/>
<path d="M49.8597 30.4208C38.8392 30.4208 29.8731 39.3743 29.8731 50.3794C29.8731 61.3845 38.8392 70.3378 49.8597 70.3378C60.8802 70.3378 69.8462 61.3843 69.8462 50.3794C69.8462 39.3741 60.8804 30.4208 49.8597 30.4208ZM49.8597 67.3708C40.4776 67.3708 32.8445 59.7486 32.8445 50.3796C32.8445 41.0104 40.4776 33.3882 49.8597 33.3882C59.2417 33.3882 66.8749 41.0106 66.8749 50.3796C66.8749 59.7486 59.2419 67.3708 49.8597 67.3708Z" fill="#F14F33"/>
<path d="M49.8597 23.2805C34.8965 23.2805 22.7231 35.437 22.7231 50.3792C22.7231 65.3214 34.8965 77.4779 49.8597 77.4779C64.823 77.4779 76.9963 65.3214 76.9963 50.3792C76.9963 35.437 64.823 23.2805 49.8597 23.2805ZM49.8597 74.5109C36.5348 74.5109 25.6942 63.6855 25.6942 50.3792C25.6942 37.0729 36.5348 26.2475 49.8597 26.2475C63.1848 26.2475 74.0251 37.0729 74.0251 50.3792C74.0251 63.6855 63.1846 74.5109 49.8597 74.5109Z" fill="#F14F33"/>
<path d="M49.8597 16.025C30.8902 16.025 15.4572 31.4362 15.4572 50.3796C15.4572 69.323 30.89 84.734 49.8597 84.734C68.8294 84.734 84.2623 69.3228 84.2623 50.3794C84.2623 31.436 68.8294 16.025 49.8597 16.025ZM49.8597 81.7668C32.5284 81.7668 18.4286 67.6865 18.4286 50.3794C18.4286 33.0723 32.5284 18.9922 49.8597 18.9922C67.191 18.9922 81.291 33.0725 81.291 50.3796C81.291 67.6867 67.1911 81.7668 49.8597 81.7668Z" fill="#F14F33"/>
<path d="M49.8597 9.69689C27.396 9.69689 9.12043 27.9469 9.12043 50.3794C9.12043 72.8115 27.396 91.0617 49.8597 91.0617C72.3233 91.0617 90.5989 72.8117 90.5989 50.3794C90.5991 27.9469 72.3233 9.69689 49.8597 9.69689ZM49.8597 88.0945C29.0342 88.0945 12.0918 71.1755 12.0918 50.3794C12.0918 29.5833 29.0344 12.6639 49.8597 12.6639C70.6849 12.6639 87.6276 29.5831 87.6276 50.3792C87.6276 71.1753 70.6851 88.0945 49.8597 88.0945Z" fill="#F14F33"/>
<path d="M98.9142 52.5052C98.5616 51.7573 98.1231 50.8267 98.1231 50.3796C98.1231 47.547 97.8749 44.7075 97.3853 41.9403C97.2602 41.2321 97.3994 40.6261 97.5606 39.9243C97.7822 38.96 98.058 37.76 97.578 36.286C97.3603 35.618 97.1416 34.9046 96.9101 34.1489C96.0759 31.4268 95.1302 28.342 93.7969 26.0311C93.1286 24.8727 91.8505 24.0194 90.6142 23.1942C89.7845 22.6403 88.9264 22.0676 88.5677 21.5875C88.1965 21.0909 87.7713 19.8467 87.3958 18.7491C86.8041 17.0186 86.2453 15.384 85.3396 14.4299C83.8502 12.8614 82.2409 11.3793 80.5567 10.0248C79.0329 8.79943 77.355 8.71564 75.8746 8.64142C74.7885 8.58713 73.8507 8.54006 73.0241 8.08771C70.6442 6.78497 68.138 5.67775 65.5758 4.79688C64.8449 4.54571 63.8705 3.85567 62.9281 3.18848C61.51 2.18438 60.0433 1.1459 58.5161 0.854884C55.5385 0.287696 52.4782 0 49.4202 0C46.972 0 44.863 0.985353 42.8236 1.93829C41.5345 2.54063 40.3168 3.10958 39.0993 3.38614C38.208 3.58868 37.0672 3.52657 35.8596 3.46094C34.1429 3.36758 32.3682 3.27051 30.8021 3.90294C28.5705 4.80392 26.387 5.88341 24.3116 7.11154C22.9644 7.9088 22.1367 9.25334 21.3362 10.5537C20.7825 11.453 20.2596 12.3022 19.6715 12.7737C18.8399 13.4403 17.7127 13.9016 16.5193 14.3899C14.7899 15.0977 13.0013 15.8295 11.7118 17.3293C10.0111 19.3073 8.46131 21.437 7.10472 23.659C5.98186 25.4989 5.60262 27.8891 5.23609 30.2006C4.99962 31.6911 4.77627 33.0987 4.37825 34.2157C3.61585 36.3546 3.00113 38.5688 2.55089 40.7962C2.20939 42.4862 1.9565 44.2161 1.79905 45.9378C1.66468 47.4046 1.59682 48.8989 1.59682 50.3794C1.59682 51.4624 1.23694 52.7581 0.855545 54.1302C0.318074 56.0648 -0.237586 58.0655 0.106059 59.9339C0.431514 61.7044 0.861804 63.4749 1.385 65.196C1.90408 66.9035 2.52585 68.6001 3.23348 70.2386C3.83902 71.6414 5.15003 72.5398 6.41802 73.4087C7.24319 73.9744 8.09634 74.5589 8.42317 75.1039C9.18008 76.3662 10.0055 77.6095 10.8768 78.799C11.8616 80.1441 12.9289 81.4533 14.0488 82.6906C14.5067 83.1965 15.0324 84.1592 15.5407 85.0902C16.2936 86.4693 17.0722 87.8951 18.0701 88.7584C19.7476 90.2099 21.5407 91.5574 23.3994 92.7633C24.6394 93.568 25.9408 93.5629 26.9855 93.558C27.7318 93.5564 28.3761 93.5523 28.9093 93.8094C29.7601 94.2191 30.72 95.0711 31.7361 95.973C33.2149 97.2855 34.7442 98.6424 36.4941 99.1445C38.0916 99.6031 39.4993 99.6877 40.8604 99.7695C41.5909 99.8135 42.3466 99.8588 43.1509 99.9617C43.3568 99.9881 43.5628 100 43.7687 100C44.9563 99.9998 46.1416 99.5982 47.2934 99.2078C48.2115 98.8967 49.1608 98.5748 49.8597 98.5748C51.0328 98.5748 52.3151 98.8953 53.673 99.2348C55.6234 99.7223 57.6403 100.227 59.6331 99.833C61.71 99.4236 63.7363 98.6104 65.6963 97.824C66.3104 97.5777 66.8903 97.3449 67.4622 97.1285C68.8065 96.6199 69.8413 95.5236 70.7545 94.5564C71.4107 93.8613 72.0303 93.2051 72.6275 92.8855C74.8712 91.6848 77.0381 90.2933 79.0681 88.7502C79.6034 88.3429 80.5831 88.0564 81.5305 87.7795C82.9564 87.3627 84.4307 86.9312 85.4724 85.9011C87.3661 84.0279 89.116 81.9853 90.673 79.83C91.4904 78.6988 91.6027 77.2382 91.7014 75.95C91.7679 75.0828 91.837 74.1863 92.1069 73.6992C93.2865 71.5728 94.3111 69.34 95.1525 67.0626C95.3904 66.4187 96.0344 65.7861 96.7161 65.1158C97.7042 64.1447 98.8239 63.0439 99.166 61.4484C99.5301 59.7499 99.8051 58.0101 99.9831 56.2771C100.11 55.0417 99.5018 53.7521 98.9142 52.5052ZM97.0272 55.9749C96.8602 57.6013 96.6024 59.2339 96.2607 60.8273C96.105 61.5532 95.3896 62.2566 94.6319 63.0011C93.7887 63.8298 92.8329 64.7693 92.3652 66.0353C91.5759 68.1718 90.6145 70.2665 89.5077 72.2617C88.9237 73.3146 88.8296 74.539 88.7387 75.7232C88.6663 76.6654 88.5914 77.6396 88.2632 78.0939C86.8014 80.1173 85.1587 82.0347 83.381 83.7933C82.8736 84.2951 81.7662 84.6191 80.695 84.9322C79.4884 85.2851 78.2408 85.65 77.2679 86.3894C75.3625 87.8377 73.329 89.1437 71.2235 90.2705C70.2002 90.8181 69.3829 91.684 68.5923 92.5211C67.8653 93.2912 67.1135 94.0873 66.409 94.3539C65.8095 94.5809 65.1887 94.8299 64.5883 95.0709C62.7558 95.806 60.8608 96.5664 59.0573 96.9221C57.7164 97.1855 56.1028 96.7832 54.3943 96.3564C52.9216 95.9883 51.3989 95.6078 49.8597 95.6078C48.6703 95.6078 47.4849 96.0096 46.3383 96.3982C45.3068 96.748 44.2405 97.1102 43.5281 97.0186C42.6247 96.9031 41.8185 96.8545 41.0389 96.8076C39.7289 96.7289 38.5972 96.6609 37.3144 96.2928C36.2132 95.9768 34.9405 94.8473 33.7097 93.7549C32.5861 92.7578 31.4241 91.7265 30.2003 91.1369C29.1469 90.6293 28.0935 90.5902 27.2135 90.5902C27.1318 90.5902 27.0516 90.5906 26.973 90.591C26.0678 90.5926 25.4902 90.5814 25.0181 90.2752C23.2734 89.1431 21.5902 87.8783 20.0156 86.5158C19.4239 86.0037 18.7468 84.7638 18.1495 83.6695C17.531 82.5369 16.947 81.467 16.2529 80.7004C15.2014 79.5388 14.1996 78.3099 13.2751 77.0472C12.4573 75.9304 11.6824 74.7638 10.9724 73.5792C10.3123 72.4785 9.18732 71.7074 8.09928 70.9619C7.17904 70.3312 6.22752 69.6792 5.96171 69.0634C5.29809 67.5263 4.71485 65.9349 4.22804 64.3333C3.73712 62.7191 3.33362 61.0583 3.02831 59.3976C2.80828 58.2003 3.27123 56.5341 3.71854 54.9228C4.13611 53.4198 4.56797 51.8657 4.56797 50.3788C4.56797 48.988 4.63192 47.5847 4.75788 46.2073C4.90594 44.5915 5.14319 42.9683 5.46356 41.3825C5.88563 39.293 6.46222 37.2165 7.17728 35.2102C7.66781 33.8342 7.92325 32.2229 8.17047 30.6649C8.49201 28.6379 8.82431 26.542 9.64167 25.2032C10.9147 23.1174 12.3695 21.1186 13.9659 19.2621C14.7895 18.3041 16.1768 17.7366 17.6456 17.1354C18.9823 16.5883 20.3641 16.0227 21.531 15.0873C22.5208 14.2942 23.2052 13.1824 23.867 12.1076C24.4784 11.1145 25.1108 10.0875 25.8264 9.66389C27.7735 8.51174 29.8223 7.49865 31.9156 6.65353C32.8673 6.26935 34.3063 6.34728 35.6975 6.42345C37.0562 6.49747 38.4617 6.57443 39.7588 6.27911C41.2869 5.93165 42.7083 5.26778 44.0826 4.6256C45.9088 3.77266 47.6331 2.967 49.4206 2.967C52.2922 2.967 55.1651 3.23692 57.9601 3.76973C58.8527 3.93966 60.1053 4.82657 61.2103 5.60919C62.3238 6.39747 63.4752 7.21271 64.6094 7.60275C67.013 8.42892 69.3637 9.46779 71.5967 10.6899C73.0212 11.4694 74.4583 11.5414 75.7265 11.6049C77.0872 11.6729 77.9586 11.7447 78.6938 12.336C80.2751 13.6074 81.7858 14.9989 83.1838 16.4713C83.6437 16.9553 84.1874 18.5461 84.5844 19.7077C85.074 21.1389 85.536 22.4909 86.1863 23.3616C86.8505 24.2506 87.9245 24.9676 88.963 25.6608C89.8711 26.2668 90.9005 26.954 91.2226 27.512C92.3879 29.5315 93.2812 32.4456 94.069 35.0167C94.3045 35.785 94.5269 36.5106 94.7526 37.2032C94.9783 37.8962 94.8468 38.4684 94.6647 39.26C94.4709 40.1042 94.2294 41.1548 94.4594 42.4557C94.9188 45.0532 95.152 47.7188 95.152 50.379C95.152 51.4894 95.6978 52.6478 96.2259 53.7683C96.5619 54.4817 97.0699 55.5595 97.0272 55.9749Z" fill="#F14F33"/>
</svg>
