<svg width="100" height="100" viewBox="0 0 100 100" fill="none" xmlns="http://www.w3.org/2000/svg">
<path d="M91.3359 85.7269H91.1527V79.8487C91.1527 78.3797 89.9577 77.1847 88.4887 77.1847H88.3054V61.2918C88.3054 59.0646 86.4935 57.2527 84.2664 57.2527H84.0909C86.0774 50.6147 85.8904 43.4445 83.5263 36.8665C80.9248 29.6281 75.8184 23.5206 69.1476 19.669C62.7138 15.9548 55.1365 14.5409 47.8113 15.6896C47.108 15.7999 46.6273 16.4594 46.7375 17.1626C46.8478 17.8659 47.5066 18.3468 48.2106 18.2364C54.9553 17.1794 61.9331 18.4807 67.8585 21.9017C80.2244 29.0414 85.8186 43.791 81.3899 57.2527H78.3766C78.2788 57.2527 78.1822 57.2573 78.0861 57.2642C80.0243 52.067 80.3053 46.4102 78.8406 40.9444C76.9799 33.9999 72.5263 28.1956 66.2999 24.6008C60.0738 21.0062 52.8203 20.0513 45.8759 21.9118C39.348 23.661 33.8285 27.7017 30.2038 33.3518L27.5017 31.7918C31.2044 25.9683 36.7912 21.5971 43.3603 19.414C44.0359 19.1893 44.4015 18.4597 44.177 17.7842C43.9526 17.1088 43.223 16.7425 42.5473 16.9675C41.2248 17.407 39.9398 17.93 38.6968 18.5278L31.205 14.2023C29.9095 13.454 28.2472 13.9 27.4993 15.1953L27.4316 15.3127L11.908 6.36289C10.6126 5.61505 8.95023 6.06038 8.20241 7.35564L6.77877 9.82172C6.41645 10.4491 6.3202 11.1802 6.50772 11.8803C6.69523 12.5803 7.14417 13.1654 7.77238 13.5279L23.2951 22.4773L23.2282 22.5932C22.4804 23.8888 22.9259 25.5511 24.2213 26.299L27.0621 27.9392C26.4258 28.7613 25.8277 29.6171 25.2687 30.5027L25.1287 30.422C23.8334 29.6739 22.171 30.1194 21.423 31.4149L19.9992 33.8808C19.6371 34.5083 19.5408 35.2393 19.7282 35.9394C19.9157 36.6392 20.3646 37.2245 20.9921 37.5866L26.068 40.5171C19.53 53.1913 24.0582 68.948 36.5369 76.1525C37.1843 76.5264 37.8441 76.8682 38.5124 77.1848H22.2766C21.5647 77.1848 20.9875 77.7618 20.9875 78.4739C20.9875 79.186 21.5647 79.763 22.2766 79.763H88.4885C88.5358 79.763 88.5744 79.8016 88.5744 79.8489V85.7271H11.4256V79.8489C11.4256 79.8016 11.4641 79.763 11.5115 79.763H17.1205C17.8324 79.763 18.4095 79.186 18.4095 78.4739C18.4095 77.7618 17.8324 77.1848 17.1205 77.1848H11.5115C10.0425 77.1848 8.84745 78.3799 8.84745 79.8489V85.7271H8.66406C7.19505 85.7271 6 86.9221 6 88.3912V91.3359C6 92.8049 7.19505 94 8.66406 94H91.3359C92.805 94 94 92.8049 94 91.3359V88.3912C94 86.922 92.805 85.7269 91.3359 85.7269ZM11.644 12.7842L9.06058 11.2947C9.02861 11.2763 9.00747 11.2488 8.99802 11.2129C8.98839 11.1771 8.99286 11.1428 9.01142 11.1106L10.4351 8.64454C10.4598 8.60157 10.505 8.57734 10.5518 8.57734C10.5748 8.57734 10.5983 8.58318 10.6198 8.59556L13.2026 10.0847L11.644 12.7842ZM13.8775 14.0719L15.4359 11.3726L26.1424 17.5453L24.584 20.2445L13.8775 14.0719ZM25.51 24.0661C25.4458 24.029 25.4238 23.9465 25.4607 23.8822L29.7318 16.4845C29.7688 16.4201 29.8513 16.3977 29.9157 16.4352L36.0309 19.9659C33.3268 21.5916 30.8741 23.6022 28.7475 25.9356L25.51 24.0661ZM37.8259 73.9195C26.5786 67.4259 22.4739 53.2483 28.3028 41.8072L40.9104 49.0863C40.0828 51.0765 39.9312 53.2707 40.4982 55.3873C41.178 57.9239 42.8046 60.044 45.0789 61.3567C46.5938 62.2314 48.2749 62.6783 49.9785 62.6783C50.8324 62.6783 51.6921 62.5661 52.5389 62.339C54.6554 61.7718 56.4799 60.5434 57.7895 58.8317L65.4564 63.2582C62.9826 66.9405 59.3144 69.5977 55.0035 70.8C54.3177 70.9913 53.9169 71.7021 54.108 72.3879C54.267 72.9579 54.7848 73.331 55.3491 73.331C55.4637 73.331 55.5803 73.3156 55.6961 73.2834C60.6612 71.8986 64.8766 68.8182 67.6932 64.5495L70.3973 66.1108C63.4037 76.8792 49.0733 80.4132 37.8259 73.9195ZM43.169 50.3902L55.5315 57.5279C54.5846 58.6516 53.3211 59.4604 51.8721 59.8487C50.0009 60.3504 48.0461 60.0928 46.3683 59.1241C44.6904 58.1554 43.4902 56.5913 42.9889 54.7199C42.6004 53.2707 42.6692 51.7719 43.169 50.3902ZM74.3375 77.1845H61.4941C66.0401 75.0488 69.8827 71.6891 72.6334 67.4015L74.3375 68.3855V77.1845ZM74.3375 65.4086L22.2812 35.3536C22.2169 35.3165 22.1949 35.234 22.232 35.1697L23.6557 32.7038C23.6928 32.6395 23.7751 32.6172 23.8396 32.6545L74.3375 61.8096V65.4086ZM32.4387 34.6422C35.7168 29.588 40.6808 25.9731 46.5431 24.4023C52.8227 22.7197 59.3813 23.583 65.0109 26.8337C70.6408 30.084 74.668 35.3323 76.3505 41.6116C77.9213 47.474 77.2726 53.5802 74.5348 58.9465L32.4387 34.6422ZM76.9156 77.1845V74.0677H85.7273V77.1845H76.9156ZM76.9156 71.4897V61.2918C76.9156 60.4864 77.571 59.8308 78.3766 59.8308H84.2664C85.072 59.8308 85.7273 60.4864 85.7273 61.2918V71.4897H76.9156ZM14.5422 91.4215H8.66406C8.61663 91.4215 8.57812 91.3828 8.57812 91.3356V88.3908C8.57812 88.3436 8.61663 88.3049 8.66406 88.3049H14.5422V91.4215ZM82.8797 91.4215H17.1203V88.3049H82.8797V91.4215ZM91.4219 91.3356C91.4219 91.3828 91.3832 91.4215 91.3359 91.4215H85.4578V88.3049H91.3359C91.3832 88.3049 91.4219 88.3436 91.4219 88.3908V91.3356Z" fill="#F14F33"/>
<path d="M64.3462 36.6246L56.8642 32.3047C56.2478 31.9491 55.5296 31.8545 54.8426 32.0384C54.1552 32.2227 53.5807 32.6637 53.2251 33.2799L51.7526 35.8302C51.0182 37.1023 51.4556 38.7347 52.7278 39.4693L60.2099 43.7893C60.6203 44.0263 61.0758 44.1473 61.5375 44.1473C61.769 44.1473 62.002 44.1169 62.2315 44.0553C62.9188 43.8713 63.4932 43.4302 63.849 42.8141L65.3215 40.2638C66.0559 38.9917 65.6183 37.359 64.3462 36.6246ZM63.0886 38.9747L61.6162 41.525C61.6119 41.5327 61.5983 41.5559 61.5639 41.565C61.5292 41.5736 61.5063 41.5611 61.4988 41.5564L54.0167 37.2365C53.9756 37.2128 53.9615 37.1602 53.9851 37.1191L55.4577 34.5686C55.462 34.5611 55.4753 34.5379 55.5098 34.5288C55.5442 34.5195 55.5674 34.5327 55.5749 34.5374L63.057 38.8573C63.0982 38.881 63.1123 38.9338 63.0886 38.9747Z" fill="#F14F33"/>
<path d="M81.3213 64.3713C80.6092 64.3713 80.0322 64.9483 80.0322 65.6604V67.084C80.0322 67.7961 80.6092 68.3731 81.3213 68.3731C82.0334 68.3731 82.6104 67.7961 82.6104 67.084V65.6604C82.6104 64.9483 82.0334 64.3713 81.3213 64.3713Z" fill="#F14F33"/>
</svg>
