<svg width="100" height="100" viewBox="0 0 100 100" fill="none" xmlns="http://www.w3.org/2000/svg">
<path d="M36.8102 63.074C36.8102 58.0018 34.4837 54.1763 31.3976 54.1763C28.3115 54.1763 25.9858 58.0018 25.9858 63.074C25.9858 68.1463 28.3123 71.971 31.3976 71.971C31.7607 71.971 32.1089 71.8285 32.3656 71.5748C32.6224 71.3211 32.7666 70.9771 32.7666 70.6183C32.7666 70.2595 32.6224 69.9155 32.3656 69.6618C32.1089 69.4081 31.7607 69.2656 31.3976 69.2656C30.3071 69.2656 28.7238 66.8539 28.7238 63.074C28.7238 59.2942 30.3071 56.8817 31.3976 56.8817C32.4881 56.8817 34.0722 59.2934 34.0722 63.074C34.0722 63.4328 34.2164 63.7769 34.4732 64.0306C34.7299 64.2842 35.0781 64.4267 35.4412 64.4267C35.8043 64.4267 36.1525 64.2842 36.4092 64.0306C36.666 63.7769 36.8102 63.4328 36.8102 63.074Z" fill="#F14F33"/>
<path d="M16.7839 70.8193C16.915 70.6975 17.0204 70.5513 17.0943 70.3893C17.1682 70.2272 17.2091 70.0523 17.2145 69.8746C17.22 69.6969 17.19 69.5199 17.1263 69.3537C17.0625 69.1874 16.9663 69.0352 16.843 68.9058C16.7197 68.7763 16.5718 68.6721 16.4078 68.5991C16.2438 68.5261 16.0668 68.4857 15.887 68.4803C15.7072 68.4749 15.528 68.5045 15.3598 68.5675C15.1915 68.6305 15.0375 68.7256 14.9065 68.8474C14.6838 69.0897 14.3761 69.2392 14.046 69.2656C12.9555 69.2656 11.3714 66.8539 11.3714 63.074C11.3714 59.2942 12.9555 56.8817 14.046 56.8817C14.4091 56.8817 14.7573 56.7392 15.014 56.4855C15.2707 56.2318 15.415 55.8878 15.415 55.529C15.415 55.1702 15.2707 54.8262 15.014 54.5725C14.7573 54.3188 14.4091 54.1763 14.046 54.1763C10.9607 54.1763 8.63342 58.0018 8.63342 63.074C8.63342 68.1463 10.9607 71.971 14.046 71.971C15.0748 71.9504 16.0558 71.5377 16.7839 70.8193Z" fill="#F14F33"/>
<path d="M17.6444 66.7921C17.7235 66.8058 17.8036 66.8128 17.8838 66.8129C18.2053 66.8125 18.5164 66.7003 18.7626 66.4959C19.0088 66.2915 19.1743 66.0081 19.2301 65.6952C19.3833 64.8297 19.4595 63.9526 19.4578 63.074C19.4578 62.7153 19.3135 62.3712 19.0568 62.1175C18.8001 61.8638 18.4519 61.7213 18.0888 61.7213C17.7257 61.7213 17.3775 61.8638 17.1208 62.1175C16.864 62.3712 16.7198 62.7153 16.7198 63.074C16.7211 63.7948 16.6591 64.5143 16.5344 65.2245C16.5031 65.3994 16.507 65.5787 16.5458 65.7522C16.5847 65.9257 16.6577 66.0899 16.7608 66.2355C16.8639 66.381 16.995 66.5051 17.1466 66.6006C17.2982 66.6961 17.4674 66.7612 17.6444 66.7921Z" fill="#F14F33"/>
<path d="M26.7188 36.5733C26.3558 36.5733 26.0076 36.7158 25.7508 36.9695C25.4941 37.2231 25.3499 37.5672 25.3499 37.926C25.3499 41.4701 23.7931 43.7326 22.7214 43.7326C21.6497 43.7326 20.093 41.4701 20.093 37.926C20.093 34.3819 21.6497 32.1209 22.7214 32.1209C23.0845 32.1209 23.4327 31.9784 23.6894 31.7247C23.9462 31.471 24.0904 31.127 24.0904 30.7682C24.0904 30.4094 23.9462 30.0654 23.6894 29.8117C23.4327 29.558 23.0845 29.4155 22.7214 29.4155C19.6627 29.4155 17.355 33.074 17.355 37.926C17.355 42.778 19.6627 46.438 22.7214 46.438C25.7801 46.438 28.0878 42.7787 28.0878 37.926C28.0876 37.5673 27.9433 37.2233 27.6866 36.9697C27.4299 36.716 27.0818 36.5735 26.7188 36.5733Z" fill="#F14F33"/>
<path d="M97 63.1142C97 63.1003 97 63.0872 97 63.074C97 55.2878 92.5997 49.1705 86.9767 49.1473H84.2739C86.7412 46.632 88.323 42.5839 88.323 37.926C88.323 30.1405 83.9227 24.0232 78.2997 24H22.7222C17.1829 24 12.6762 30.2472 12.6762 37.926C12.6762 42.5321 14.3041 46.6104 16.7972 49.1473H14.046C8.50669 49.1473 4 55.3945 4 63.074C4 70.7536 8.5059 77 14.046 77H86.983C92.5801 76.9791 96.9664 70.9051 96.9961 63.1591C96.9961 63.149 96.9961 63.1397 96.9961 63.1297L97 63.1142ZM83.1733 29.6234H52.1357C51.7727 29.6234 51.4245 29.7659 51.1677 30.0196C50.911 30.2733 50.7668 30.6174 50.7668 30.9761C50.7668 31.3349 50.911 31.679 51.1677 31.9326C51.4245 32.1863 51.7727 32.3288 52.1357 32.3288H84.6002C85.2623 34.1219 85.5961 36.0172 85.5858 37.926C85.5948 39.7233 85.3022 41.5096 84.7198 43.2124H42.2736C41.9105 43.2124 41.5623 43.3549 41.3056 43.6086C41.0488 43.8623 40.9046 44.2063 40.9046 44.5651C40.9046 44.9238 41.0488 45.2679 41.3056 45.5216C41.5623 45.7753 41.9105 45.9178 42.2736 45.9178H83.3955C82.0797 47.9043 80.2796 49.1388 78.295 49.1473H28.6471C31.1215 46.4239 32.5609 42.9353 32.7189 39.2787H60.4349C60.798 39.2787 61.1462 39.1362 61.4029 38.8825C61.6596 38.6288 61.8039 38.2847 61.8039 37.926C61.8039 37.5672 61.6596 37.2231 61.4029 36.9695C61.1462 36.7158 60.798 36.5733 60.4349 36.5733H32.7189C32.5614 32.9175 31.1235 29.4294 28.6511 26.7054H78.2981C80.1717 26.7139 81.8794 27.8239 83.1733 29.6234ZM25.4742 51.8527C24.2964 53.0819 23.3629 54.5188 22.7222 56.0886C22.0821 54.5185 21.1485 53.0815 19.9701 51.8527H25.4742ZM15.4142 37.926C15.4142 31.8442 18.7607 26.7054 22.7222 26.7054C26.6836 26.7054 30.0302 31.8442 30.0302 37.926C30.0302 44.0078 26.6836 49.1473 22.7222 49.1473C18.7607 49.1473 15.4142 44.007 15.4142 37.926ZM6.73718 63.074C6.73718 56.9915 10.0838 51.8527 14.0452 51.8527C18.0066 51.8527 21.3532 56.9915 21.3532 63.074C21.3532 69.1566 18.0066 74.2946 14.046 74.2946C10.0853 74.2946 6.73718 69.1558 6.73718 63.074ZM22.7222 70.0563C23.3629 71.6262 24.2964 73.0631 25.4742 74.2923H19.9701C21.1485 73.0635 22.0821 71.6265 22.7222 70.0563ZM24.0912 63.0717C24.0912 56.9892 27.4385 51.8504 31.3992 51.8504C35.3598 51.8504 38.708 56.9892 38.708 63.0717C38.708 69.1543 35.3606 74.2923 31.3992 74.2923C27.4377 74.2923 24.0912 69.1558 24.0912 63.074V63.0717ZM86.9775 74.2946H37.3249C39.7879 71.585 41.2253 68.1161 41.3928 64.4778H50.8669C51.23 64.4778 51.5782 64.3352 51.8349 64.0816C52.0916 63.8279 52.2359 63.4838 52.2359 63.1251C52.2359 62.7663 52.0916 62.4222 51.8349 62.1685C51.5782 61.9149 51.23 61.7723 50.8669 61.7723H41.4014C41.3055 60.3023 41.0313 58.849 40.5847 57.4437H71.4908C71.8539 57.4437 72.2021 57.3011 72.4588 57.0475C72.7155 56.7938 72.8598 56.4497 72.8598 56.091C72.8598 55.7322 72.7155 55.3881 72.4588 55.1344C72.2021 54.8808 71.8539 54.7382 71.4908 54.7382H39.4292C38.8674 53.6834 38.1591 52.7114 37.3249 51.8504H86.9728C90.7066 51.8651 93.7888 56.2092 94.2096 61.7716H62.2639C61.9008 61.7716 61.5526 61.9141 61.2958 62.1678C61.0391 62.4215 60.8949 62.7655 60.8949 63.1243C60.8949 63.483 61.0391 63.8271 61.2958 64.0808C61.5526 64.3345 61.9008 64.477 62.2639 64.477H94.1987C93.7457 69.9906 90.6816 74.2791 86.9775 74.2946Z" fill="#F14F33"/>
<path d="M77.8961 57.446H81.8074C82.1705 57.446 82.5187 57.3035 82.7755 57.0498C83.0322 56.7961 83.1764 56.452 83.1764 56.0933C83.1764 55.7345 83.0322 55.3904 82.7755 55.1368C82.5187 54.8831 82.1705 54.7406 81.8074 54.7406H77.8961C77.533 54.7406 77.1848 54.8831 76.928 55.1368C76.6713 55.3904 76.5271 55.7345 76.5271 56.0933C76.5271 56.452 76.6713 56.7961 76.928 57.0498C77.1848 57.3035 77.533 57.446 77.8961 57.446Z" fill="#F14F33"/>
<path d="M64.8156 68.2143H47.798C47.4349 68.2143 47.0867 68.3569 46.83 68.6105C46.5733 68.8642 46.429 69.2083 46.429 69.5671C46.429 69.9258 46.5733 70.2699 46.83 70.5236C47.0867 70.7772 47.4349 70.9198 47.798 70.9198H64.8156C65.1787 70.9198 65.5269 70.7772 65.7837 70.5236C66.0404 70.2699 66.1846 69.9258 66.1846 69.5671C66.1846 69.2083 66.0404 68.8642 65.7837 68.6105C65.5269 68.3569 65.1787 68.2143 64.8156 68.2143Z" fill="#F14F33"/>
<path d="M86.39 68.2143H75.9724C75.6094 68.2143 75.2612 68.3569 75.0044 68.6105C74.7477 68.8642 74.6035 69.2083 74.6035 69.5671C74.6035 69.9258 74.7477 70.2699 75.0044 70.5236C75.2612 70.7772 75.6094 70.9198 75.9724 70.9198H86.39C86.7531 70.9198 87.1013 70.7772 87.358 70.5236C87.6148 70.2699 87.759 69.9258 87.759 69.5671C87.759 69.2083 87.6148 68.8642 87.358 68.6105C87.1013 68.3569 86.7531 68.2143 86.39 68.2143Z" fill="#F14F33"/>
<path d="M38.618 32.3288H43.2248C43.5879 32.3288 43.9361 32.1863 44.1929 31.9326C44.4496 31.679 44.5938 31.3349 44.5938 30.9761C44.5938 30.6174 44.4496 30.2733 44.1929 30.0196C43.9361 29.7659 43.5879 29.6234 43.2248 29.6234H38.618C38.2549 29.6234 37.9067 29.7659 37.65 30.0196C37.3933 30.2733 37.249 30.6174 37.249 30.9761C37.249 31.3349 37.3933 31.679 37.65 31.9326C37.9067 32.1863 38.2549 32.3288 38.618 32.3288Z" fill="#F14F33"/>
<path d="M68.0589 39.2787H73.3972C73.7603 39.2787 74.1085 39.1362 74.3652 38.8825C74.6219 38.6288 74.7662 38.2847 74.7662 37.926C74.7662 37.5672 74.6219 37.2231 74.3652 36.9695C74.1085 36.7158 73.7603 36.5733 73.3972 36.5733H68.0589C67.6959 36.5733 67.3477 36.7158 67.0909 36.9695C66.8342 37.2231 66.69 37.5672 66.69 37.926C66.69 38.2847 66.8342 38.6288 67.0909 38.8825C67.3477 39.1362 67.6959 39.2787 68.0589 39.2787Z" fill="#F14F33"/>
</svg>
