<svg width="100" height="100" viewBox="0 0 100 100" fill="none" xmlns="http://www.w3.org/2000/svg">
<path d="M21.125 77.5C23.2165 77.5 25.2533 77.0456 27.1406 76.1721V90.5625H13.3906C12.4415 90.5625 11.6719 91.332 11.6719 92.2812C11.6719 93.2305 12.4415 94 13.3906 94H86.6094C87.5585 94 88.3281 93.2305 88.3281 92.2812C88.3281 91.332 87.5585 90.5625 86.6094 90.5625H72.8594V76.1721C74.7467 77.0456 76.7835 77.5 78.875 77.5C87.0736 77.5 94 70.8098 94 62.8906C94 56.5747 89.4115 50.788 83.122 48.9107C82.7577 44.9364 80.419 41.3841 76.9515 39.4649C77.6573 37.5655 78.0156 35.5665 78.0156 33.5C78.0156 32.0824 77.8419 30.6737 77.4991 29.3126C77.2671 28.392 76.3326 27.8336 75.4127 28.0655C74.4924 28.2972 73.9339 29.2313 74.1656 30.1519C74.4393 31.2388 74.5781 32.3651 74.5781 33.5C74.5781 35.1467 74.2944 36.7386 73.7356 38.2506C72.8872 38.0638 72.0194 37.9688 71.1406 37.9688C64.8734 37.9688 59.7101 42.785 59.1582 48.911C56.2028 49.7934 53.6233 51.5393 51.7188 53.7976V39.7415L61.5672 35.0517C62.4242 34.6435 62.7882 33.6179 62.38 32.7609C61.9718 31.9038 60.9459 31.5399 60.0892 31.9481L51.7188 35.9341V23.1875C51.7188 22.2382 50.9491 21.4688 50 21.4688C49.0509 21.4688 48.2812 22.2382 48.2812 23.1875V30.7778L39.9109 26.7919C39.0536 26.384 38.0282 26.7475 37.6202 27.6047C37.212 28.4617 37.5758 29.4874 38.433 29.8954L48.2814 34.5852V53.7976C46.3769 51.5393 43.7974 49.7934 40.842 48.911C40.2899 42.785 35.1266 37.9688 28.8594 37.9688C27.9808 37.9688 27.1128 38.0638 26.2644 38.2506C25.7056 36.7388 25.4219 35.1467 25.4219 33.5C25.4219 26.6934 30.3287 21.0021 37.0893 19.9674C37.8129 19.8567 38.3869 19.2999 38.5196 18.5799C39.4641 13.4534 44.5069 9.4375 50 9.4375C55.4931 9.4375 60.5359 13.4534 61.4804 18.5799C61.6131 19.2997 62.1871 19.8567 62.9107 19.9674C63.6139 20.075 64.3134 20.2383 64.9906 20.4525C65.8957 20.7391 66.8615 20.2376 67.148 19.3325C67.4343 18.4276 66.933 17.4617 66.0279 17.1753C65.5564 17.0261 65.0764 16.8967 64.5915 16.7883C62.8609 10.5614 56.7975 6 50 6C43.2025 6 37.1391 10.5616 35.4085 16.7883C27.6356 18.5316 21.9844 25.405 21.9844 33.5C21.9844 35.5665 22.3427 37.5655 23.0483 39.4647C19.5812 41.3839 17.2422 44.9362 16.878 48.9107C10.5885 50.788 6 56.5747 6 62.8906C6 70.8098 12.9264 77.5 21.125 77.5ZM30.5781 76.1721C32.4655 77.0456 34.5022 77.5 36.5938 77.5C41.2425 77.5 45.4812 75.3486 48.2812 72.0425V90.5625H30.5781V76.1721ZM51.7188 90.5625V72.0425C54.5188 75.3486 58.7575 77.5 63.4062 77.5C65.4978 77.5 67.5345 77.0456 69.4219 76.1721V90.5625H51.7188ZM61.1925 51.9429C62.024 51.7758 62.6983 51.0062 62.5472 49.9232C62.5888 45.2198 66.4278 41.4062 71.1406 41.4062C75.8876 41.4062 79.6921 45.2513 79.734 49.9232C79.5842 50.9981 80.2488 51.7743 81.0888 51.9429C86.4898 53.0277 90.5625 57.7344 90.5625 62.8906C90.5625 68.9465 85.2101 74.0625 78.875 74.0625C76.7434 74.0625 74.6802 73.4381 72.8594 72.2516V66.5309L82.2217 61.8498C83.0708 61.4252 83.4149 60.3928 82.9905 59.5437C82.5658 58.6946 81.5329 58.3504 80.6847 58.7751L72.8594 62.6878C72.8594 61.2405 72.8594 52.2048 72.8594 50C72.8594 49.0507 72.0897 48.2812 71.1406 48.2812C70.1915 48.2812 69.4219 49.0507 69.4219 50V56.1629L67.1997 53.9408C66.5284 53.2698 65.4404 53.2698 64.7689 53.9408C64.0977 54.6119 64.0977 55.7002 64.7689 56.3716L69.4219 61.0246V72.2516C67.601 73.4381 65.5378 74.0625 63.4062 74.0625C57.0711 74.0625 51.7188 68.9465 51.7188 62.8906C51.7188 57.7344 55.7915 53.0277 61.1925 51.9429ZM18.9113 51.9429C19.7419 51.776 20.4172 51.0079 20.266 49.9232C20.3079 45.2511 24.1084 41.4062 28.8594 41.4062C33.5722 41.4062 37.4112 45.2198 37.4528 49.9232C37.3026 50.9996 37.9696 51.7746 38.8075 51.9429C44.2085 53.0277 48.2812 57.7344 48.2812 62.8906C48.2812 68.9465 42.9289 74.0625 36.5938 74.0625C34.4622 74.0625 32.399 73.4381 30.5781 72.2516V71.3371L35.231 66.6842C35.9021 66.0131 35.9021 64.9248 35.231 64.2534C34.5596 63.5824 33.4716 63.5824 32.8001 64.2534L30.5781 66.4754V55.1562C30.5781 54.207 29.8085 53.4375 28.8594 53.4375C27.9103 53.4375 27.1406 54.207 27.1406 55.1562V62.6878L19.3155 58.7752C18.4664 58.3507 17.4342 58.6948 17.0096 59.5439C16.5851 60.3929 16.9292 61.4254 17.7784 61.8499L27.1406 66.5309V72.2515C25.3198 73.4381 23.2566 74.0625 21.125 74.0625C14.7899 74.0625 9.4375 68.9465 9.4375 62.8906C9.4375 57.7344 13.5103 53.0277 18.9113 51.9429Z" fill="#F14F33"/>
<path d="M72 24.7344C72.9492 24.7344 73.7188 23.9649 73.7188 23.0156C73.7188 22.0664 72.9492 21.2969 72 21.2969C71.0508 21.2969 70.2812 22.0664 70.2812 23.0156C70.2812 23.9649 71.0508 24.7344 72 24.7344Z" fill="#F14F33"/>
</svg>
