<svg width="100" height="100" viewBox="0 0 100 100" fill="none" xmlns="http://www.w3.org/2000/svg">
<path d="M94.6458 17.7185H66.2896V5.36896C66.2897 5.18916 66.2547 5.0111 66.1867 4.84496C66.1187 4.67882 66.0189 4.52787 65.8931 4.40073C65.7674 4.27359 65.618 4.17276 65.4537 4.104C65.2893 4.03524 65.1132 3.9999 64.9353 4H35.0647C34.8868 3.9999 34.7107 4.03524 34.5463 4.104C34.382 4.17276 34.2326 4.27359 34.1069 4.40073C33.9811 4.52787 33.8813 4.67882 33.8133 4.84496C33.7453 5.0111 33.7103 5.18916 33.7104 5.36896V10.8589H5.35424C4.99507 10.8589 4.65062 11.0031 4.39665 11.2598C4.14268 11.5166 4 11.8648 4 12.2278V88.7722C4 89.1352 4.14268 89.4834 4.39665 89.7402C4.65062 89.9969 4.99507 90.1411 5.35424 90.1411H35.0647C35.4239 90.1411 35.7683 89.9969 36.0223 89.7402C36.2762 89.4834 36.4189 89.1352 36.4189 88.7722V83.2815H63.5811V95.631C63.581 95.8108 63.6159 95.9889 63.684 96.155C63.752 96.3212 63.8517 96.4721 63.9775 96.5993C64.1033 96.7264 64.2526 96.8272 64.417 96.896C64.5813 96.9648 64.7574 97.0001 64.9353 97H94.6458C94.8236 97.0001 94.9998 96.9648 95.1641 96.896C95.3285 96.8272 95.4778 96.7264 95.6036 96.5993C95.7294 96.4721 95.8291 96.3212 95.8971 96.155C95.9651 95.9889 96.0001 95.8108 96 95.631V19.0875C96 18.7244 95.8573 18.3762 95.6033 18.1195C95.3494 17.8628 95.0049 17.7185 94.6458 17.7185ZM16.8792 87.4032V75.0529C16.8792 74.6898 16.7365 74.3416 16.4825 74.0849C16.2286 73.8281 15.8841 73.6839 15.525 73.6839C15.1658 73.6839 14.8213 73.8281 14.5674 74.0849C14.3134 74.3416 14.1707 74.6898 14.1707 75.0529V87.4032H6.70848V13.5968H14.1707V22.2979C14.1707 22.661 14.3134 23.0092 14.5674 23.2659C14.8213 23.5226 15.1658 23.6668 15.525 23.6668C15.8841 23.6668 16.2286 23.5226 16.4825 23.2659C16.7365 23.0092 16.8792 22.661 16.8792 22.2979V13.5968H23.8841V53.676C23.8841 54.0391 24.0268 54.3873 24.2807 54.644C24.5347 54.9007 24.8792 55.0449 25.2383 55.0449C25.5975 55.0449 25.942 54.9007 26.1959 54.644C26.4499 54.3873 26.5926 54.0391 26.5926 53.676V13.5968H33.712V87.4032H16.8792ZM36.4189 6.73792H43.4873V22.2979C43.4873 22.661 43.63 23.0092 43.8839 23.2659C44.1379 23.5226 44.4823 23.6668 44.8415 23.6668C45.2007 23.6668 45.5451 23.5226 45.7991 23.2659C46.0531 23.0092 46.1957 22.661 46.1957 22.2979V6.73792H53.8042V36.0485C53.8042 36.4116 53.9469 36.7598 54.2009 37.0165C54.4549 37.2732 54.7993 37.4175 55.1585 37.4175C55.5177 37.4175 55.8621 37.2732 56.1161 37.0165C56.37 36.7598 56.5127 36.4116 56.5127 36.0485V6.73792H63.5811V80.5436H46.1957V52.0645C46.1957 51.7015 46.0531 51.3533 45.7991 51.0965C45.5451 50.8398 45.2007 50.6956 44.8415 50.6956C44.4823 50.6956 44.1379 50.8398 43.8839 51.0965C43.63 51.3533 43.4873 51.7015 43.4873 52.0645V80.5389H36.4189V6.73792ZM93.2915 94.2621H76.4657V81.9125C76.4657 81.5494 76.323 81.2012 76.069 80.9445C75.8151 80.6878 75.4706 80.5436 75.1114 80.5436C74.7523 80.5436 74.4078 80.6878 74.1539 80.9445C73.8999 81.2012 73.7572 81.5494 73.7572 81.9125V94.2621H66.2896V20.4564H83.469V37.7687C83.469 38.1318 83.6117 38.48 83.8657 38.7367C84.1197 38.9934 84.4641 39.1376 84.8233 39.1376C85.1824 39.1376 85.5269 38.9934 85.7809 38.7367C86.0348 38.48 86.1775 38.1318 86.1775 37.7687V20.4564H93.2969L93.2915 94.2621Z" fill="#F14F33"/>
<path d="M44.8415 39.8659C45.2007 39.8659 45.5451 39.7217 45.7991 39.465C46.0531 39.2082 46.1957 38.86 46.1957 38.497V31.6373C46.1957 31.2742 46.0531 30.926 45.7991 30.6693C45.5451 30.4126 45.2007 30.2684 44.8415 30.2684C44.4823 30.2684 44.1379 30.4126 43.8839 30.6693C43.63 30.926 43.4873 31.2742 43.4873 31.6373V38.497C43.4873 38.86 43.63 39.2082 43.8839 39.465C44.1379 39.7217 44.4823 39.8659 44.8415 39.8659Z" fill="#F14F33"/>
<path d="M55.1585 58.7286C55.5177 58.7286 55.8621 58.5844 56.1161 58.3277C56.37 58.0709 56.5127 57.7227 56.5127 57.3597V43.9564C56.5127 43.5933 56.37 43.2451 56.1161 42.9884C55.8621 42.7316 55.5177 42.5874 55.1585 42.5874C54.7993 42.5874 54.4549 42.7316 54.2009 42.9884C53.9469 43.2451 53.8042 43.5933 53.8042 43.9564V57.3597C53.8042 57.7227 53.9469 58.0709 54.2009 58.3277C54.4549 58.5844 54.7993 58.7286 55.1585 58.7286Z" fill="#F14F33"/>
<path d="M55.1585 73.4038C55.3364 73.4039 55.5125 73.3686 55.6769 73.2999C55.8412 73.2311 55.9905 73.1303 56.1163 73.0031C56.2421 72.876 56.3418 72.725 56.4098 72.5589C56.4779 72.3928 56.5128 72.2147 56.5127 72.0349V66.674C56.5127 66.311 56.37 65.9628 56.1161 65.706C55.8621 65.4493 55.5177 65.3051 55.1585 65.3051C54.7993 65.3051 54.4549 65.4493 54.2009 65.706C53.9469 65.9628 53.8042 66.311 53.8042 66.674V72.0349C53.8041 72.2147 53.8391 72.3928 53.9071 72.5589C53.9751 72.725 54.0749 72.876 54.2007 73.0031C54.3264 73.1303 54.4758 73.2311 54.6401 73.2999C54.8045 73.3686 54.9806 73.4039 55.1585 73.4038Z" fill="#F14F33"/>
<path d="M75.1076 27.2731C74.7485 27.2733 74.4041 27.4176 74.1502 27.6743C73.8963 27.9309 73.7535 28.279 73.7533 28.642V57.3597C73.7533 57.7227 73.896 58.0709 74.15 58.3277C74.404 58.5844 74.7484 58.7286 75.1076 58.7286C75.4667 58.7286 75.8112 58.5844 76.0652 58.3277C76.3191 58.0709 76.4618 57.7227 76.4618 57.3597V28.642C76.4618 28.279 76.3191 27.9308 76.0652 27.674C75.8112 27.4173 75.4667 27.2731 75.1076 27.2731Z" fill="#F14F33"/>
<path d="M84.8233 47.2927C84.4641 47.2927 84.1197 47.437 83.8657 47.6937C83.6117 47.9504 83.469 48.2986 83.469 48.6617V86.5951C83.469 86.9582 83.6117 87.3064 83.8657 87.5631C84.1197 87.8199 84.4641 87.9641 84.8233 87.9641C85.1824 87.9641 85.5269 87.8199 85.7809 87.5631C86.0348 87.3064 86.1775 86.9582 86.1775 86.5951V48.664C86.1778 48.4841 86.143 48.3058 86.0751 48.1394C86.0072 47.9731 85.9075 47.8219 85.7817 47.6945C85.6559 47.5671 85.5065 47.4661 85.3421 47.3972C85.1776 47.3282 85.0013 47.2927 84.8233 47.2927Z" fill="#F14F33"/>
<path d="M75.1076 69.0396C74.7485 69.0398 74.4041 69.1841 74.1502 69.4408C73.8963 69.6975 73.7535 70.0456 73.7533 70.4086V74.0922C73.7533 74.4553 73.896 74.8035 74.15 75.0602C74.404 75.317 74.7484 75.4612 75.1076 75.4612C75.4667 75.4612 75.8112 75.317 76.0652 75.0602C76.3191 74.8035 76.4618 74.4553 76.4618 74.0922V70.4086C76.4618 70.0455 76.3191 69.6973 76.0652 69.4406C75.8112 69.1838 75.4667 69.0396 75.1076 69.0396Z" fill="#F14F33"/>
<path d="M15.5211 32.2193C15.162 32.2195 14.8176 32.3638 14.5637 32.6205C14.3098 32.8772 14.1671 33.2253 14.1668 33.5883V61.508C14.1668 61.8711 14.3095 62.2193 14.5635 62.476C14.8175 62.7327 15.1619 62.8769 15.5211 62.8769C15.8803 62.8769 16.2247 62.7327 16.4787 62.476C16.7326 62.2193 16.8753 61.8711 16.8753 61.508V33.5883C16.8753 33.2252 16.7326 32.877 16.4787 32.6203C16.2247 32.3635 15.8803 32.2193 15.5211 32.2193Z" fill="#F14F33"/>
<path d="M25.2368 66.2618C24.8776 66.2618 24.5332 66.406 24.2792 66.6628C24.0252 66.9195 23.8825 67.2677 23.8825 67.6308V74.4904C23.8825 74.8535 24.0252 75.2017 24.2792 75.4584C24.5332 75.7151 24.8776 75.8594 25.2368 75.8594C25.5959 75.8594 25.9404 75.7151 26.1944 75.4584C26.4483 75.2017 26.591 74.8535 26.591 74.4904V67.6315C26.5911 67.4517 26.5562 67.2736 26.4882 67.1074C26.4201 66.9412 26.3204 66.7902 26.1946 66.663C26.0689 66.5358 25.9196 66.4349 25.7552 66.3661C25.5908 66.2972 25.4147 66.2618 25.2368 66.2618Z" fill="#F14F33"/>
</svg>
