<svg width="100" height="100" viewBox="0 0 100 100" fill="none" xmlns="http://www.w3.org/2000/svg">
<path d="M14.5535 81.7357C13.7526 81.7357 13.1033 82.3945 13.1033 83.207C13.1033 84.0196 13.7526 84.6783 14.5535 84.6783C19.0532 84.6783 22.7143 80.4898 22.7143 75.3414C22.7143 70.1931 19.0534 66.0046 14.5535 66.0046C10.0537 66.0046 6.39279 70.1931 6.39279 75.3414C6.39279 76.154 7.04209 76.8127 7.84299 76.8127C8.64388 76.8127 9.29318 76.154 9.29318 75.3414C9.29318 71.8156 11.6529 68.9472 14.5535 68.9472C17.4541 68.9472 19.8139 71.8156 19.8139 75.3414C19.8139 78.8673 17.4541 81.7357 14.5535 81.7357Z" fill="#F14F33"/>
<path d="M29.9635 59.3745C30.7644 59.3745 31.4137 58.7157 31.4137 57.9032C31.4137 57.0906 30.7644 56.4319 29.9635 56.4319C27.0405 56.4319 24.6624 53.542 24.6624 49.9897C24.6624 46.4374 27.0403 43.5476 29.9635 43.5476C32.8867 43.5476 35.2646 46.4374 35.2646 49.9897C35.2646 50.8023 35.9139 51.461 36.7148 51.461C37.5157 51.461 38.165 50.8023 38.165 49.9897C38.165 44.8149 34.486 40.605 29.9635 40.605C25.441 40.605 21.762 44.8149 21.762 49.9897C21.762 55.1646 25.4412 59.3745 29.9635 59.3745Z" fill="#F14F33"/>
<path d="M86.4474 59.6833H81.453C83.3208 56.9502 84.3534 53.5611 84.3534 49.9886C84.3534 47.6604 83.922 45.4197 83.071 43.3285C82.7651 42.5773 81.917 42.2201 81.1772 42.5299C80.4369 42.84 80.0846 43.7002 80.3901 44.4512C81.0954 46.1846 81.4532 48.0476 81.4532 49.9886C81.4532 51.3494 81.2751 52.6754 80.9346 53.9285H57.856C57.0551 53.9285 56.4058 54.5873 56.4058 55.3998C56.4058 56.2124 57.0551 56.8711 57.856 56.8711H79.7626C79.1998 57.911 78.5048 58.8591 77.6908 59.6835H45.6099C45.603 59.6835 45.596 59.6837 45.5891 59.6837C43.1721 59.6878 40.9013 60.4266 38.9356 61.7168C41.7437 58.8458 43.517 54.6528 43.517 49.9901C43.517 49.2869 43.4766 48.5942 43.3985 47.915H57.856C58.6569 47.915 59.3062 47.2563 59.3062 46.4437C59.3062 45.6312 58.6569 44.9724 57.856 44.9724H42.8033C41.8864 41.8493 40.1383 39.1657 37.8647 37.2748H70.8008C73.1497 37.2748 75.3782 38.1724 77.2455 39.8705C77.8402 40.4114 78.7573 40.3637 79.2933 39.7571C79.828 39.1521 79.7779 38.2219 79.1816 37.6795C76.7737 35.4896 73.8758 34.3322 70.8008 34.3322H43.3931L41.9009 30.165C45.0175 27.366 47.1143 23.4677 45.6979 19.5128C42.9087 11.7251 35.3756 9.43715 33.8937 9.05755C33.1617 8.86982 32.4025 9.15015 31.9603 9.77025C31.0641 11.0265 26.7346 17.6882 29.5236 25.4761C30.9376 29.4245 35.0038 31.0529 39.1747 31.1696L40.3073 34.3325H30.0153C29.9981 34.3325 29.9807 34.3323 29.9635 34.3323C22.4902 34.3323 16.41 41.3565 16.41 49.9905C16.41 53.6476 17.5009 57.0159 19.3264 59.6838H14.5545C14.5473 59.6838 14.5402 59.684 14.533 59.684C12.442 59.6876 10.4373 60.2257 8.57408 61.2836C7.87528 61.6805 7.62585 62.5772 8.01701 63.2862C8.40837 63.9953 9.29202 64.2484 9.99082 63.8514C11.4219 63.0386 12.957 62.6264 14.5533 62.6264C20.4274 62.6264 25.2065 68.3306 25.2065 75.342C25.2065 82.3535 20.4274 88.0576 14.5533 88.0576C8.67927 88.0576 3.90039 82.3527 3.90039 75.3414C3.90039 72.5473 4.64695 69.8957 6.05944 67.6726C6.49334 66.9897 6.2994 66.0791 5.62632 65.6389C4.95323 65.1989 4.05566 65.3954 3.62176 66.0783C1.90647 68.7775 1 71.9806 1 75.3414C1 83.9597 7.05814 90.9741 14.5133 90.9994C14.527 90.9998 14.5408 91 14.5545 91H75.2247C76.0256 91 76.6749 90.3412 76.6749 89.5287C76.6749 88.7161 76.0256 88.0574 75.2247 88.0574H53.51C56.9313 85.2123 59.1631 80.5724 59.1631 75.3414C59.1631 74.1456 59.0463 72.9807 58.8257 71.8611H85.1336C85.9345 71.8611 86.5838 71.2024 86.5838 70.3898C86.5838 69.5773 85.9345 68.9185 85.1336 68.9185H57.9699C56.9837 66.3957 55.4353 64.2266 53.5104 62.6257H86.4474C92.3209 62.6257 97.0996 68.33 97.0996 75.3416C97.0996 76.9222 96.8568 78.4365 96.4132 79.8338H78.6061C77.8052 79.8338 77.1559 80.4926 77.1559 81.3051C77.1559 82.1177 77.8052 82.7764 78.6061 82.7764H95.0842C93.1477 85.9734 89.9977 88.0574 86.4474 88.0574H81.4481C80.6472 88.0574 79.9979 88.7161 79.9979 89.5287C79.9979 90.3412 80.6472 91 81.4481 91H86.4474C93.9202 91 100 83.9756 100 75.3416C100 66.7074 93.9204 59.6833 86.4474 59.6833ZM32.2496 24.4707C30.2566 18.9061 32.7299 13.9884 33.8958 12.1186C35.9718 12.7927 40.9788 14.9522 42.9717 20.5174C43.9204 23.166 42.1964 25.6697 40.8177 27.14L37.071 16.6763C36.7976 15.9126 35.9654 15.5185 35.2128 15.7959C34.4601 16.0735 34.0716 16.9174 34.345 17.6811L38.0915 28.1443C36.104 27.9147 33.1976 27.1177 32.2496 24.4707ZM29.9519 37.2744C29.9558 37.2744 29.9596 37.2746 29.9633 37.2746H30.0136C35.8648 37.3069 40.6166 42.9985 40.6166 49.9899C40.6166 57.0012 35.8376 62.7055 29.9635 62.7055C24.0894 62.7055 19.3104 57.0014 19.3104 49.9899C19.3104 42.9832 24.083 37.282 29.9519 37.2744ZM28.1071 75.3414C28.1071 70.8671 26.4741 66.8252 23.8607 63.9691C25.6845 65.036 27.7437 65.6403 29.9225 65.6479C29.9362 65.6483 29.95 65.6485 29.9639 65.6485H34.9723C33.1468 68.3165 32.056 71.6846 32.056 75.3416C32.056 80.5726 34.2878 85.2125 37.7091 88.0576H22.4542C25.8753 85.2123 28.1071 80.5724 28.1071 75.3414ZM56.2627 75.3414C56.2627 82.3527 51.4836 88.057 45.6096 88.057C39.7355 88.057 34.9564 82.3529 34.9564 75.3414C34.9564 68.33 39.7355 62.6259 45.6096 62.6259C51.4836 62.6259 56.2627 68.3302 56.2627 75.3414Z" fill="#F14F33"/>
<path d="M45.6096 65.6053C44.8087 65.6053 44.1594 66.2641 44.1594 67.0766C44.1594 67.8892 44.8087 68.5479 45.6096 68.5479C48.6979 68.5479 51.2106 71.5955 51.2106 75.3414C51.2106 79.0874 48.6979 82.1349 45.6096 82.1349C42.5212 82.1349 40.0087 79.0874 40.0087 75.3414C40.0087 74.5289 39.3594 73.8701 38.5585 73.8701C37.7576 73.8701 37.1083 74.5289 37.1083 75.3414C37.1083 80.7099 40.9219 85.0775 45.6096 85.0775C50.2972 85.0775 54.111 80.7099 54.111 75.3414C54.111 69.9729 50.2972 65.6053 45.6096 65.6053Z" fill="#F14F33"/>
<path d="M66.591 44.9722C65.7901 44.9722 65.1408 45.631 65.1408 46.4435C65.1408 47.2561 65.7901 47.9148 66.591 47.9148H72.0799C72.8808 47.9148 73.5301 47.2561 73.5301 46.4435C73.5301 45.631 72.8808 44.9722 72.0799 44.9722H66.591Z" fill="#F14F33"/>
<path d="M64.0149 79.8338C63.214 79.8338 62.5647 80.4926 62.5647 81.3051C62.5647 82.1177 63.214 82.7764 64.0149 82.7764H68.5449C69.3458 82.7764 69.9951 82.1177 69.9951 81.3051C69.9951 80.4926 69.3458 79.8338 68.5449 79.8338H64.0149Z" fill="#F14F33"/>
</svg>
