<svg width="100" height="100" viewBox="0 0 100 100" fill="none" xmlns="http://www.w3.org/2000/svg">
<path d="M18.2519 59.5747C18.2228 59.2118 18.0526 58.8755 17.7788 58.6397C17.505 58.404 17.1501 58.2882 16.7921 58.3177C16.434 58.3472 16.1022 58.5197 15.8697 58.7973C15.6371 59.0748 15.5228 59.4346 15.552 59.7975C15.8545 63.5628 17.1546 67.5885 19.8971 67.5885C20.2583 67.59 20.6054 67.447 20.8632 67.1905C21.1209 66.9341 21.2685 66.5849 21.2738 66.2189C21.2763 66.04 21.2438 65.8624 21.1781 65.6964C21.1124 65.5304 21.0147 65.3793 20.8909 65.2518C20.767 65.1244 20.6195 65.0232 20.4567 64.9541C20.2939 64.885 20.1192 64.8493 19.9428 64.8492C19.6077 64.723 18.5413 63.1784 18.2519 59.5747Z" fill="#F14F33"/>
<path d="M15.7671 54.2681C15.7374 54.4458 15.7426 54.6278 15.7823 54.8035C15.822 54.9792 15.8954 55.1453 15.9984 55.2923C16.1014 55.4392 16.232 55.5642 16.3826 55.66C16.5333 55.7558 16.7011 55.8206 16.8764 55.8507C17.0518 55.8808 17.2312 55.8755 17.4046 55.8353C17.578 55.7951 17.7418 55.7206 17.8868 55.6162C18.0317 55.5118 18.155 55.3794 18.2495 55.2267C18.344 55.074 18.408 54.9039 18.4376 54.7262C18.8416 52.307 19.5752 51.1963 19.8979 50.9994C20.4241 51.3076 21.6073 53.6382 21.6073 57.9133C21.6073 58.2774 21.75 58.6266 22.004 58.884C22.2579 59.1414 22.6024 59.2861 22.9615 59.2861C23.3207 59.2861 23.6652 59.1414 23.9191 58.884C24.1731 58.6266 24.3158 58.2774 24.3158 57.9133C24.3158 53.253 22.9329 48.2382 19.8971 48.2382C17.9122 48.2382 16.4063 50.4361 15.7671 54.2681Z" fill="#F14F33"/>
<path d="M25.2583 50.0784C25.38 50.421 25.631 50.7005 25.956 50.8555C26.281 51.0105 26.6534 51.0282 26.9913 50.9048C27.3293 50.7815 27.605 50.5271 27.7579 50.1976C27.9108 49.8682 27.9283 49.4907 27.8066 49.1481C27.2073 47.3611 26.2939 45.6988 25.1105 44.2415C24.9949 44.1045 24.8538 43.9919 24.6953 43.9102C24.5368 43.8284 24.3639 43.7792 24.1866 43.7651C24.0093 43.7511 23.831 43.7726 23.6619 43.8285C23.4928 43.8843 23.3362 43.9733 23.201 44.0905C23.0659 44.2077 22.9548 44.3507 22.8742 44.5114C22.7936 44.6721 22.7449 44.8473 22.7311 45.027C22.7173 45.2068 22.7385 45.3875 22.7936 45.5589C22.8486 45.7303 22.9365 45.8891 23.0521 46.0261C24.0184 47.2338 24.7654 48.6059 25.2583 50.0784Z" fill="#F14F33"/>
<path d="M13.4587 64.104C12.9305 62.0646 12.6686 59.9638 12.6795 57.8553C12.6795 50.3899 15.846 44.0831 19.5945 44.0831C19.9537 44.0831 20.2982 43.9384 20.5521 43.681C20.8061 43.4235 20.9488 43.0744 20.9488 42.7103C20.9488 42.3462 20.8061 41.9971 20.5521 41.7396C20.2982 41.4822 19.9537 41.3376 19.5945 41.3376C14.1977 41.3376 9.97099 48.5927 9.97099 57.8553C9.95994 60.2043 10.2532 62.5446 10.8431 64.8163C10.8879 64.9919 10.9665 65.1568 11.0745 65.3014C11.1825 65.4461 11.3177 65.5676 11.4723 65.6589C11.6269 65.7502 11.7978 65.8096 11.9752 65.8336C12.1525 65.8576 12.3328 65.8457 12.5056 65.7987C12.6785 65.7516 12.8403 65.6703 12.982 65.5595C13.1236 65.4486 13.2422 65.3104 13.3308 65.1528C13.4194 64.9952 13.4763 64.8214 13.4983 64.6414C13.5203 64.4614 13.5068 64.2788 13.4587 64.104Z" fill="#F14F33"/>
<path d="M29.2189 57.8553C29.2189 57.4912 29.0762 57.142 28.8222 56.8846C28.5682 56.6272 28.2238 56.4825 27.8646 56.4825C27.5055 56.4825 27.161 56.6272 26.907 56.8846C26.6531 57.142 26.5104 57.4912 26.5104 57.8553C26.5104 65.3199 23.343 71.6267 19.5945 71.6267C17.8696 71.6267 16.13 70.192 14.8207 67.6904C14.7373 67.5312 14.6238 67.3901 14.4866 67.2753C14.3495 67.1606 14.1914 67.0743 14.0213 67.0214C13.8513 66.9686 13.6726 66.9502 13.4955 66.9674C13.3185 66.9845 13.1465 67.0368 12.9894 67.1213C12.8323 67.2059 12.6931 67.3209 12.5799 67.46C12.4666 67.599 12.3815 67.7593 12.3294 67.9317C12.2773 68.104 12.2591 68.2851 12.276 68.4646C12.293 68.6441 12.3446 68.8184 12.428 68.9777C14.2488 72.4566 16.794 74.3722 19.5945 74.3722C24.9913 74.3722 29.2189 67.117 29.2189 57.8553Z" fill="#F14F33"/>
<path d="M49.9997 42.1792H38.3796C38.0205 42.1792 37.676 42.3239 37.4221 42.5813C37.1681 42.8388 37.0254 43.1879 37.0254 43.552C37.0254 43.9161 37.1681 44.2652 37.4221 44.5227C37.676 44.7801 38.0205 44.9247 38.3796 44.9247H49.9997C50.3589 44.9247 50.7033 44.7801 50.9573 44.5227C51.2113 44.2652 51.3539 43.9161 51.3539 43.552C51.3539 43.1879 51.2113 42.8388 50.9573 42.5813C50.7033 42.3239 50.3589 42.1792 49.9997 42.1792Z" fill="#F14F33"/>
<path d="M63.655 42.1792H58.9516C58.5924 42.1792 58.2479 42.3239 57.994 42.5813C57.74 42.8388 57.5973 43.1879 57.5973 43.552C57.5973 43.9161 57.74 44.2652 57.994 44.5227C58.2479 44.7801 58.5924 44.9247 58.9516 44.9247H63.655C64.0142 44.9247 64.3586 44.7801 64.6126 44.5227C64.8665 44.2652 65.0092 43.9161 65.0092 43.552C65.0092 43.1879 64.8665 42.8388 64.6126 42.5813C64.3586 42.3239 64.0142 42.1792 63.655 42.1792Z" fill="#F14F33"/>
<path d="M88.4598 62.9509C88.4596 62.5869 88.3169 62.2379 88.063 61.9805C87.809 61.7231 87.4647 61.5784 87.1056 61.5782H55.5428C55.1836 61.5782 54.8391 61.7228 54.5852 61.9802C54.3312 62.2377 54.1885 62.5869 54.1885 62.9509C54.1885 63.315 54.3312 63.6642 54.5852 63.9216C54.8391 64.179 55.1836 64.3237 55.5428 64.3237H87.1072C87.4661 64.3233 87.8101 64.1784 88.0637 63.9211C88.3174 63.6637 88.4598 63.3147 88.4598 62.9509Z" fill="#F14F33"/>
<path d="M92.3291 73.3885C94.8081 68.6015 96.0689 63.2629 95.9971 57.8568C95.9965 56.4094 95.9109 54.9632 95.741 53.526C95.7391 53.4469 95.73 53.3681 95.7139 53.2907C95.307 49.7888 94.3196 46.3817 92.7934 43.2131C92.7436 43.0157 92.6505 42.8323 92.521 42.6766C89.6578 37.2115 85.2925 33.7098 80.4049 33.7098H65.5718L56.3716 20.54C56.3538 20.5141 56.3305 20.4945 56.3112 20.4702C55.073 18.8448 52.0419 18 49.0301 18C45.1214 18 41.1639 19.4175 41.1639 22.1269C41.1638 22.462 41.2279 22.794 41.3528 23.1043L44.8467 33.7098H19.5945C10.9979 33.7098 4 44.5419 4 57.8553C4 71.1686 10.9956 82 19.5945 82H80.4049C85.0178 82 89.1679 78.8803 92.0257 73.9345C92.1672 73.7788 92.2711 73.5919 92.3291 73.3885ZM47.9877 34.5883L45.0734 25.7313C46.3632 26.0846 47.694 26.2603 49.0301 26.2538C49.0873 26.2538 49.1446 26.2538 49.2019 26.2498L54.4106 37.1118C51.0103 36.9189 48.6555 36.0081 47.9916 34.5883H47.9877ZM57.4124 37.093L52.0682 25.9541C53.3967 25.7372 54.654 25.199 55.7339 24.3853L63.3733 35.3218C62.8169 35.9171 60.7291 36.8538 57.4162 37.093H57.4124ZM49.0301 20.7455C52.0937 20.7455 53.8403 21.6664 54.1522 22.1096C54.1522 22.1151 54.1576 22.1214 54.1614 22.1269V22.1308C53.9076 22.5183 52.5108 23.291 50.0663 23.469C50.003 23.4671 49.9396 23.4694 49.8767 23.4761C49.602 23.4926 49.3265 23.5083 49.0254 23.5083C45.9262 23.5083 44.1688 22.5669 43.8879 22.1269C44.1734 21.69 45.9308 20.7455 49.0301 20.7455ZM6.70846 57.8553C6.70846 46.0551 12.4891 36.4553 19.5945 36.4553C26.7 36.4553 32.4814 46.0551 32.4814 57.8553C32.56 62.8217 31.4248 67.7307 29.1771 72.1444C29.0856 72.2598 29.013 72.3893 28.9619 72.528C26.611 76.6651 23.2827 79.2545 19.5984 79.2545C12.4891 79.2545 6.70846 69.6547 6.70846 57.8553ZM80.4049 79.2545H26.8045C28.4535 77.8802 29.857 76.2287 30.9538 74.3722H49.9997C50.3589 74.3722 50.7033 74.2276 50.9573 73.9701C51.2113 73.7127 51.3539 73.3635 51.3539 72.9995C51.3539 72.6354 51.2113 72.2862 50.9573 72.0288C50.7033 71.7713 50.3589 71.6267 49.9997 71.6267H32.3932C33.4287 69.2947 34.1755 66.8417 34.6164 64.3237H42.6087C42.9679 64.3237 43.3123 64.179 43.5663 63.9216C43.8203 63.6642 43.9629 63.315 43.9629 62.9509C43.9629 62.5869 43.8203 62.2377 43.5663 61.9802C43.3123 61.7228 42.9679 61.5782 42.6087 61.5782H35.0041C35.1279 60.3412 35.1899 59.0986 35.1899 57.8553C35.1899 56.874 35.1473 55.9083 35.0738 54.9576H72.4714C72.8306 54.9576 73.175 54.813 73.429 54.5555C73.683 54.2981 73.8256 53.9489 73.8256 53.5848C73.8256 53.2208 73.683 52.8716 73.429 52.6142C73.175 52.3567 72.8306 52.2121 72.4714 52.2121H34.7549C33.6917 45.3656 30.741 39.6455 26.8045 36.4553H45.9471C47.47 38.6807 50.9136 39.8966 55.8036 39.8966C56.0628 39.8966 56.3228 39.8903 56.5828 39.8824H56.6053C60.6254 39.7546 64.6811 38.6603 65.8721 36.4561H80.4049C83.785 36.4561 86.8634 38.6321 89.1648 42.1824H71.8547C71.4955 42.1824 71.151 42.327 70.8971 42.5845C70.6431 42.8419 70.5004 43.1911 70.5004 43.5551C70.5004 43.9192 70.6431 44.2684 70.8971 44.5258C71.151 44.7833 71.4955 44.9279 71.8547 44.9279H90.6637C91.7035 47.2481 92.4323 49.699 92.8305 52.2152H85.2097C84.8505 52.2152 84.5061 52.3599 84.2521 52.6173C83.9981 52.8747 83.8555 53.2239 83.8555 53.588C83.8555 53.9521 83.9981 54.3012 84.2521 54.5587C84.5061 54.8161 84.8505 54.9607 85.2097 54.9607H93.1702C93.2476 55.9091 93.291 56.8747 93.291 57.8584C93.357 62.6263 92.3179 67.3433 90.2575 71.6298H80.1069C79.7478 71.6298 79.4033 71.7745 79.1494 72.0319C78.8954 72.2894 78.7527 72.6385 78.7527 73.0026C78.7527 73.3667 78.8954 73.7158 79.1494 73.9733C79.4033 74.2307 79.7478 74.3753 80.1069 74.3753H88.5891C86.3619 77.4213 83.5072 79.2545 80.4049 79.2545Z" fill="#F14F33"/>
<path d="M72.4714 71.6267H67.4337C67.0745 71.6267 66.7301 71.7713 66.4761 72.0288C66.2221 72.2862 66.0794 72.6354 66.0794 72.9995C66.0794 73.3635 66.2221 73.7127 66.4761 73.9701C66.7301 74.2276 67.0745 74.3722 67.4337 74.3722H72.4714C72.8306 74.3722 73.175 74.2276 73.429 73.9701C73.683 73.7127 73.8256 73.3635 73.8256 72.9995C73.8256 72.6354 73.683 72.2862 73.429 72.0288C73.175 71.7713 72.8306 71.6267 72.4714 71.6267Z" fill="#F14F33"/>
</svg>
