<svg width="100" height="100" viewBox="0 0 100 100" fill="none" xmlns="http://www.w3.org/2000/svg">
<path d="M84.6349 68.867C84.1413 68.664 83.5732 68.7761 83.1952 69.1509L68.759 83.4726C68.3813 83.8476 68.2682 84.4112 68.4729 84.9009C68.6771 85.3907 69.1591 85.7099 69.6933 85.7099H84.1295C84.8592 85.7099 85.4505 85.1232 85.4505 84.3993V70.0776C85.4503 69.5476 85.1285 69.0698 84.6349 68.867ZM72.882 83.089L82.8082 73.2415V83.089H72.882Z" fill="#F14F33"/>
<path d="M94.1845 47.8612C93.691 47.6582 93.1228 47.7703 92.7449 48.1451L88.7886 52.07V25.3833C88.7886 24.6595 88.1971 24.0728 87.4676 24.0728H77.3178L81.0022 20.4177C81.0027 20.4171 81.0032 20.4164 81.0038 20.4159L84.5538 16.894C85.3145 16.1394 85.7333 15.1356 85.7333 14.0684C85.7333 13.0011 85.3145 11.9977 84.5538 11.2428L80.4487 7.17014C79.688 6.41557 78.6762 6 77.6005 6C76.5247 6 75.5131 6.41557 74.7523 7.17014L57.7147 24.0726H16.7105V11.1078C16.7105 10.3839 16.119 9.79729 15.3896 9.79729C9.66084 9.79763 5 14.4212 5 20.1048V75.7668C5 75.8636 5.01125 75.9578 5.03129 76.0484C5.21375 78.4601 6.26545 80.7008 8.02309 82.4017C9.90184 84.2195 12.3819 85.2207 15.0067 85.2207H55.3728L47.7704 92.7628C47.3926 93.1377 47.2796 93.7012 47.484 94.191C47.6885 94.6807 48.1703 95 48.7045 95H93.679C94.4085 95 95 94.4134 95 93.6895V49.0719C95 48.542 94.678 48.064 94.1845 47.8612ZM76.6208 9.0237C77.1608 8.48764 78.0406 8.48764 78.5806 9.0237L82.686 13.0965C83.2263 13.6324 83.2263 14.5049 82.686 15.0409L80.0684 17.6379L74.0029 11.6207L76.6208 9.0237ZM72.1347 13.4741L78.2001 19.4911L75.7762 21.8958L69.7112 15.8787L72.1347 13.4741ZM92.3584 63.7976H89.9212C89.1915 63.7976 88.6002 64.3842 88.6002 65.1081C88.6002 65.832 89.1915 66.4186 89.9212 66.4186H92.3584V70.3678H89.9212C89.1915 70.3678 88.6002 70.9544 88.6002 71.6783C88.6002 72.4022 89.1915 72.9888 89.9212 72.9888H92.3584V76.9378H89.9212C89.1915 76.9378 88.6002 77.5245 88.6002 78.2483C88.6002 78.9722 89.1915 79.5589 89.9212 79.5589H92.3584V83.508H89.9212C89.1915 83.508 88.6002 84.0949 88.6002 84.8186C88.6002 85.5425 89.1915 86.1291 89.9212 86.1291H92.3584V92.3795H51.8935L65.2367 79.1423C65.7526 78.6303 65.7526 77.8007 65.2367 77.2889C65.1775 77.2301 65.1138 77.1792 65.0472 77.1338C64.5329 76.7844 63.8252 76.8358 63.3683 77.2889L58.0147 82.6H15.0069C11.0005 82.6 7.77523 79.497 7.64832 75.5295C7.65588 75.2805 7.67539 75.0335 7.70668 74.7894C7.70686 74.788 7.70703 74.7866 7.70721 74.7852C7.72197 74.6692 7.73973 74.5538 7.75994 74.439C7.76223 74.4259 7.76469 74.4129 7.76697 74.3998C7.78543 74.2974 7.80617 74.1956 7.82885 74.0941C7.83518 74.0658 7.84186 74.0376 7.84854 74.0095C7.86857 73.9237 7.8902 73.8384 7.9134 73.7535C7.92605 73.7075 7.93924 73.662 7.95277 73.6161C7.97211 73.5495 7.99215 73.483 8.01342 73.4173C8.03469 73.3516 8.05736 73.2865 8.08039 73.2215C8.09639 73.1759 8.11221 73.1304 8.12943 73.0853C8.1616 72.9995 8.1957 72.9145 8.23086 72.8303C8.24088 72.8061 8.25072 72.7815 8.26109 72.7572C8.30627 72.6526 8.3532 72.5492 8.40277 72.447C8.40488 72.4426 8.40682 72.4383 8.40893 72.4339C9.44217 70.3127 11.4294 68.7312 13.8142 68.2404C13.8209 68.239 13.8276 68.2375 13.8342 68.2361C13.9436 68.2139 14.054 68.1949 14.1651 68.1773C14.1835 68.1743 14.202 68.1707 14.2208 68.1679C14.3212 68.1527 14.4226 68.1409 14.524 68.1295C14.5525 68.1264 14.5808 68.122 14.6094 68.1192C14.7073 68.1095 14.8061 68.103 14.9049 68.0969C14.9362 68.095 14.9675 68.0917 14.9988 68.0901C15.1282 68.0837 15.2586 68.0803 15.3896 68.0803C16.119 68.0803 16.7105 67.4937 16.7105 66.7698V57.2676C16.7105 56.5437 16.119 55.9571 15.3896 55.9571C14.6601 55.9571 14.0686 56.5437 14.0686 57.2676V65.5418C11.8379 65.8217 9.76736 66.8087 8.13471 68.3904C7.96297 68.5568 7.8002 68.7298 7.64164 68.9055V20.1048C7.64164 16.3134 10.4236 13.1541 14.0684 12.5301V52.0259C14.0684 52.7496 14.6599 53.3364 15.3894 53.3364C16.1189 53.3364 16.7104 52.7496 16.7104 52.0259V26.6939H55.0729L47.7702 33.9386C47.2543 34.4506 47.2543 35.2802 47.7702 35.792C48.2861 36.3036 49.1225 36.3036 49.6382 35.792L59.196 26.31C59.1963 26.3097 59.1965 26.3093 59.1969 26.3092L67.8427 17.7319L73.9077 23.7491L73.1961 24.4551C73.1956 24.4556 73.1949 24.4561 73.1943 24.4566L46.5586 50.8816L40.4934 44.8645L45.7436 39.6559C46.2595 39.1439 46.2595 38.3143 45.7436 37.8025C45.2277 37.2909 44.3913 37.2909 43.8756 37.8025L37.6911 43.9378C37.658 43.9706 37.6271 44.0053 37.5981 44.0409C37.5884 44.0527 37.5798 44.0655 37.5707 44.0778C37.5521 44.1024 37.5338 44.1272 37.5167 44.153C37.507 44.168 37.4983 44.1833 37.4891 44.1989C37.4745 44.2233 37.4605 44.248 37.4476 44.2733C37.4392 44.2897 37.4316 44.3063 37.4239 44.3234C37.4121 44.349 37.4012 44.3752 37.3912 44.4013C37.3877 44.4106 37.3831 44.4193 37.3798 44.4285L33.0515 56.5927C33.0283 56.6583 33.0116 56.7249 32.9991 56.7921H28.606C27.8765 56.7921 27.285 57.3787 27.285 58.1026C27.285 58.8265 27.8765 59.4131 28.606 59.4131H65.1886C65.9182 59.4131 66.5095 58.8265 66.5095 58.1026C66.5095 57.3787 65.9182 56.7921 65.1886 56.7921H38.9421L46.9982 53.9708C47.0049 53.9684 47.0112 53.9651 47.0179 53.9626C47.0492 53.9511 47.0799 53.9382 47.1103 53.9244C47.1225 53.9189 47.1346 53.9136 47.1464 53.9079C47.178 53.8922 47.2091 53.8749 47.2397 53.8564C47.2496 53.8505 47.2597 53.8451 47.2694 53.839C47.3012 53.8188 47.3322 53.7966 47.3626 53.7733C47.3701 53.7675 47.378 53.7624 47.3854 53.7565C47.4222 53.7272 47.4582 53.6956 47.4923 53.6618L74.6758 26.694H86.1464V54.6912L67.2506 73.4373C66.7347 73.9493 66.7347 74.7789 67.2506 75.2907C67.2828 75.3226 67.3164 75.3526 67.351 75.3807C67.5932 75.5766 67.8891 75.6746 68.1847 75.6746C68.4804 75.6746 68.7764 75.5766 69.0185 75.3807C69.0531 75.3528 69.0867 75.3226 69.1189 75.2907C69.1194 75.2902 69.1188 75.2907 69.1194 75.2902L92.3584 52.2353V63.7976ZM44.1424 52.191L40.3586 53.5162L37.8375 51.0151L39.1733 47.2613L44.1424 52.191Z" fill="#F14F33"/>
</svg>
