<svg width="100" height="100" viewBox="0 0 100 100" fill="none" xmlns="http://www.w3.org/2000/svg">
<path d="M45.9181 90.9896C45.9128 90.9902 45.9076 90.9909 45.9023 90.9917C45.9104 90.9907 45.9186 90.9896 45.9181 90.9896Z" fill="#F14F33"/>
<path d="M45.9023 90.9917C45.8941 90.9928 45.8859 90.9938 45.8864 90.9938C45.8918 90.9933 45.8971 90.9925 45.9023 90.9917Z" fill="#F14F33"/>
<path d="M46.9729 82.2401V29.6922C46.9729 29.0287 46.4344 28.4909 45.7696 28.4909C45.105 28.4909 44.5663 29.0285 44.5663 29.6922V43.6323C41.844 29.3695 40.842 15.5523 40.5868 11.4027H44.5663V24.8871C44.5663 25.5506 45.1048 26.0884 45.7696 26.0884C46.4342 26.0884 46.9729 25.5507 46.9729 24.8871V10.2013C46.9729 9.53781 46.4344 9 45.7696 9H21.2033C20.5387 9 20 9.53765 20 10.2013V66.2952C20 66.9587 20.5385 67.4965 21.2033 67.4965C21.8681 67.4965 22.4066 66.9589 22.4066 66.2952V27.858C24.814 36.4422 27.8448 54.9516 24.2851 88.5972H22.4066V71.1004C22.4066 70.437 21.8681 69.8991 21.2033 69.8991C20.5385 69.8991 20 70.4369 20 71.1004V89.7983C20 90.4619 20.5385 90.9997 21.2033 90.9997H25.365C25.366 90.9997 25.367 90.9998 25.3679 90.9998C25.369 90.9998 25.3702 90.9997 25.3713 90.9997H30.095C30.0956 90.9997 45.9175 90.9896 45.9181 90.9896C45.944 90.9864 45.9699 90.9827 45.9958 90.9777C46.0134 90.9744 46.0306 90.9702 46.0479 90.966C46.0659 90.9617 46.0838 90.9574 46.1017 90.9523C46.1223 90.9463 46.1427 90.9396 46.1631 90.9327C46.171 90.93 46.179 90.9281 46.1868 90.925C46.1929 90.9228 46.1984 90.9199 46.2045 90.9175C46.229 90.9081 46.2531 90.8977 46.2768 90.8866C46.2905 90.8802 46.3041 90.8738 46.3176 90.8671C46.3378 90.8567 46.3577 90.8456 46.3773 90.8341C46.3931 90.8248 46.4089 90.8155 46.4243 90.8056C46.4401 90.7953 46.4554 90.7844 46.4706 90.7735C46.4879 90.7612 46.5051 90.7487 46.5216 90.7354C46.5345 90.7252 46.5467 90.7144 46.559 90.7037C46.5762 90.6888 46.5932 90.6739 46.6094 90.6581C46.6209 90.6469 46.6318 90.6352 46.6427 90.6235C46.658 90.6073 46.6732 90.5913 46.6875 90.5745C46.6991 90.5609 46.7098 90.5468 46.7209 90.5325C46.7331 90.5168 46.7453 90.5011 46.7565 90.4849C46.7684 90.468 46.7793 90.4503 46.7903 90.4329C46.7993 90.4185 46.8085 90.4042 46.8168 90.3895C46.8282 90.3695 46.8385 90.349 46.8487 90.3281C46.8553 90.3145 46.8622 90.3012 46.8683 90.2875C46.8779 90.2658 46.8864 90.2439 46.8949 90.2216C46.9002 90.2074 46.9058 90.1931 46.9106 90.1787C46.9177 90.1576 46.9238 90.1361 46.9296 90.1147C46.9342 90.0977 46.9389 90.0807 46.9427 90.0636C46.9471 90.0445 46.9506 90.0251 46.954 90.0057C46.9576 89.9849 46.961 89.9641 46.9636 89.9431C46.9655 89.9266 46.967 89.91 46.9684 89.8933C46.9703 89.869 46.9716 89.8446 46.9721 89.8201C46.9722 89.8129 46.9732 89.8059 46.9732 89.7985C46.9729 89.7948 46.9729 82.2438 46.9729 82.2401ZM29.0543 88.597H26.7045C28.2582 73.7808 29.4202 53.045 26.5942 35.8062C25.0687 26.5008 23.0048 22.0204 22.4063 20.8631V11.4027H23.5908C24.9924 13.2603 27.6491 18.3512 29.5155 27.0303C31.0023 33.9436 31.8015 42.0606 31.8908 51.1559C31.9996 62.2546 31.0451 74.8468 29.0543 88.597ZM37.8623 88.597C36.9092 84.0261 36.0997 77.1195 37.2936 74.3118C37.8996 75.0567 39.1801 77.0486 41.4635 82.3198C42.507 84.7287 43.4435 87.093 44.0252 88.597H37.8623ZM44.5663 83.4768C44.2222 82.6475 43.856 81.7831 43.4774 80.9185C39.8208 72.5649 38.3972 71.6997 37.3502 71.5445C36.7222 71.4511 36.1329 71.7 35.7332 72.2263C33.166 75.6064 34.6654 84.8594 35.4087 88.597H31.4867C33.4795 74.7329 34.4238 62.0326 34.2944 50.8281C34.1871 41.5374 33.3449 33.2411 31.7915 26.1697C30.0768 18.3647 27.8695 13.7583 26.4564 11.4025H32.8999C33.3357 14.9743 34.8397 27.1003 36.7696 40.4692C39.8237 61.626 42.4464 75.7433 44.5663 82.4404V83.4768ZM44.5663 72.4347C40.5157 53.0133 36.2079 18.6094 35.3244 11.4027H38.1759C38.4805 16.4196 39.9591 36.9826 44.5661 54.6789V72.4347H44.5663Z" fill="#F14F33"/>
<path d="M45.7699 91C45.8087 91 45.8474 90.9976 45.8864 90.9938L45.7657 90.9997C45.7672 90.9997 45.7685 91 45.7699 91Z" fill="#F14F33"/>
<path d="M79.7965 9H76.079C76.0761 9 76.0731 9 76.07 9H62.8448C62.8432 9 62.8416 9 62.8399 9H55.2303C54.5656 9 54.027 9.53765 54.027 10.2013V24.4889C54.027 24.4929 54.027 24.4969 54.027 24.5011V40.7312C54.027 40.7336 54.027 40.7358 54.027 40.7382V89.7985C54.027 90.462 54.5655 90.9998 55.2303 90.9998H79.7965C80.4612 90.9998 80.9998 90.4622 80.9998 89.7985V72.7269C80.9998 72.0634 80.4613 71.5256 79.7965 71.5256C79.1319 71.5256 78.5932 72.0632 78.5932 72.7269V88.597H75.0504C74.8914 74.7763 75.2501 55.3733 77.7337 39.111C78.0204 37.2338 78.3108 35.5644 78.5934 34.0898V67.9219C78.5934 68.5854 79.1319 69.1233 79.7967 69.1233C80.4613 69.1233 81 68.5856 81 67.9219V24.4823C81 24.4803 81 24.478 81 24.4759V10.2013C80.9998 9.53765 80.4613 9 79.7965 9ZM63.2557 32.9513C63.7435 32.9513 64.2008 32.7197 64.5116 32.305C64.9245 31.7542 65.784 30.6078 65.0063 20.0029C64.7533 16.5531 64.4047 13.1972 64.2076 11.4027H66.4695C67.0505 15.7141 68.9914 32.7086 64.8695 41.5055C64.2057 42.9223 63.7039 43.1918 63.5624 43.1752C63.4873 43.1664 61.6937 42.8569 58.9106 33.9063C57.5481 29.5244 56.5956 25.1323 56.4336 24.3696V21.088C56.7199 21.8313 57.0207 22.5978 57.3292 23.3643C60.7708 31.9186 61.9821 32.7716 63.0139 32.9324C63.0949 32.945 63.1756 32.9513 63.2557 32.9513ZM56.4334 11.4027H61.7865C61.9707 13.0614 62.328 16.4474 62.5902 19.9626C62.9995 25.4519 62.9546 28.2082 62.8265 29.5825C61.3802 27.1291 58.8052 20.9531 56.4336 14.1245V11.4027H56.4334ZM60.6208 88.5972H56.4336V49.6258C58.5777 58.5321 61.317 73.3075 60.6208 88.5972ZM63.0296 88.597C63.5935 75.9003 61.8271 63.6872 60.2138 55.5679C58.5617 47.2529 56.7873 41.6114 56.4334 40.5207V34.036H56.4336C56.4908 34.2248 56.5486 34.4138 56.6073 34.6029C58.1349 39.5194 60.2741 45.2084 63.2813 45.5613C63.3883 45.574 63.4939 45.5802 63.5986 45.5802C64.9383 45.5801 66.0979 44.5536 67.0491 42.5235C69.1759 37.9848 70.0975 31.1199 69.7884 22.1195C69.627 17.4201 69.1669 13.4178 68.8995 11.4027H74.6129C73.8843 15.1364 71.8807 25.7394 70.0216 38.6024C67.9405 53.0009 65.6321 73.1824 66.2545 88.5972H63.0296V88.597ZM78.5931 24.2727C78.2222 25.2735 76.7709 29.5486 75.3839 38.5567C72.8522 55 72.4836 74.6177 72.6437 88.5972H68.6626C67.5361 61.3601 75.7006 18.36 77.0656 11.4027H78.5932V24.2727H78.5931Z" fill="#F14F33"/>
</svg>
