<svg width="100" height="100" viewBox="0 0 100 100" fill="none" xmlns="http://www.w3.org/2000/svg">
<path d="M43.6527 21.8778C41.3187 19.3931 39.6479 20.7805 38.0801 17.5723C36.5299 14.2732 33.0253 11.1699 29.361 8.62916C27.1937 7.12641 23.0257 8.36006 23.0825 11.8548C23.1428 15.5348 26.8709 18.4145 21.0712 20.2388C14.0017 22.3601 12.4622 24.8764 9.32644 28.3117C8.38643 29.4056 7.28325 29.0841 5.84664 29.0841C4.59447 29.0841 3.21106 29.3706 1.76735 31.3697C0.706741 32.8375 0.458437 35.9897 2.9131 37.6498C6.20845 39.8759 7.23714 42.8605 9.32999 45.5864C11.9443 49.0043 15.534 52.4047 19.851 52.1461L21.4614 58.3493L28.7403 56.4726L29.9392 61.2325L37.2181 59.3558L39.1229 66.5271L46.4018 64.6504L48.3066 71.8217L55.5855 69.945L57.4903 77.1162L64.7692 75.2396L66.674 82.4108L73.9529 80.5341L75.8578 87.7054L83.1366 85.8287L85.0415 93L100 78.1192L43.6527 21.8778ZM19.4005 48.7142C17.3112 48.7142 14.7395 46.8585 12.1571 43.4825C11.6108 42.7696 11.1249 41.9973 10.6105 41.1795C9.29806 39.0896 7.80824 36.7236 4.91727 34.7701C4.27168 34.3332 4.65832 33.3966 4.65832 33.3966C5.24361 32.5823 5.45644 32.5823 5.84309 32.5823C8.44673 32.5823 10.1636 32.7466 11.962 30.6532C15.1545 27.1585 17.3041 24.4919 22.5894 23.468C23.5897 23.2758 24.4269 22.9647 25.4662 22.0456C28.9744 19.0226 27.74 15.5418 27.144 13.8713C26.8744 13.113 26.6403 12.4559 26.612 11.7046C26.7787 10.9846 27.364 11.5228 27.364 11.5228C37.5551 18.6067 33.4155 20.9937 39.6266 23.3876C40.2793 23.6392 40.5773 23.7545 41.0526 24.2578L51.3856 35.3991C49.385 37.5205 46.7175 41.0117 43.9826 41.7981C42.9007 42.1091 20.5214 48.7142 19.4005 48.7142ZM85.6835 81.5581C81.4801 82.6415 83.2324 82.1907 78.4046 83.4348C77.3263 79.3739 77.5817 80.3349 76.4998 76.2635C72.3567 77.3329 73.3499 77.0743 69.2209 78.1402C67.9581 73.3943 68.4122 75.0998 67.3161 70.9689C63.1127 72.0523 64.865 71.6015 60.0372 72.8456C58.9589 68.7847 59.2143 69.7458 58.1324 65.6744C53.9289 66.7577 55.6813 66.3069 50.8535 67.551C49.7752 63.4901 50.0306 64.4512 48.9487 60.3798C44.8055 61.4492 45.7988 61.1906 41.6698 62.2565C40.4106 57.5176 40.8611 59.2125 39.765 55.0852C35.6218 56.1546 36.6186 55.896 32.4861 56.9619C31.4078 52.901 32.3691 56.2734 31.2872 52.202C26.7964 53.3588 28.1869 53.0023 24.026 54.0752L23.3308 51.3912C29.7973 49.5809 39.9317 46.5999 44.9865 45.1461C48.7607 44.0592 51.1621 40.7776 53.9963 37.7686C54.007 37.7581 54.0105 37.7406 54.0212 37.7266L95.0197 78.1192L86.9215 86.1747C86.6519 85.2101 86.7583 85.6016 85.6835 81.5581Z" fill="#F14F33"/>
<path d="M39.1229 27.6163C36.8279 24.5863 32.6883 24.1285 29.8364 26.2184C26.6368 28.5354 23.1109 30.2688 19.5282 31.3207C15.1793 32.3796 13.3312 37.6742 16.091 41.2808C17.2686 42.822 19.0493 43.7062 20.979 43.7062C24.6184 43.7062 34.923 40.0647 38.1297 37.1605C40.9391 34.7526 41.3719 30.5554 39.1229 27.6163ZM35.7992 34.5219C34.1178 36.0422 27.6548 39.149 21.3408 40.1835C21.2202 40.2009 21.0996 40.2114 20.979 40.2114C20.2128 40.2114 19.4431 39.862 18.9252 39.1805C17.7014 37.5834 18.4853 35.1755 20.376 34.7142C24.4127 33.5329 28.3182 31.6527 31.9363 29.0317C33.2984 28.0356 35.2033 28.2838 36.2816 29.7026C37.4025 31.1739 37.1933 33.3302 35.7992 34.5219Z" fill="#F14F33"/>
</svg>
