<svg width="100" height="100" viewBox="0 0 100 100" fill="none" xmlns="http://www.w3.org/2000/svg">
<path d="M92.741 5.28079C91.9243 4.45624 90.9346 3.82739 89.8449 3.44068C88.7553 3.05397 87.5936 2.91926 86.4455 3.0465C85.2974 3.17374 84.1922 3.55968 83.2116 4.17583C82.231 4.79197 81.4 5.6226 80.7799 6.6064L74.3475 16.812C74.2048 17.0383 74.038 17.2481 73.8502 17.4379L71.1195 20.1949C70.782 20.5374 70.3807 20.809 69.9386 20.9939C69.4965 21.1788 69.0225 21.2733 68.5439 21.272C67.0391 21.2702 65.577 21.7773 64.3908 22.7124C63.2047 23.6474 62.3628 24.9565 61.9995 26.4309L61.5355 28.3045L57.1843 32.6976L57.1857 32.6989C57.1333 32.7509 57.0847 32.8065 57.0401 32.8654L52.8504 38.5054H45.8677C45.6639 38.5054 45.4621 38.5459 45.2738 38.6246C45.0856 38.7034 44.9145 38.8188 44.7704 38.9643L34.4829 49.3508L32.0612 46.9058C31.558 46.395 30.9595 45.99 30.3004 45.7144C29.6412 45.4387 28.9344 45.2977 28.2209 45.2997H22.0691C21.7622 45.2997 21.4621 45.3916 21.207 45.5637C20.9518 45.7359 20.7529 45.9805 20.6354 46.2668C20.518 46.5531 20.4873 46.8681 20.5471 47.172C20.607 47.4759 20.7548 47.7551 20.9718 47.9742L26.0754 53.1268C26.0331 53.1291 25.9911 53.1331 25.9484 53.1331H5V56.2664H25.9484C26.8508 56.2683 27.7393 56.0419 28.5328 55.6079L36.4892 63.6409C36.6332 63.7864 36.8043 63.9018 36.9926 63.9805C37.1808 64.0593 37.3826 64.0998 37.5864 64.0998H41.4657C42.083 64.0998 42.6751 64.3474 43.1116 64.7881C43.5481 65.2288 43.7933 65.8265 43.7933 66.4498C43.7933 67.073 43.5481 67.6708 43.1116 68.1115C42.6751 68.5522 42.083 68.7998 41.4657 68.7998H5V71.9331H39.1381V75.0665C39.1381 75.2722 39.1782 75.476 39.2562 75.666C39.3342 75.8561 39.4485 76.0288 39.5926 76.1743C39.7367 76.3198 39.9077 76.4352 40.096 76.5139C40.2843 76.5926 40.4861 76.6332 40.6898 76.6332H73.2762V82.8999H71.9128C70.6649 82.8964 69.4287 83.1429 68.2758 83.625C67.1229 84.1072 66.0762 84.8154 65.1962 85.7088C64.6037 86.3102 63.899 86.787 63.1228 87.1116C62.3465 87.4362 61.5142 87.6022 60.6741 87.5999H50.0002V90.7332H60.6741C61.922 90.7367 63.1581 90.4902 64.311 90.008C65.4639 89.5259 66.5107 88.8176 67.3906 87.9243C67.9831 87.3229 68.6879 86.8461 69.4641 86.5215C70.2403 86.1969 71.0726 86.0309 71.9128 86.0332H73.2762V93.8666H5V96.9999H74.8255L74.8277 97C75.0552 97 75.28 96.9495 75.486 96.8521C75.6921 96.7547 75.8744 96.6127 76.0201 96.4362L91.5374 77.6361C91.7697 77.3546 91.897 76.9997 91.897 76.6332V57.8331H91.8953C91.8959 57.6273 91.8563 57.4234 91.7786 57.2332C91.701 57.0429 91.5869 56.87 91.4428 56.7245C91.2988 56.5789 91.1277 56.4635 90.9393 56.3849C90.751 56.3062 90.5491 56.266 90.3453 56.2664H56.8499L59.3787 53.7132C59.5228 53.5677 59.6371 53.395 59.7151 53.205C59.7931 53.0149 59.8332 52.8112 59.8332 52.6054V45.5554L65.4194 41.3254C65.4778 41.2804 65.5329 41.2313 65.5843 41.1784L65.5857 41.1798L69.9369 36.7867L71.7925 36.3183C73.2529 35.9515 74.5495 35.1015 75.4756 33.9039C76.4017 32.7064 76.904 31.2302 76.9023 29.7108C76.901 29.2277 76.9946 28.7491 77.1777 28.3027C77.3608 27.8564 77.6298 27.4511 77.9691 27.1105L80.6998 24.3535C80.8878 24.1638 81.0957 23.9954 81.3199 23.8514L91.428 17.3569C92.4024 16.7309 93.2251 15.8918 93.8354 14.9018C94.4457 13.9118 94.8279 12.796 94.9539 11.6369C95.08 10.4777 94.9465 9.30482 94.5635 8.20471C94.1805 7.10459 93.5577 6.10536 92.741 5.28079ZM64.4884 37.8565L60.4759 33.8054L62.9367 31.3209L66.9492 35.372L64.4884 37.8565ZM41.4657 60.9664H38.2291L25.8152 48.433H28.2209C28.5267 48.4322 28.8296 48.4926 29.1121 48.6107C29.3946 48.7289 29.6511 48.9024 29.8667 49.1213L41.6005 60.9681C41.5558 60.967 41.5107 60.9664 41.4657 60.9664ZM82.4926 83.6999C81.5495 82.6112 81.0313 81.2129 81.0349 79.7665H77.9314C77.9256 82.1431 78.8441 84.4271 80.4894 86.1268L76.3797 91.106V75.6722L78.5761 73.2329L79.295 73.9587C80.1328 74.8093 81.1295 75.4836 82.2272 75.9427C83.3249 76.4017 84.5019 76.6364 85.6901 76.6332V73.4998C84.9096 73.502 84.1365 73.3478 83.4155 73.0463C82.6944 72.7448 82.0398 72.3018 81.4894 71.7431L80.666 70.9118L88.7935 61.8854V76.0659L82.4926 83.6999ZM86.8375 59.3998L74.1415 73.4998H42.2416V71.8763C43.1274 71.7458 43.9678 71.3968 44.6882 70.8602C45.4086 70.3235 45.9868 69.6159 46.3717 68.7998H52.461C53.3609 68.8023 54.2523 68.6245 55.0836 68.2768C55.915 67.9291 56.6698 67.4184 57.3044 66.7742C57.6514 66.4219 58.0643 66.1426 58.519 65.9525C58.9736 65.7623 59.4612 65.6651 59.9533 65.6665H71.7245V62.5331H59.9533C59.0535 62.5306 58.1621 62.7084 57.3307 63.0561C56.4993 63.4038 55.7445 63.9145 55.1099 64.5587C54.7629 64.911 54.3501 65.1903 53.8954 65.3805C53.4407 65.5706 52.9532 65.6678 52.461 65.6665H47.5395L53.7464 59.3998H86.8375ZM57.3505 43.5187C57.1578 43.6647 57.0013 43.8539 56.8936 44.0714C56.7859 44.289 56.7298 44.5288 56.7298 44.7721V51.9565L46.553 62.2313C46.2808 61.4975 45.8555 60.8314 45.306 60.2781L36.6773 51.5664L46.5104 41.6387H53.6263C53.8672 41.6387 54.1048 41.5821 54.3203 41.4733C54.5357 41.3645 54.7232 41.2066 54.8677 41.012L58.4494 36.1905L62.1261 39.9025L57.3505 43.5187ZM91.8691 11.2949C91.7953 11.9881 91.5675 12.6556 91.2027 13.2475C90.8378 13.8394 90.3453 14.3405 89.7619 14.7134L79.6538 21.2078C79.2386 21.4746 78.8534 21.7865 78.5054 22.1379L75.7747 24.8949C75.1463 25.5258 74.6481 26.2764 74.309 27.103C73.9698 27.9297 73.7964 28.816 73.7988 29.7108C73.7998 30.5312 73.5286 31.3282 73.0285 31.9749C72.5285 32.6215 71.8283 33.0804 71.0398 33.2785L69.6196 33.637L64.6552 28.6247L65.0103 27.1908C65.2065 26.3947 65.661 25.6879 66.3015 25.183C66.9419 24.6782 67.7314 24.4044 68.5439 24.4053C69.4302 24.4077 70.3081 24.2327 71.1268 23.8903C71.9456 23.5479 72.689 23.0449 73.3139 22.4104L76.0446 19.6535C76.3926 19.302 76.7015 18.9133 76.9658 18.494L83.3982 8.28858C83.957 7.40199 84.7965 6.73244 85.7802 6.3889C86.7639 6.04536 87.8338 6.04807 88.8157 6.39657C89.7977 6.74507 90.6339 7.41886 91.1883 8.30826C91.7427 9.19767 91.9827 10.2503 91.8691 11.2949Z" fill="#F14F33"/>
<path d="M27.9546 80.0909C28.8346 80.9843 29.8813 81.6925 31.0342 82.1747C32.1871 82.6568 33.4233 82.9033 34.6712 82.8998H39.1381V79.7665H34.6712C33.831 79.7688 32.9987 79.6028 32.2225 79.2782C31.4463 78.9536 30.7415 78.4768 30.1491 77.8754C29.2691 76.9821 28.2224 76.2738 27.0695 75.7917C25.9166 75.3095 24.6804 75.063 23.4325 75.0665H5V78.1998H23.4325C24.2727 78.1975 25.105 78.3635 25.8812 78.6881C26.6574 79.0127 27.3621 79.4895 27.9546 80.0909Z" fill="#F14F33"/>
<path d="M20.5173 81.3332H5V84.4665H20.5173V81.3332Z" fill="#F14F33"/>
<path d="M44.8905 87.141C45.7284 86.2904 46.7251 85.6161 47.8228 85.157C48.9205 84.6979 50.0976 84.4632 51.2857 84.4665H60.8624V81.3332H51.2857C49.6898 81.3288 48.1089 81.644 46.6345 82.2606C45.1601 82.8772 43.8215 83.7829 42.6961 84.9254C41.8582 85.776 40.8616 86.4503 39.7638 86.9094C38.6661 87.3685 37.4891 87.6031 36.3009 87.5999H5V90.7332H36.3009C37.8968 90.7376 39.4777 90.4224 40.9521 89.8058C42.4265 89.1892 43.7652 88.2834 44.8905 87.141Z" fill="#F14F33"/>
<path d="M12.7587 59.3998H5V62.5331H12.7587V59.3998Z" fill="#F14F33"/>
</svg>
