<svg width="100" height="100" viewBox="0 0 100 100" fill="none" xmlns="http://www.w3.org/2000/svg">
<path d="M16.2974 69.8067C16.0656 69.421 15.6683 69.1633 15.2209 69.1083C14.7733 69.0536 14.3258 69.2071 14.0068 69.5254L9.59341 73.93C8.1023 75.4181 7.81868 77.7178 8.90358 79.5224L15.5288 90.5422C16.5305 92.2087 18.072 92.6285 18.9018 92.7304C19.0669 92.7507 19.2623 92.7657 19.4803 92.7657C20.3583 92.7657 21.6027 92.5245 22.7056 91.4238L26.0149 88.1211C26.49 87.647 26.5806 86.9112 26.2351 86.3363L16.2974 69.8067ZM20.6353 89.3577C20.1621 89.83 19.6261 89.8753 19.2596 89.8303C18.893 89.7853 18.3837 89.6114 18.0396 89.0388L11.4144 78.0189C11.0221 77.3661 11.1245 76.5345 11.6639 75.9961L14.7515 72.9146L23.1366 86.8617L20.6353 89.3577Z" fill="#F14F33"/>
<path d="M97.1537 16.4635L93.5657 14.7965C93.4026 14.245 93.2005 13.7033 92.9677 13.1717H94.8632C95.6717 13.1717 96.3272 12.5175 96.3272 11.7106C96.3272 10.9037 95.6717 10.2496 94.8632 10.2496H91.23C90.8714 9.78712 90.4838 9.34043 90.0588 8.91634C89.8793 8.73712 89.6956 8.56472 89.5088 8.39718L91.5072 7.10543C92.1859 6.66693 92.3797 5.76206 91.9401 5.08491C91.5008 4.40758 90.5943 4.21433 89.9156 4.65284L86.9394 6.57654C86.1412 6.13686 85.3093 5.78095 84.4555 5.509L85.1247 4.84121C85.6964 4.27063 85.6964 3.3455 85.1247 2.77511C84.5529 2.20453 83.6259 2.20453 83.0544 2.77511L80.959 4.86615C80.3072 4.8305 79.6537 4.84121 79.0029 4.89615L79.7751 3.0155C80.0817 2.26881 79.7237 1.41557 78.9756 1.10953C78.2274 0.80349 77.3724 1.16076 77.0658 1.90745L75.5344 5.63641C74.9865 5.82887 74.4495 6.05952 73.9245 6.32232V4.43953C73.9245 3.63264 73.269 2.97849 72.4605 2.97849C71.652 2.97849 70.9965 3.63264 70.9965 4.43953V8.29004C70.7668 8.49108 70.5403 8.69777 70.3211 8.91634L69.5077 9.72809V8.84738C69.5077 8.0403 68.8523 7.38634 68.0438 7.38634C67.2352 7.38634 66.5798 8.0403 66.5798 8.84738V12.6502L65.091 14.1361V13.2552C65.091 12.4483 64.4355 11.7942 63.627 11.7942C62.8185 11.7942 62.1631 12.4483 62.1631 13.2552V17.058L60.6743 18.5438V17.6631C60.6743 16.8562 60.0188 16.202 59.2103 16.202C58.4018 16.202 57.7463 16.8562 57.7463 17.6631V21.4659L56.2576 22.9518V22.0711C56.2576 21.2642 55.6021 20.6101 54.7936 20.6101C53.9851 20.6101 53.3296 21.2642 53.3296 22.0711V25.8739L51.8408 27.3597V26.479C51.8408 25.6721 51.1854 25.0179 50.3769 25.0179C49.5684 25.0179 48.9129 25.6721 48.9129 26.479V30.2818L47.4241 31.7677V30.887C47.4241 30.0801 46.7687 29.426 45.9602 29.426C45.1516 29.426 44.4962 30.0801 44.4962 30.887V34.6898L43.0074 36.1756V35.2949C43.0074 34.488 42.3519 33.8338 41.5434 33.8338C40.7349 33.8338 40.0795 34.488 40.0795 35.2949V39.0977L38.5907 40.5836V39.7029C38.5907 38.896 37.9352 38.2419 37.1267 38.2419C36.3182 38.2419 35.6627 38.896 35.6627 39.7029V43.5057L34.4904 44.6757L34.0787 43.5926C34.0773 43.5887 34.0754 43.5852 34.0738 43.5815C34.0619 43.5507 34.0481 43.5205 34.034 43.4907C34.0272 43.4759 34.0207 43.4609 34.0135 43.4465C34.0008 43.4218 33.9866 43.3978 33.9723 43.3736C33.9612 43.3547 33.9507 43.3353 33.9388 43.317C33.9278 43.3002 33.9157 43.2842 33.904 43.2679C33.8868 43.2435 33.8697 43.219 33.8509 43.1958C33.8419 43.1847 33.832 43.1742 33.8226 43.1632C33.7998 43.1366 33.7767 43.1103 33.7521 43.0855C33.7496 43.083 33.7475 43.0801 33.7449 43.0775C33.7369 43.0695 33.7283 43.0629 33.7201 43.0551C33.6959 43.0321 33.6715 43.0095 33.6462 42.9883C33.6309 42.9758 33.6153 42.9642 33.5997 42.9521C33.5782 42.9357 33.5568 42.9194 33.5345 42.9042C33.5142 42.8903 33.4937 42.8777 33.4728 42.865C33.4541 42.8535 33.4351 42.842 33.4158 42.8315C33.3922 42.8184 33.3682 42.8068 33.344 42.7951C33.3258 42.7863 33.3079 42.7777 33.2895 42.7697C33.2647 42.759 33.2398 42.7495 33.2146 42.7403C33.1951 42.7331 33.1755 42.7261 33.1556 42.7197C33.132 42.7121 33.108 42.7055 33.0842 42.6992C33.0615 42.6932 33.0391 42.6875 33.0163 42.6827C32.9948 42.6782 32.9731 42.6743 32.9515 42.6706C32.9257 42.6663 32.8999 42.6624 32.8738 42.6595C32.8542 42.6573 32.8349 42.6558 32.8152 42.6544C32.7873 42.6523 32.7594 42.6507 32.7313 42.6503C32.7123 42.6501 32.6934 42.6505 32.6745 42.6509C32.6467 42.6517 32.6188 42.6527 32.5909 42.655C32.57 42.6568 32.5491 42.6593 32.5283 42.662C32.5031 42.6651 32.4781 42.6682 32.4529 42.6729C32.4275 42.6774 32.4024 42.6832 32.3772 42.6891C32.3569 42.6938 32.3368 42.6982 32.3165 42.7039C32.2858 42.7125 32.2554 42.7228 32.2251 42.7333C32.2136 42.7374 32.2019 42.7401 32.1906 42.7446C32.1869 42.746 32.1835 42.7479 32.1798 42.7491C32.1486 42.7614 32.118 42.7752 32.0873 42.7896C32.0731 42.7962 32.0584 42.8023 32.0446 42.8095C32.0192 42.8223 31.9948 42.837 31.9702 42.8514C31.9516 42.8623 31.9329 42.8724 31.915 42.8839C31.8976 42.8952 31.881 42.9079 31.864 42.9197C31.8402 42.9365 31.8164 42.9531 31.7939 42.9712C31.782 42.9807 31.7707 42.9914 31.759 43.0014C31.733 43.0236 31.7075 43.046 31.6833 43.0697C31.6805 43.0725 31.6776 43.0746 31.6749 43.0773L30.0374 44.7118L29.0717 41.821C28.5654 40.3049 27.3325 39.1805 25.7739 38.8133C24.2156 38.4462 22.6087 38.9015 21.4764 40.0316L9.66934 51.8149C7.91803 53.5627 6.95356 55.8863 6.95356 58.358V67.749L5.17727 69.5219C1.65572 73.0364 0.985614 78.4674 3.54796 82.7295L10.1731 93.7492C11.9014 96.624 14.805 98.5077 18.1391 98.9172C18.59 98.9727 19.0394 99 19.486 99C22.3419 99 25.069 97.8816 27.1231 95.8315L43.6828 79.305C44.5202 78.4693 45.0872 77.4137 45.3543 76.2949C45.5391 76.3791 45.7439 76.4272 45.9602 76.4272C46.7687 76.4272 47.4241 75.773 47.4241 74.9661V71.1633L48.9129 69.6776V70.5583C48.9129 71.3654 49.5684 72.0193 50.3769 72.0193C51.1854 72.0193 51.8408 71.3654 51.8408 70.5583V66.7555L53.3296 65.2697V66.1504C53.3296 66.9573 53.9851 67.6115 54.7936 67.6115C55.6021 67.6115 56.2576 66.9573 56.2576 66.1504V62.3476L57.7463 60.8619V61.7426C57.7463 62.5497 58.4018 63.2036 59.2103 63.2036C60.0188 63.2036 60.6743 62.5497 60.6743 61.7426V57.9398L62.1631 56.454V57.3347C62.1631 58.1416 62.8185 58.7958 63.627 58.7958C64.4355 58.7958 65.091 58.1416 65.091 57.3347V53.5319L66.5798 52.0462V52.9269C66.5798 53.7338 67.2352 54.3879 68.0438 54.3879C68.8523 54.3879 69.5077 53.7338 69.5077 52.9269V49.1241L70.9965 47.6383V48.519C70.9965 49.3259 71.652 49.9801 72.4605 49.9801C73.269 49.9801 73.9245 49.3259 73.9245 48.519V44.7162L75.4132 43.2305V44.1112C75.4132 44.9181 76.0687 45.5722 76.8772 45.5722C77.6857 45.5722 78.3412 44.9181 78.3412 44.1112V40.3084L79.8299 38.8226V39.7033C79.8299 40.5102 80.4854 41.1644 81.2939 41.1644C82.1024 41.1644 82.7579 40.5102 82.7579 39.7033V35.9005L84.2467 34.4148V35.2955C84.2467 36.1023 84.9021 36.7565 85.7106 36.7565C86.5191 36.7565 87.1746 36.1023 87.1746 35.2955V31.4927L88.6634 30.0067V30.8874C88.6634 31.6943 89.3188 32.3485 90.1274 32.3485C90.9359 32.3485 91.5913 31.6943 91.5913 30.8874V26.7936C92.1512 26.0025 92.6183 25.1664 92.9932 24.2991L93.9454 25.7064C94.2282 26.1244 94.6899 26.3498 95.1599 26.3498C95.4418 26.3498 95.7268 26.2688 95.9778 26.0995C96.6479 25.6479 96.8242 24.74 96.3717 24.071L94.0168 20.5908C94.1176 19.8248 94.1545 19.0524 94.1277 18.2814L95.9175 19.1128C96.1174 19.2057 96.3276 19.2496 96.5343 19.2496C97.0859 19.2496 97.6143 18.9369 97.8624 18.4049C98.2044 17.673 97.8868 16.804 97.1537 16.4635ZM9.88093 58.3584C9.88093 56.6673 10.5409 55.0773 11.739 53.8816L23.5461 42.0984C23.9619 41.6835 24.5287 41.523 25.1004 41.6576C25.6726 41.7924 26.1075 42.189 26.2933 42.7456L27.7217 47.0223L9.88093 64.8273V58.3584ZM25.0522 93.7656C23.3189 95.4955 20.9297 96.316 18.4963 96.0173C16.0634 95.7183 13.9445 94.3438 12.6834 92.2459L6.0582 81.2262C4.1884 78.1161 4.67737 74.1528 7.24714 71.5882L32.1435 46.7416L42.4124 73.7597C42.8542 74.9221 42.5325 76.3204 41.6119 77.2389L25.0522 93.7656ZM58.175 56.3015C58.175 56.3015 58.175 56.3015 58.1748 56.3017L53.7587 60.7089C53.7583 60.7093 53.7579 60.7097 53.7573 60.7101L49.3417 65.1168C49.3414 65.1172 49.341 65.1176 49.3404 65.1182L44.925 69.5246C44.9246 69.525 44.924 69.5256 44.9235 69.526L44.2065 70.2415L35.6032 47.6058C35.7289 47.5393 35.8468 47.4534 35.9526 47.3479L69.0787 14.2887C69.0789 14.2885 69.0791 14.2883 69.0791 14.2883L72.3914 10.9826C76.6916 6.69108 83.6884 6.69128 87.9882 10.9826C88.3954 11.3888 88.7635 11.8195 89.0936 12.2695C89.1723 12.4589 89.29 12.6274 89.4362 12.7667C92.2152 17.0313 91.7334 22.8102 87.9882 26.5481L58.175 56.3015Z" fill="#F14F33"/>
<path d="M80.1899 11.0703C78.1304 11.0703 76.1942 11.8708 74.738 13.324C73.2817 14.7774 72.4796 16.7097 72.4796 18.7651C72.4796 20.8205 73.2817 22.7529 74.738 24.2062C76.1942 25.6596 78.1304 26.4599 80.1899 26.4599C82.2494 26.4599 84.1856 25.6596 85.6419 24.2062C87.0983 22.7529 87.9002 20.8205 87.9002 18.7651C87.9002 16.7097 87.0983 14.7774 85.6419 13.324C84.1856 11.8708 82.2494 11.0703 80.1899 11.0703ZM83.5715 22.1401C82.6683 23.0416 81.4672 23.538 80.1899 23.538C78.9125 23.538 77.7117 23.0416 76.8083 22.1401C75.9051 21.2387 75.4076 20.0401 75.4076 18.7653C75.4076 17.4905 75.9051 16.292 76.8083 15.3905C77.7115 14.4891 78.9125 13.9926 80.1899 13.9926C81.4672 13.9926 82.6683 14.4891 83.5715 15.3905C84.4746 16.2919 84.9722 17.4905 84.9722 18.7653C84.9722 20.0401 84.4748 21.2385 83.5715 22.1401Z" fill="#F14F33"/>
<path d="M21.6673 65.4076C22.0419 65.4076 22.4167 65.265 22.7024 64.9796L29.3276 58.3678C29.8994 57.7972 29.8994 56.8723 29.3276 56.3017C28.7559 55.7311 27.8289 55.7311 27.2574 56.3017L20.6322 62.9136C20.0605 63.4841 20.0605 64.4093 20.6322 64.9796C20.918 65.265 21.2927 65.4076 21.6673 65.4076Z" fill="#F14F33"/>
<path d="M22.8404 67.3214C22.2687 67.892 22.2687 68.8169 22.8404 69.3875C23.1262 69.6727 23.501 69.8155 23.8756 69.8155C24.2502 69.8155 24.6249 69.6729 24.9107 69.3875L31.5359 62.7756C32.1076 62.205 32.1076 61.2799 31.5359 60.7095C30.9643 60.1389 30.0374 60.1387 29.4656 60.7095L22.8404 67.3214Z" fill="#F14F33"/>
<path d="M31.6741 65.1174L25.0489 71.7293C24.4772 72.2998 24.4772 73.225 25.0489 73.7954C25.3347 74.0807 25.7094 74.2233 26.084 74.2233C26.4586 74.2233 26.8334 74.0807 27.1192 73.7954L33.7443 67.1835C34.3161 66.6129 34.3161 65.6878 33.7443 65.1174C33.1728 64.5468 32.2458 64.5468 31.6741 65.1174Z" fill="#F14F33"/>
</svg>
