<svg width="100" height="100" viewBox="0 0 100 100" fill="none" xmlns="http://www.w3.org/2000/svg">
<path d="M86.7149 84.4297H70.5664V70.5664H86.7149C87.5732 70.5664 88.3589 70.0855 88.7496 69.3213C89.1402 68.557 89.0696 67.6385 88.567 66.9428L77.9752 52.2852H81.9922C82.835 52.2852 83.6093 51.8213 84.0071 51.0783C84.4046 50.3353 84.3611 49.4337 83.8936 48.7325L74.0745 34.0039H77.4219C78.2858 34.0039 79.0757 33.5167 79.4638 32.7448C79.8516 31.9729 79.771 31.0481 79.2555 30.355L65.5446 11.9214C65.1133 11.3417 64.4334 11 63.711 11C62.9886 11 62.3086 11.3417 61.8774 11.9214L50.0001 27.8899L38.1227 11.9214C37.6916 11.3417 37.0115 11 36.2891 11C35.5667 11 34.8866 11.3417 34.4555 11.9214L20.7446 30.355C20.2289 31.0481 20.1483 31.9729 20.5363 32.7448C20.9242 33.5167 21.7143 34.0039 22.5782 34.0039H25.9256L16.1065 48.7325C15.6391 49.4337 15.5955 50.3353 15.9932 51.0783C16.3908 51.8213 17.1651 52.2852 18.0079 52.2852H22.0249L11.4331 66.9428C10.9303 67.6384 10.8598 68.557 11.2504 69.3213C11.6412 70.0855 12.4269 70.5664 13.2852 70.5664H29.4337V84.4297H13.2852C12.0232 84.4297 11.0001 85.4528 11.0001 86.7148C11.0001 87.9769 12.0232 89 13.2852 89C15.5576 89 85.5543 89 86.7149 89C87.9769 89 89 87.9769 89 86.7148C89 85.4528 87.9769 84.4297 86.7149 84.4297ZM53.3475 34.0039L50.0001 39.025L46.6526 34.0039C48.7816 34.0039 51.2185 34.0039 53.3475 34.0039ZM17.7559 65.9961L28.3476 51.3385C28.8503 50.6429 28.9209 49.7243 28.5303 48.9599C28.1397 48.1958 27.3537 47.7148 26.4956 47.7148H22.2778L32.0969 32.9863C32.5643 32.285 32.6079 31.3834 32.2103 30.6405C31.8127 29.8975 31.0383 29.4336 30.1955 29.4336H27.126L36.2891 17.1142L45.4524 29.4336H42.3829C41.5401 29.4336 40.7657 29.8975 40.3681 30.6405C39.9705 31.3834 40.0141 32.285 40.4815 32.9863L48.0866 44.3939C48.0909 44.4005 48.0954 44.407 48.0999 44.4137L50.3005 47.7148H46.0827C45.2267 47.7148 44.4424 48.1932 44.0509 48.9543C43.6592 49.7154 43.7258 50.6316 44.2232 51.3281L54.7003 65.9961C43.0698 65.9961 29.4082 65.9961 17.7559 65.9961ZM38.5743 84.4297H34.004V70.5664H38.5743V84.4297ZM56.8555 84.4297H43.1446V70.5664H56.8555V84.4297ZM50.5232 52.2852H54.5704C55.4131 52.2852 56.1875 51.8213 56.5853 51.0783C56.9827 50.3353 56.9393 49.4337 56.4718 48.7325L52.7465 43.1447L59.5188 32.9864C59.9862 32.2852 60.0297 31.3836 59.6323 30.6406C59.2347 29.8976 58.4603 29.4337 57.6174 29.4337H54.5478L63.711 17.1142L72.8741 29.4336H69.8046C68.9618 29.4336 68.1874 29.8975 67.7897 30.6405C67.3922 31.3834 67.4358 32.285 67.9032 32.9863L77.7223 47.7148H73.5045C72.6462 47.7148 71.8604 48.1958 71.4698 48.9599C71.0794 49.7243 71.1496 50.6427 71.6523 51.3385L82.2442 65.9961C80.7099 65.9961 63.7839 65.9961 60.3166 65.9961L50.5232 52.2852ZM65.9961 84.4297H61.4258V70.5664H65.9961V84.4297Z" fill="#F14F33"/>
</svg>
