<svg width="320" height="79" viewBox="0 0 320 79" fill="none" xmlns="http://www.w3.org/2000/svg">
<path d="M95.2314 19.7305H105.013C109.198 19.7305 112.365 20.3069 114.515 21.4596C116.664 22.6124 117.739 24.6368 117.739 27.5328C117.739 28.6996 117.546 29.754 117.159 30.6959C116.786 31.6378 116.242 32.411 115.525 33.0155C114.808 33.62 113.934 34.0136 112.902 34.1963V34.4072C113.949 34.6181 114.894 34.9836 115.74 35.5037C116.586 36.0098 117.259 36.7549 117.761 37.739C118.277 38.709 118.535 40.0024 118.535 41.619C118.535 43.4888 118.069 45.0914 117.137 46.4269C116.206 47.7625 114.873 48.7887 113.139 49.5057C111.419 50.2086 109.37 50.56 106.991 50.56H95.2314V19.7305ZM101.896 31.94H105.765C107.7 31.94 109.04 31.6448 109.785 31.0543C110.53 30.4498 110.903 29.5642 110.903 28.3973C110.903 27.2165 110.459 26.373 109.57 25.8669C108.696 25.3467 107.306 25.0867 105.4 25.0867H101.896V31.94ZM101.896 37.1275V45.1617H106.238C108.245 45.1617 109.642 44.7821 110.43 44.023C111.218 43.2639 111.613 42.2446 111.613 40.9653C111.613 40.2062 111.441 39.5384 111.097 38.9621C110.753 38.3857 110.172 37.9358 109.355 37.6125C108.553 37.2891 107.442 37.1275 106.023 37.1275H101.896Z" fill="white"/>
<path d="M134.142 26.4995C137.367 26.4995 139.839 27.1883 141.559 28.566C143.278 29.9437 144.138 32.0384 144.138 34.85V50.56H139.559L138.291 47.3548H138.119C137.431 48.1983 136.729 48.8871 136.012 49.4213C135.296 49.9555 134.472 50.3492 133.54 50.6022C132.608 50.8553 131.476 50.9818 130.143 50.9818C128.725 50.9818 127.449 50.7147 126.317 50.1805C125.199 49.6463 124.318 48.8309 123.673 47.7343C123.028 46.6238 122.705 45.2179 122.705 43.5169C122.705 41.0145 123.601 39.1729 125.392 37.992C127.184 36.7971 129.871 36.1364 133.454 36.0098L137.624 35.8833V34.85C137.624 33.6129 137.295 32.7062 136.636 32.1298C135.976 31.5534 135.059 31.2652 133.884 31.2652C132.723 31.2652 131.584 31.4269 130.466 31.7502C129.348 32.0736 128.23 32.4812 127.112 32.9733L124.941 28.6293C126.216 27.9686 127.642 27.4484 129.219 27.0689C130.81 26.6893 132.451 26.4995 134.142 26.4995ZM137.624 39.6368L135.088 39.7212C132.967 39.7774 131.491 40.15 130.659 40.8388C129.842 41.5277 129.434 42.4344 129.434 43.5591C129.434 44.5431 129.728 45.2461 130.315 45.6678C130.903 46.0755 131.67 46.2793 132.616 46.2793C134.02 46.2793 135.202 45.8716 136.163 45.0563C137.137 44.2409 137.624 43.0811 137.624 41.5769V39.6368Z" fill="white"/>
<path d="M164.561 26.5417C167.126 26.5417 169.19 27.2305 170.752 28.6082C172.314 29.9719 173.095 32.1649 173.095 35.1874V50.56H166.539V36.7901C166.539 35.1031 166.223 33.8308 165.593 32.9733C164.976 32.1157 164.002 31.687 162.669 31.687C160.663 31.687 159.294 32.3547 158.563 33.6902C157.832 35.0258 157.467 36.9517 157.467 39.4681V50.56H150.91V26.9845H155.919L156.8 30H157.166C157.682 29.1846 158.319 28.5239 159.079 28.0178C159.853 27.5117 160.706 27.1391 161.637 26.9002C162.583 26.6612 163.558 26.5417 164.561 26.5417Z" fill="white"/>
<path d="M186.402 26.9845V50.56H179.846V26.9845H186.402ZM183.135 17.7483C184.109 17.7483 184.948 17.9732 185.65 18.4231C186.352 18.8589 186.703 19.6813 186.703 20.8903C186.703 22.0852 186.352 22.9147 185.65 23.3786C184.948 23.8284 184.109 24.0534 183.135 24.0534C182.146 24.0534 181.3 23.8284 180.598 23.3786C179.91 22.9147 179.566 22.0852 179.566 20.8903C179.566 19.6813 179.91 18.8589 180.598 18.4231C181.3 17.9732 182.146 17.7483 183.135 17.7483Z" fill="white"/>
<path d="M219.895 34.85C219.895 38.3224 219.215 41.2254 217.853 43.5591C216.506 45.8787 214.55 47.6289 211.984 48.8098C209.419 49.9766 206.33 50.56 202.719 50.56H193.819V19.7305H203.686C206.983 19.7305 209.842 20.3069 212.264 21.4596C214.686 22.5984 216.563 24.2924 217.896 26.5417C219.229 28.7769 219.895 31.5464 219.895 34.85ZM212.973 35.0187C212.973 32.7413 212.629 30.8716 211.941 29.4095C211.268 27.9334 210.264 26.8439 208.932 26.141C207.613 25.4381 205.979 25.0867 204.03 25.0867H200.483V45.1617H203.342C206.596 45.1617 209.01 44.3112 210.587 42.6101C212.178 40.9091 212.973 38.3786 212.973 35.0187Z" fill="white"/>
<path d="M247.735 38.7301C247.735 40.6982 247.462 42.4415 246.918 43.9597C246.387 45.478 245.606 46.7643 244.574 47.8187C243.557 48.859 242.324 49.6463 240.877 50.1805C239.444 50.7147 237.824 50.9818 236.018 50.9818C234.327 50.9818 232.772 50.7147 231.354 50.1805C229.949 49.6463 228.724 48.859 227.677 47.8187C226.646 46.7643 225.843 45.478 225.27 43.9597C224.711 42.4415 224.431 40.6982 224.431 38.7301C224.431 36.1153 224.904 33.9011 225.85 32.0876C226.796 30.2741 228.143 28.8964 229.892 27.9545C231.64 27.0126 233.725 26.5417 236.147 26.5417C238.398 26.5417 240.39 27.0126 242.124 27.9545C243.872 28.8964 245.241 30.2741 246.23 32.0876C247.233 33.9011 247.735 36.1153 247.735 38.7301ZM231.117 38.7301C231.117 40.2765 231.289 41.5769 231.633 42.6312C231.977 43.6856 232.514 44.4799 233.245 45.0141C233.976 45.5483 234.929 45.8154 236.104 45.8154C237.265 45.8154 238.204 45.5483 238.921 45.0141C239.652 44.4799 240.182 43.6856 240.511 42.6312C240.855 41.5769 241.027 40.2765 241.027 38.7301C241.027 37.1696 240.855 35.8763 240.511 34.85C240.182 33.8097 239.652 33.0295 238.921 32.5094C238.19 31.9892 237.237 31.7291 236.061 31.7291C234.327 31.7291 233.066 32.3125 232.278 33.4794C231.504 34.6462 231.117 36.3964 231.117 38.7301Z" fill="white"/>
<path d="M281.378 26.5417C284.101 26.5417 286.158 27.2305 287.548 28.6082C288.952 29.9719 289.655 32.1649 289.655 35.1874V50.56H283.076V36.7901C283.076 35.1031 282.783 33.8308 282.195 32.9733C281.607 32.1157 280.697 31.687 279.465 31.687C277.731 31.687 276.498 32.2985 275.767 33.5215C275.036 34.7305 274.671 36.4667 274.671 38.7301V50.56H268.114V36.7901C268.114 35.6654 267.985 34.7235 267.727 33.9644C267.469 33.2052 267.075 32.6359 266.545 32.2563C266.015 31.8767 265.334 31.687 264.503 31.687C263.284 31.687 262.324 31.9892 261.622 32.5937C260.934 33.1842 260.44 34.0628 260.139 35.2296C259.852 36.3824 259.709 37.7952 259.709 39.4681V50.56H253.152V26.9845H258.161L259.042 30H259.408C259.895 29.1846 260.504 28.5239 261.235 28.0178C261.98 27.5117 262.797 27.1391 263.686 26.9002C264.574 26.6612 265.477 26.5417 266.394 26.5417C268.157 26.5417 269.648 26.8228 270.866 27.3852C272.098 27.9475 273.044 28.8191 273.704 30H274.284C275.001 28.791 276.011 27.9123 277.315 27.3641C278.634 26.8158 279.988 26.5417 281.378 26.5417Z" fill="white"/>
<path d="M306.251 26.4995C309.475 26.4995 311.948 27.1883 313.667 28.566C315.387 29.9437 316.247 32.0384 316.247 34.85V50.56H311.668L310.4 47.3548H310.228C309.54 48.1983 308.838 48.8871 308.121 49.4213C307.404 49.9555 306.58 50.3492 305.649 50.6022C304.717 50.8553 303.585 50.9818 302.252 50.9818C300.833 50.9818 299.558 50.7147 298.426 50.1805C297.308 49.6463 296.426 48.8309 295.781 47.7343C295.137 46.6238 294.814 45.2179 294.814 43.5169C294.814 41.0145 295.71 39.1729 297.501 37.992C299.293 36.7971 301.98 36.1364 305.563 36.0098L309.733 35.8833V34.85C309.733 33.6129 309.404 32.7062 308.744 32.1298C308.085 31.5534 307.168 31.2652 305.993 31.2652C304.832 31.2652 303.693 31.4269 302.575 31.7502C301.457 32.0736 300.339 32.4812 299.221 32.9733L297.05 28.6293C298.325 27.9686 299.751 27.4484 301.328 27.0689C302.919 26.6893 304.56 26.4995 306.251 26.4995ZM309.733 39.6368L307.197 39.7212C305.076 39.7774 303.599 40.15 302.768 40.8388C301.951 41.5277 301.543 42.4344 301.543 43.5591C301.543 44.5431 301.837 45.2461 302.424 45.6678C303.012 46.0755 303.779 46.2793 304.724 46.2793C306.129 46.2793 307.311 45.8716 308.271 45.0563C309.246 44.2409 309.733 43.0811 309.733 41.5769V39.6368Z" fill="white"/>
<path d="M104.969 63.865C104.969 64.7342 104.856 65.5263 104.631 66.2412C104.405 66.951 104.07 67.563 103.624 68.0773C103.184 68.5865 102.636 68.98 101.98 69.2577C101.325 69.5354 100.564 69.6743 99.6993 69.6743C98.808 69.6743 98.0294 69.5354 97.3635 69.2577C96.7028 68.98 96.1523 68.584 95.7118 68.0696C95.2766 67.5553 94.9489 66.9407 94.7287 66.2258C94.5137 65.5109 94.4062 64.7188 94.4062 63.8496C94.4062 62.6975 94.6003 61.6869 94.9883 60.8177C95.3763 59.9485 95.9635 59.2721 96.75 58.7887C97.5417 58.3052 98.5327 58.0635 99.7229 58.0635C100.861 58.0635 101.818 58.3026 102.594 58.781C103.375 59.2593 103.965 59.933 104.363 60.8022C104.767 61.6663 104.969 62.6872 104.969 63.865ZM95.8141 63.865C95.8141 64.8217 95.953 65.6497 96.2309 66.3492C96.5088 67.0487 96.9335 67.5887 97.505 67.9693C98.0818 68.3499 98.8132 68.5402 99.6993 68.5402C100.591 68.5402 101.32 68.3499 101.886 67.9693C102.457 67.5887 102.879 67.0487 103.152 66.3492C103.425 65.6497 103.561 64.8217 103.561 63.865C103.561 62.4095 103.249 61.2729 102.625 60.4551C102.006 59.6322 101.039 59.2207 99.7229 59.2207C98.8316 59.2207 98.0975 59.4084 97.5208 59.7839C96.944 60.1593 96.5141 60.6942 96.2309 61.3886C95.953 62.0778 95.8141 62.9033 95.8141 63.865Z" fill="white"/>
<path d="M111.225 69.52H109.88V59.3981H106.262V58.2409H114.827V59.3981H111.225V69.52Z" fill="white"/>
<path d="M128.732 58.2409V68.3474H130.148V72.4671H128.866V69.52H120.875V72.4671H119.593V68.3474H120.474C120.867 67.689 121.234 66.951 121.575 66.1332C121.921 65.3103 122.228 64.4514 122.495 63.5564C122.768 62.6564 122.988 61.7537 123.156 60.8485C123.329 59.9433 123.439 59.0741 123.486 58.2409H128.732ZM127.403 59.4213H124.666C124.619 60.059 124.514 60.7714 124.352 61.5583C124.189 62.3401 123.979 63.1424 123.722 63.9653C123.471 64.7882 123.188 65.5777 122.873 66.3338C122.564 67.0898 122.236 67.761 121.89 68.3474H127.403V59.4213Z" fill="white"/>
<path d="M137.317 69.52L133.455 59.537H133.392C133.413 59.7479 133.431 60.005 133.447 60.3085C133.463 60.6119 133.476 60.9437 133.486 61.3037C133.497 61.6586 133.502 62.0212 133.502 62.3915V69.52H132.26V58.2409H134.242L137.883 67.6222H137.938L141.635 58.2409H143.601V69.52H142.279V62.2989C142.279 61.9646 142.285 61.6303 142.295 61.296C142.306 60.9565 142.319 60.6377 142.335 60.3394C142.35 60.0359 142.366 59.7736 142.382 59.5524H142.319L138.41 69.52H137.317Z" fill="white"/>
<path d="M146.924 58.2409H148.174V64.76C148.174 65.0068 148.171 65.2769 148.166 65.57C148.161 65.858 148.153 66.1409 148.143 66.4187C148.132 66.6964 148.119 66.9484 148.103 67.1747C148.093 67.401 148.082 67.5759 148.072 67.6993H148.135L154.537 58.2409H156.008V69.52H154.757V63.0781C154.757 62.8055 154.762 62.5175 154.773 62.2141C154.783 61.9055 154.794 61.6072 154.804 61.3191C154.82 61.0311 154.836 60.774 154.851 60.5477C154.867 60.3162 154.878 60.1388 154.883 60.0153H154.812L148.402 69.52H146.924V58.2409Z" fill="white"/>
<path d="M162.838 69.52H161.493V59.3981H157.875V58.2409H166.44V59.3981H162.838V69.52Z" fill="white"/>
<path d="M171.344 58.2409C172.828 58.2409 173.91 58.5264 174.592 59.0973C175.279 59.663 175.622 60.4757 175.622 61.5352C175.622 62.0135 175.541 62.4687 175.379 62.9007C175.221 63.3276 174.964 63.7056 174.608 64.0348C174.251 64.3588 173.782 64.616 173.2 64.8063C172.623 64.9914 171.915 65.084 171.076 65.084H169.676V69.52H168.339V58.2409H171.344ZM171.218 59.3596H169.676V63.9576H170.927C171.661 63.9576 172.272 63.8805 172.76 63.7262C173.252 63.5719 173.622 63.3224 173.868 62.9778C174.115 62.6281 174.238 62.1652 174.238 61.5892C174.238 60.8382 173.994 60.2802 173.507 59.915C173.019 59.5447 172.256 59.3596 171.218 59.3596Z" fill="white"/>
<path d="M178.206 58.2409H179.456V64.76C179.456 65.0068 179.454 65.2769 179.449 65.57C179.443 65.858 179.435 66.1409 179.425 66.4187C179.414 66.6964 179.401 66.9484 179.386 67.1747C179.375 67.401 179.365 67.5759 179.354 67.6993H179.417L185.819 58.2409H187.29V69.52H186.039V63.0781C186.039 62.8055 186.045 62.5175 186.055 62.2141C186.066 61.9055 186.076 61.6072 186.087 61.3191C186.102 61.0311 186.118 60.774 186.134 60.5477C186.149 60.3162 186.16 60.1388 186.165 60.0153H186.094L179.684 69.52H178.206V58.2409Z" fill="white"/>
<path d="M193.932 64.8063L190.943 69.52H189.378L192.595 64.5671C192.175 64.4385 191.782 64.2559 191.415 64.0193C191.053 63.7776 190.759 63.4459 190.534 63.0241C190.314 62.6024 190.204 62.0623 190.204 61.404C190.204 60.3754 190.56 59.591 191.273 59.051C191.992 58.5109 193.059 58.2409 194.474 58.2409H197.628V69.52H196.291V64.8063H193.932ZM196.291 59.3596H194.521C193.887 59.3596 193.35 59.4316 192.909 59.5756C192.474 59.7196 192.144 59.9459 191.918 60.2545C191.693 60.5631 191.58 60.9668 191.58 61.4657C191.58 62.1806 191.821 62.731 192.304 63.1167C192.786 63.4973 193.523 63.6876 194.514 63.6876H196.291V59.3596Z" fill="white"/>
<path d="M205.288 69.52V58.2409H213.853V69.52H212.532V59.3981H206.625V69.52H205.288Z" fill="white"/>
<path d="M225.363 69.52H224.026V59.3981H220.298C220.225 59.9742 220.146 60.5759 220.062 61.2034C219.979 61.8309 219.892 62.4558 219.803 63.0781C219.714 63.7005 219.625 64.2894 219.535 64.8448C219.446 65.4003 219.357 65.894 219.268 66.3261C219.132 67.041 218.961 67.6505 218.757 68.1545C218.558 68.6534 218.29 69.0366 217.955 69.304C217.624 69.5663 217.186 69.6975 216.641 69.6975C216.458 69.6975 216.274 69.6795 216.091 69.6435C215.912 69.6075 215.755 69.5637 215.619 69.5123V68.4091C215.739 68.4605 215.873 68.5042 216.02 68.5402C216.172 68.5762 216.332 68.5942 216.5 68.5942C216.83 68.5942 217.089 68.4657 217.278 68.2085C217.472 67.9462 217.624 67.6145 217.734 67.2133C217.85 66.8121 217.949 66.4007 218.033 65.9789C218.101 65.6292 218.18 65.1868 218.269 64.652C218.358 64.1171 218.453 63.5102 218.552 62.8313C218.652 62.1472 218.754 61.4169 218.859 60.6402C218.969 59.8636 219.077 59.0638 219.182 58.2409H225.363V69.52Z" fill="white"/>
<path d="M238.643 63.865C238.643 64.7342 238.53 65.5263 238.305 66.2412C238.079 66.951 237.744 67.563 237.298 68.0773C236.858 68.5865 236.31 68.98 235.654 69.2577C234.999 69.5354 234.239 69.6743 233.374 69.6743C232.482 69.6743 231.704 69.5354 231.038 69.2577C230.377 68.98 229.827 68.584 229.386 68.0696C228.951 67.5553 228.623 66.9407 228.403 66.2258C228.188 65.5109 228.081 64.7188 228.081 63.8496C228.081 62.6975 228.275 61.6869 228.663 60.8177C229.051 59.9485 229.638 59.2721 230.424 58.7887C231.216 58.3052 232.207 58.0635 233.397 58.0635C234.535 58.0635 235.492 58.3026 236.268 58.781C237.049 59.2593 237.639 59.933 238.038 60.8022C238.441 61.6663 238.643 62.6872 238.643 63.865ZM229.488 63.865C229.488 64.8217 229.627 65.6497 229.905 66.3492C230.183 67.0487 230.608 67.5887 231.179 67.9693C231.756 68.3499 232.488 68.5402 233.374 68.5402C234.265 68.5402 234.994 68.3499 235.56 67.9693C236.132 67.5887 236.554 67.0487 236.826 66.3492C237.099 65.6497 237.235 64.8217 237.235 63.865C237.235 62.4095 236.923 61.2729 236.299 60.4551C235.681 59.6322 234.713 59.2207 233.397 59.2207C232.506 59.2207 231.772 59.4084 231.195 59.7839C230.618 60.1593 230.188 60.6942 229.905 61.3886C229.627 62.0778 229.488 62.9033 229.488 63.865Z" fill="white"/>
<path d="M244.9 69.52H243.555V59.3981H239.937V58.2409H248.502V59.3981H244.9V69.52Z" fill="white"/>
<path d="M259.115 69.52H257.778V64.2045H251.738V69.52H250.401V58.2409H251.738V63.0473H257.778V58.2409H259.115V69.52Z" fill="white"/>
<path d="M262.454 58.2409H263.704V64.76C263.704 65.0068 263.702 65.2769 263.696 65.57C263.691 65.858 263.683 66.1409 263.673 66.4187C263.662 66.6964 263.649 66.9484 263.633 67.1747C263.623 67.401 263.613 67.5759 263.602 67.6993H263.665L270.067 58.2409H271.538V69.52H270.287V63.0781C270.287 62.8055 270.292 62.5175 270.303 62.2141C270.313 61.9055 270.324 61.6072 270.334 61.3191C270.35 61.0311 270.366 60.774 270.382 60.5477C270.397 60.3162 270.408 60.1388 270.413 60.0153H270.342L263.932 69.52H262.454V58.2409Z" fill="white"/>
<path d="M283.079 69.52H281.459L276.174 63.7956V69.52H274.837V58.2409H276.174V63.703L281.326 58.2409H282.859L277.771 63.7185L283.079 69.52Z" fill="white"/>
<path d="M294.802 63.865C294.802 64.7342 294.689 65.5263 294.464 66.2412C294.238 66.951 293.903 67.563 293.457 68.0773C293.017 68.5865 292.469 68.98 291.813 69.2577C291.158 69.5354 290.398 69.6743 289.532 69.6743C288.641 69.6743 287.862 69.5354 287.197 69.2577C286.536 68.98 285.985 68.584 285.545 68.0696C285.11 67.5553 284.782 66.9407 284.562 66.2258C284.347 65.5109 284.239 64.7188 284.239 63.8496C284.239 62.6975 284.433 61.6869 284.821 60.8177C285.209 59.9485 285.797 59.2721 286.583 58.7887C287.375 58.3052 288.366 58.0635 289.556 58.0635C290.694 58.0635 291.651 58.3026 292.427 58.781C293.208 59.2593 293.798 59.933 294.196 60.8022C294.6 61.6663 294.802 62.6872 294.802 63.865ZM285.647 63.865C285.647 64.8217 285.786 65.6497 286.064 66.3492C286.342 67.0487 286.767 67.5887 287.338 67.9693C287.915 68.3499 288.646 68.5402 289.532 68.5402C290.424 68.5402 291.153 68.3499 291.719 67.9693C292.29 67.5887 292.712 67.0487 292.985 66.3492C293.258 65.6497 293.394 64.8217 293.394 63.865C293.394 62.4095 293.082 61.2729 292.458 60.4551C291.839 59.6322 290.872 59.2207 289.556 59.2207C288.665 59.2207 287.931 59.4084 287.354 59.7839C286.777 60.1593 286.347 60.6942 286.064 61.3886C285.786 62.0778 285.647 62.9033 285.647 63.865Z" fill="white"/>
<path d="M297.527 58.2409H300.783C302.22 58.2409 303.3 58.4518 304.023 58.8735C304.747 59.2953 305.109 60.0128 305.109 61.026C305.109 61.4632 305.022 61.8566 304.849 62.2063C304.681 62.5509 304.435 62.8364 304.11 63.0627C303.785 63.289 303.384 63.4459 302.907 63.5333V63.6104C303.41 63.6876 303.856 63.829 304.244 64.0348C304.632 64.2405 304.936 64.5285 305.156 64.8988C305.376 65.2691 305.486 65.7397 305.486 66.3106C305.486 67.005 305.321 67.5913 304.991 68.0696C304.666 68.5479 304.204 68.9105 303.607 69.1574C303.009 69.3992 302.301 69.52 301.483 69.52H297.527V58.2409ZM298.864 63.0781H301.066C302.068 63.0781 302.76 62.9161 303.143 62.5921C303.531 62.2681 303.725 61.7949 303.725 61.1726C303.725 60.5297 303.494 60.0668 303.032 59.7839C302.576 59.501 301.847 59.3596 300.846 59.3596H298.864V63.0781ZM298.864 64.1813V68.4014H301.255C302.277 68.4014 303.001 68.2059 303.426 67.815C303.85 67.419 304.063 66.8867 304.063 66.2181C304.063 65.7912 303.966 65.426 303.772 65.1226C303.583 64.8191 303.274 64.5877 302.844 64.4282C302.419 64.2636 301.85 64.1813 301.137 64.1813H298.864Z" fill="white"/>
<path d="M315.313 69.52L313.898 65.9403H309.289L307.881 69.52H306.528L311.027 58.1946H312.23L316.698 69.52H315.313ZM313.497 64.7754L312.152 61.2188C312.12 61.1263 312.068 60.9745 311.994 60.7637C311.926 60.5528 311.855 60.3342 311.782 60.1079C311.709 59.8816 311.648 59.699 311.601 59.5602C311.549 59.771 311.491 59.9819 311.428 60.1928C311.37 60.3985 311.313 60.5914 311.255 60.7714C311.197 60.9463 311.148 61.0954 311.106 61.2188L309.737 64.7754H313.497Z" fill="white"/>
<path fill-rule="evenodd" clip-rule="evenodd" d="M39.739 0L79.4781 38.9807L72.9105 45.4229L39.739 12.8845L6.56758 45.4229L0 38.9807L39.739 0Z" fill="white"/>
<path fill-rule="evenodd" clip-rule="evenodd" d="M9.97266 49.3064L14.2416 45.1189L39.7388 70.1295L65.236 45.1189L69.5049 49.3064L39.7388 78.5045L9.97266 49.3064Z" fill="white"/>
<path fill-rule="evenodd" clip-rule="evenodd" d="M61.3335 40.9776L39.739 19.7952L18.1445 40.9776L39.739 62.16L61.3335 40.9776ZM39.0094 35.2187H33.9011V40.2295H39.0094V35.2187ZM39.0094 41.5962H33.9011V46.607H39.0094V41.5962ZM40.4026 35.2187H45.511V40.2295H40.4026V35.2187ZM45.511 41.5962H40.4026V46.607H45.511V41.5962Z" fill="white"/>
</svg>
