<svg width="298" height="75" viewBox="0 0 298 75" fill="none" xmlns="http://www.w3.org/2000/svg">
<path d="M88.6836 18.7314H97.7925C101.69 18.7314 104.639 19.2786 106.641 20.373C108.643 21.4674 109.644 23.3893 109.644 26.1387C109.644 27.2464 109.464 28.2474 109.104 29.1416C108.757 30.0358 108.249 30.7699 107.582 31.3438C106.915 31.9176 106.101 32.2913 105.14 32.4648V32.665C106.114 32.8652 106.995 33.2122 107.782 33.7061C108.57 34.1865 109.197 34.8939 109.664 35.8281C110.145 36.749 110.385 37.9769 110.385 39.5117C110.385 41.2868 109.951 42.8083 109.083 44.0762C108.216 45.3441 106.975 46.3184 105.36 46.999C103.758 47.6663 101.85 48 99.6343 48H88.6836V18.7314ZM94.8896 30.3228H98.4932C100.295 30.3228 101.543 30.0425 102.237 29.4819C102.931 28.908 103.278 28.0672 103.278 26.9595C103.278 25.8384 102.864 25.0376 102.037 24.5571C101.222 24.0633 99.9279 23.8164 98.1528 23.8164H94.8896V30.3228ZM94.8896 35.2476V42.875H98.9336C100.802 42.875 102.103 42.5146 102.837 41.7939C103.571 41.0732 103.938 40.1056 103.938 38.8911C103.938 38.1704 103.778 37.5365 103.458 36.9893C103.138 36.4421 102.597 36.015 101.836 35.708C101.089 35.401 100.055 35.2476 98.7334 35.2476H94.8896Z" fill="#F14F33"/>
<path d="M124.919 25.1577C127.922 25.1577 130.224 25.8117 131.826 27.1196C133.427 28.4276 134.228 30.4162 134.228 33.0854V48H129.964L128.783 44.957H128.623C127.982 45.7578 127.328 46.4118 126.661 46.9189C125.993 47.4261 125.226 47.7998 124.358 48.04C123.491 48.2803 122.437 48.4004 121.195 48.4004C119.874 48.4004 118.686 48.1468 117.632 47.6396C116.591 47.1325 115.77 46.3584 115.169 45.3174C114.569 44.263 114.269 42.9284 114.269 41.3135C114.269 38.9378 115.103 37.1895 116.771 36.0684C118.439 34.9339 120.942 34.3066 124.278 34.1865L128.162 34.0664V33.0854C128.162 31.911 127.855 31.0501 127.241 30.5029C126.627 29.9557 125.773 29.6821 124.679 29.6821C123.598 29.6821 122.537 29.8356 121.496 30.1426C120.455 30.4495 119.414 30.8366 118.373 31.3037L116.351 27.1797C117.538 26.5524 118.866 26.0586 120.334 25.6982C121.816 25.3379 123.344 25.1577 124.919 25.1577ZM128.162 37.6299L125.8 37.71C123.825 37.7633 122.45 38.117 121.676 38.771C120.915 39.425 120.535 40.2858 120.535 41.3535C120.535 42.2878 120.808 42.9551 121.355 43.3555C121.903 43.7425 122.617 43.936 123.498 43.936C124.806 43.936 125.907 43.549 126.801 42.7749C127.708 42.0008 128.162 40.8997 128.162 39.4717V37.6299Z" fill="#F14F33"/>
<path d="M153.247 25.1978C155.636 25.1978 157.557 25.8517 159.012 27.1597C160.467 28.4543 161.194 30.5363 161.194 33.4058V48H155.088V34.9272C155.088 33.3257 154.795 32.1178 154.208 31.3037C153.634 30.4896 152.726 30.0825 151.485 30.0825C149.616 30.0825 148.342 30.7165 147.661 31.9844C146.98 33.2523 146.64 35.0807 146.64 37.4697V48H140.534V25.6182H145.199L146.02 28.481H146.36C146.84 27.7069 147.434 27.0796 148.142 26.5991C148.862 26.1187 149.656 25.765 150.524 25.5381C151.405 25.3112 152.312 25.1978 153.247 25.1978Z" fill="#F14F33"/>
<path d="M173.586 25.6182V48H167.48V25.6182H173.586ZM170.543 16.8496C171.451 16.8496 172.232 17.0632 172.886 17.4902C173.54 17.904 173.867 18.6847 173.867 19.8325C173.867 20.967 173.54 21.7544 172.886 22.1948C172.232 22.6219 171.451 22.8354 170.543 22.8354C169.623 22.8354 168.835 22.6219 168.181 22.1948C167.541 21.7544 167.22 20.967 167.22 19.8325C167.22 18.6847 167.541 17.904 168.181 17.4902C168.835 17.0632 169.623 16.8496 170.543 16.8496Z" fill="#F14F33"/>
<path d="M204.777 33.0854C204.777 36.382 204.143 39.138 202.875 41.3535C201.62 43.5557 199.799 45.2173 197.41 46.3384C195.021 47.4461 192.145 48 188.781 48H180.493V18.7314H189.682C192.752 18.7314 195.414 19.2786 197.67 20.373C199.925 21.4541 201.674 23.0623 202.915 25.1978C204.156 27.3198 204.777 29.9491 204.777 33.0854ZM198.331 33.2456C198.331 31.0835 198.01 29.3084 197.37 27.9204C196.742 26.519 195.808 25.4847 194.567 24.8174C193.339 24.1501 191.818 23.8164 190.002 23.8164H186.699V42.875H189.362C192.391 42.875 194.64 42.0675 196.108 40.4526C197.59 38.8377 198.331 36.4354 198.331 33.2456Z" fill="#F14F33"/>
<path d="M230.702 36.769C230.702 38.6375 230.449 40.2925 229.941 41.7339C229.448 43.1753 228.72 44.3965 227.759 45.3975C226.812 46.3851 225.664 47.1325 224.316 47.6396C222.981 48.1468 221.473 48.4004 219.792 48.4004C218.217 48.4004 216.769 48.1468 215.447 47.6396C214.139 47.1325 212.998 46.3851 212.024 45.3975C211.063 44.3965 210.316 43.1753 209.782 41.7339C209.261 40.2925 209.001 38.6375 209.001 36.769C209.001 34.2866 209.441 32.1846 210.322 30.4629C211.203 28.7412 212.458 27.4333 214.086 26.5391C215.714 25.6449 217.656 25.1978 219.912 25.1978C222.007 25.1978 223.862 25.6449 225.477 26.5391C227.105 27.4333 228.38 28.7412 229.301 30.4629C230.235 32.1846 230.702 34.2866 230.702 36.769ZM215.227 36.769C215.227 38.2371 215.387 39.4717 215.708 40.4727C216.028 41.4736 216.528 42.2277 217.209 42.7349C217.89 43.242 218.777 43.4956 219.872 43.4956C220.953 43.4956 221.827 43.242 222.494 42.7349C223.175 42.2277 223.669 41.4736 223.976 40.4727C224.296 39.4717 224.456 38.2371 224.456 36.769C224.456 35.2876 224.296 34.0597 223.976 33.0854C223.669 32.0978 223.175 31.3571 222.494 30.8633C221.813 30.3695 220.926 30.1226 219.832 30.1226C218.217 30.1226 217.042 30.6764 216.308 31.7842C215.587 32.8919 215.227 34.5535 215.227 36.769Z" fill="#F14F33"/>
<path d="M262.033 25.1978C264.569 25.1978 266.484 25.8517 267.778 27.1597C269.086 28.4543 269.74 30.5363 269.74 33.4058V48H263.614V34.9272C263.614 33.3257 263.341 32.1178 262.793 31.3037C262.246 30.4896 261.399 30.0825 260.251 30.0825C258.636 30.0825 257.488 30.6631 256.808 31.8242C256.127 32.972 255.787 34.6203 255.787 36.769V48H249.681V34.9272C249.681 33.8595 249.561 32.9653 249.32 32.2446C249.08 31.5239 248.713 30.9834 248.219 30.623C247.725 30.2627 247.091 30.0825 246.317 30.0825C245.183 30.0825 244.289 30.3695 243.635 30.9434C242.994 31.5039 242.534 32.3381 242.253 33.4458C241.986 34.5402 241.853 35.8815 241.853 37.4697V48H235.747V25.6182H240.412L241.232 28.481H241.573C242.027 27.7069 242.594 27.0796 243.274 26.5991C243.968 26.1187 244.729 25.765 245.557 25.5381C246.384 25.3112 247.225 25.1978 248.079 25.1978C249.721 25.1978 251.109 25.4647 252.243 25.9985C253.391 26.5324 254.272 27.3599 254.886 28.481H255.426C256.094 27.3332 257.035 26.499 258.249 25.9785C259.477 25.458 260.738 25.1978 262.033 25.1978Z" fill="#F14F33"/>
<path d="M285.195 25.1577C288.198 25.1577 290.5 25.8117 292.102 27.1196C293.704 28.4276 294.504 30.4162 294.504 33.0854V48H290.24L289.059 44.957H288.899C288.258 45.7578 287.604 46.4118 286.937 46.9189C286.27 47.4261 285.502 47.7998 284.635 48.04C283.767 48.2803 282.713 48.4004 281.472 48.4004C280.15 48.4004 278.963 48.1468 277.908 47.6396C276.867 47.1325 276.046 46.3584 275.446 45.3174C274.845 44.263 274.545 42.9284 274.545 41.3135C274.545 38.9378 275.379 37.1895 277.047 36.0684C278.716 34.9339 281.218 34.3066 284.555 34.1865L288.438 34.0664V33.0854C288.438 31.911 288.132 31.0501 287.518 30.5029C286.904 29.9557 286.049 29.6821 284.955 29.6821C283.874 29.6821 282.813 29.8356 281.772 30.1426C280.731 30.4495 279.69 30.8366 278.649 31.3037L276.627 27.1797C277.815 26.5524 279.143 26.0586 280.611 25.6982C282.092 25.3379 283.62 25.1577 285.195 25.1577ZM288.438 37.6299L286.076 37.71C284.101 37.7633 282.726 38.117 281.952 38.771C281.191 39.425 280.811 40.2858 280.811 41.3535C280.811 42.2878 281.085 42.9551 281.632 43.3555C282.179 43.7425 282.893 43.936 283.774 43.936C285.082 43.936 286.183 43.549 287.077 42.7749C287.985 42.0008 288.438 40.8997 288.438 39.4717V37.6299Z" fill="#F14F33"/>
<path d="M97.7524 60.6313C97.7524 61.4565 97.6475 62.2085 97.4375 62.8872C97.2275 63.561 96.915 64.1421 96.5 64.6304C96.0898 65.1138 95.5796 65.4873 94.9692 65.751C94.3589 66.0146 93.6509 66.1465 92.8452 66.1465C92.0151 66.1465 91.29 66.0146 90.6699 65.751C90.0547 65.4873 89.542 65.1113 89.1318 64.623C88.7266 64.1348 88.4214 63.5513 88.2163 62.8726C88.0161 62.1938 87.916 61.4419 87.916 60.6167C87.916 59.5229 88.0967 58.5635 88.458 57.7383C88.8193 56.9131 89.3662 56.271 90.0986 55.812C90.8359 55.353 91.7588 55.1235 92.8672 55.1235C93.9268 55.1235 94.8179 55.3506 95.5405 55.8047C96.2681 56.2588 96.8174 56.8984 97.1885 57.7236C97.5645 58.5439 97.7524 59.5132 97.7524 60.6313ZM89.2271 60.6313C89.2271 61.5396 89.3564 62.3257 89.6152 62.9897C89.874 63.6538 90.2695 64.1665 90.8018 64.5278C91.3389 64.8892 92.02 65.0698 92.8452 65.0698C93.6753 65.0698 94.354 64.8892 94.8813 64.5278C95.4136 64.1665 95.8066 63.6538 96.0605 62.9897C96.3145 62.3257 96.4414 61.5396 96.4414 60.6313C96.4414 59.2495 96.1509 58.1704 95.5698 57.394C94.9937 56.6128 94.0928 56.2222 92.8672 56.2222C92.0371 56.2222 91.3535 56.4004 90.8164 56.7568C90.2793 57.1133 89.8789 57.6211 89.6152 58.2803C89.3564 58.9346 89.2271 59.7183 89.2271 60.6313Z" fill="white"/>
<path d="M103.579 66H102.326V56.3906H98.9571V55.292H106.933V56.3906H103.579V66Z" fill="white"/>
<path d="M119.882 55.292V64.8867H121.2V68.7979H120.007V66H112.565V68.7979H111.371V64.8867H112.192C112.558 64.2617 112.9 63.561 113.217 62.7847C113.539 62.0034 113.825 61.188 114.074 60.3384C114.328 59.4839 114.533 58.627 114.689 57.7676C114.85 56.9082 114.953 56.083 114.997 55.292H119.882ZM118.644 56.4126H116.096C116.052 57.0181 115.954 57.6943 115.803 58.4414C115.651 59.1836 115.456 59.9453 115.217 60.7266C114.982 61.5078 114.719 62.2573 114.426 62.9751C114.138 63.6929 113.832 64.3301 113.51 64.8867H118.644V56.4126Z" fill="white"/>
<path d="M127.876 66L124.28 56.5225H124.222C124.241 56.7227 124.258 56.9668 124.273 57.2549C124.287 57.543 124.3 57.8579 124.309 58.1997C124.319 58.5366 124.324 58.8809 124.324 59.2324V66H123.167V55.292H125.013L128.404 64.1982H128.455L131.897 55.292H133.728V66H132.498V59.1445C132.498 58.8271 132.503 58.5098 132.513 58.1924C132.522 57.8701 132.535 57.5674 132.549 57.2842C132.564 56.9961 132.579 56.7471 132.593 56.5371H132.535L128.894 66H127.876Z" fill="white"/>
<path d="M136.823 55.292H137.987V61.481C137.987 61.7153 137.985 61.9717 137.98 62.25C137.975 62.5234 137.968 62.792 137.958 63.0557C137.948 63.3193 137.936 63.5586 137.921 63.7734C137.912 63.9883 137.902 64.1543 137.892 64.2715H137.951L143.913 55.292H145.282V66H144.118V59.8843C144.118 59.6255 144.123 59.3521 144.132 59.064C144.142 58.771 144.152 58.4878 144.162 58.2144C144.176 57.9409 144.191 57.6968 144.206 57.4819C144.22 57.2622 144.23 57.0938 144.235 56.9766H144.169L138.2 66H136.823V55.292Z" fill="white"/>
<path d="M151.643 66H150.391V56.3906H147.022V55.292H154.998V56.3906H151.643V66Z" fill="white"/>
<path d="M159.564 55.292C160.946 55.292 161.954 55.563 162.589 56.105C163.229 56.6421 163.549 57.4136 163.549 58.4194C163.549 58.8735 163.473 59.3057 163.321 59.7158C163.175 60.1211 162.936 60.48 162.604 60.7925C162.272 61.1001 161.835 61.3442 161.293 61.5249C160.756 61.7007 160.096 61.7886 159.315 61.7886H158.011V66H156.766V55.292H159.564ZM159.447 56.354H158.011V60.7192H159.176C159.86 60.7192 160.428 60.646 160.883 60.4995C161.342 60.353 161.686 60.1162 161.915 59.7891C162.145 59.457 162.259 59.0176 162.259 58.4707C162.259 57.7578 162.032 57.228 161.578 56.8813C161.124 56.5298 160.414 56.354 159.447 56.354Z" fill="white"/>
<path d="M165.954 55.292H167.119V61.481C167.119 61.7153 167.117 61.9717 167.112 62.25C167.107 62.5234 167.099 62.792 167.09 63.0557C167.08 63.3193 167.068 63.5586 167.053 63.7734C167.043 63.9883 167.033 64.1543 167.024 64.2715H167.082L173.044 55.292H174.414V66H173.249V59.8843C173.249 59.6255 173.254 59.3521 173.264 59.064C173.274 58.771 173.283 58.4878 173.293 58.2144C173.308 57.9409 173.323 57.6968 173.337 57.4819C173.352 57.2622 173.362 57.0938 173.367 56.9766H173.301L167.331 66H165.954V55.292Z" fill="white"/>
<path d="M180.599 61.5249L177.816 66H176.358L179.354 61.2979C178.963 61.1758 178.597 61.0024 178.255 60.7778C177.918 60.5483 177.645 60.2334 177.435 59.833C177.23 59.4326 177.127 58.9199 177.127 58.2949C177.127 57.3184 177.459 56.5737 178.123 56.061C178.792 55.5483 179.786 55.292 181.104 55.292H184.041V66H182.796V61.5249H180.599ZM182.796 56.354H181.148C180.558 56.354 180.057 56.4224 179.647 56.5591C179.242 56.6958 178.934 56.9106 178.724 57.2036C178.514 57.4966 178.409 57.8799 178.409 58.3535C178.409 59.0322 178.634 59.5547 179.083 59.9209C179.532 60.2822 180.218 60.4629 181.141 60.4629H182.796V56.354Z" fill="white"/>
<path d="M191.175 66V55.292H199.151V66H197.921V56.3906H192.42V66H191.175Z" fill="white"/>
<path d="M209.87 66H208.625V56.3906H205.153C205.085 56.9375 205.011 57.5088 204.933 58.1045C204.855 58.7002 204.775 59.2935 204.692 59.8843C204.609 60.4751 204.526 61.0342 204.443 61.5615C204.36 62.0889 204.277 62.5576 204.194 62.9678C204.067 63.6465 203.908 64.2251 203.717 64.7036C203.532 65.1772 203.283 65.541 202.97 65.7949C202.663 66.0439 202.255 66.1685 201.747 66.1685C201.576 66.1685 201.405 66.1514 201.235 66.1172C201.069 66.083 200.922 66.0415 200.795 65.9927V64.9453C200.907 64.9941 201.032 65.0356 201.169 65.0698C201.31 65.104 201.459 65.1211 201.615 65.1211C201.923 65.1211 202.165 64.999 202.341 64.7549C202.521 64.5059 202.663 64.1909 202.765 63.8101C202.873 63.4292 202.966 63.0386 203.044 62.6382C203.107 62.3062 203.18 61.8862 203.263 61.3784C203.346 60.8706 203.434 60.2944 203.527 59.6499C203.62 59.0005 203.715 58.3071 203.813 57.5698C203.915 56.8325 204.015 56.0732 204.113 55.292H209.87V66Z" fill="white"/>
<path d="M222.237 60.6313C222.237 61.4565 222.132 62.2085 221.922 62.8872C221.712 63.561 221.399 64.1421 220.984 64.6304C220.574 65.1138 220.064 65.4873 219.453 65.751C218.843 66.0146 218.135 66.1465 217.329 66.1465C216.499 66.1465 215.774 66.0146 215.154 65.751C214.539 65.4873 214.026 65.1113 213.616 64.623C213.211 64.1348 212.906 63.5513 212.7 62.8726C212.5 62.1938 212.4 61.4419 212.4 60.6167C212.4 59.5229 212.581 58.5635 212.942 57.7383C213.304 56.9131 213.85 56.271 214.583 55.812C215.32 55.353 216.243 55.1235 217.351 55.1235C218.411 55.1235 219.302 55.3506 220.025 55.8047C220.752 56.2588 221.302 56.8984 221.673 57.7236C222.049 58.5439 222.237 59.5132 222.237 60.6313ZM213.711 60.6313C213.711 61.5396 213.841 62.3257 214.099 62.9897C214.358 63.6538 214.754 64.1665 215.286 64.5278C215.823 64.8892 216.504 65.0698 217.329 65.0698C218.159 65.0698 218.838 64.8892 219.366 64.5278C219.898 64.1665 220.291 63.6538 220.545 62.9897C220.799 62.3257 220.926 61.5396 220.926 60.6313C220.926 59.2495 220.635 58.1704 220.054 57.394C219.478 56.6128 218.577 56.2222 217.351 56.2222C216.521 56.2222 215.838 56.4004 215.301 56.7568C214.763 57.1133 214.363 57.6211 214.099 58.2803C213.841 58.9346 213.711 59.7183 213.711 60.6313Z" fill="white"/>
<path d="M228.063 66H226.81V56.3906H223.441V55.292H231.417V56.3906H228.063V66Z" fill="white"/>
<path d="M241.301 66H240.056V60.9536H234.431V66H233.186V55.292H234.431V59.855H240.056V55.292H241.301V66Z" fill="white"/>
<path d="M244.41 55.292H245.575V61.481C245.575 61.7153 245.572 61.9717 245.567 62.25C245.563 62.5234 245.555 62.792 245.546 63.0557C245.536 63.3193 245.524 63.5586 245.509 63.7734C245.499 63.9883 245.489 64.1543 245.48 64.2715H245.538L251.5 55.292H252.87V66H251.705V59.8843C251.705 59.6255 251.71 59.3521 251.72 59.064C251.73 58.771 251.739 58.4878 251.749 58.2144C251.764 57.9409 251.778 57.6968 251.793 57.4819C251.808 57.2622 251.817 57.0938 251.822 56.9766H251.756L245.787 66H244.41V55.292Z" fill="white"/>
<path d="M263.618 66H262.109L257.187 60.5654V66H255.942V55.292H257.187V60.4775L261.985 55.292H263.413L258.674 60.4922L263.618 66Z" fill="white"/>
<path d="M274.534 60.6313C274.534 61.4565 274.429 62.2085 274.22 62.8872C274.01 63.561 273.697 64.1421 273.282 64.6304C272.872 65.1138 272.362 65.4873 271.751 65.751C271.141 66.0146 270.433 66.1465 269.627 66.1465C268.797 66.1465 268.072 66.0146 267.452 65.751C266.837 65.4873 266.324 65.1113 265.914 64.623C265.509 64.1348 265.203 63.5513 264.998 62.8726C264.798 62.1938 264.698 61.4419 264.698 60.6167C264.698 59.5229 264.879 58.5635 265.24 57.7383C265.601 56.9131 266.148 56.271 266.881 55.812C267.618 55.353 268.541 55.1235 269.649 55.1235C270.709 55.1235 271.6 55.3506 272.323 55.8047C273.05 56.2588 273.599 56.8984 273.971 57.7236C274.346 58.5439 274.534 59.5132 274.534 60.6313ZM266.009 60.6313C266.009 61.5396 266.138 62.3257 266.397 62.9897C266.656 63.6538 267.052 64.1665 267.584 64.5278C268.121 64.8892 268.802 65.0698 269.627 65.0698C270.457 65.0698 271.136 64.8892 271.663 64.5278C272.196 64.1665 272.589 63.6538 272.843 62.9897C273.096 62.3257 273.223 61.5396 273.223 60.6313C273.223 59.2495 272.933 58.1704 272.352 57.394C271.776 56.6128 270.875 56.2222 269.649 56.2222C268.819 56.2222 268.136 56.4004 267.598 56.7568C267.061 57.1133 266.661 57.6211 266.397 58.2803C266.138 58.9346 266.009 59.7183 266.009 60.6313Z" fill="white"/>
<path d="M277.072 55.292H280.104C281.442 55.292 282.448 55.4922 283.122 55.8926C283.796 56.293 284.133 56.9741 284.133 57.936C284.133 58.3511 284.052 58.7246 283.891 59.0566C283.735 59.3838 283.505 59.6548 283.203 59.8696C282.9 60.0845 282.526 60.2334 282.082 60.3164V60.3896C282.551 60.4629 282.966 60.5972 283.327 60.7925C283.688 60.9878 283.972 61.2612 284.177 61.6128C284.382 61.9644 284.484 62.4111 284.484 62.9531C284.484 63.6123 284.33 64.1689 284.023 64.623C283.72 65.0771 283.29 65.4214 282.734 65.6558C282.177 65.8853 281.518 66 280.756 66H277.072V55.292ZM278.317 59.8843H280.368C281.301 59.8843 281.945 59.7305 282.302 59.4229C282.663 59.1152 282.844 58.666 282.844 58.0752C282.844 57.4648 282.629 57.0254 282.199 56.7568C281.774 56.4883 281.096 56.354 280.163 56.354H278.317V59.8843ZM278.317 60.9316V64.938H280.544C281.496 64.938 282.17 64.7524 282.565 64.3813C282.961 64.0054 283.159 63.5 283.159 62.8652C283.159 62.46 283.068 62.1133 282.888 61.8252C282.712 61.5371 282.424 61.3174 282.023 61.166C281.628 61.0098 281.098 60.9316 280.434 60.9316H278.317Z" fill="white"/>
<path d="M293.636 66L292.317 62.6016H288.025L286.714 66H285.455L289.644 55.248H290.765L294.925 66H293.636ZM291.944 61.4956L290.691 58.1191C290.662 58.0312 290.613 57.8872 290.545 57.687C290.481 57.4868 290.416 57.2793 290.347 57.0645C290.279 56.8496 290.223 56.6763 290.179 56.5444C290.13 56.7446 290.076 56.9448 290.018 57.145C289.964 57.3403 289.91 57.5234 289.856 57.6943C289.803 57.8604 289.756 58.002 289.717 58.1191L288.443 61.4956H291.944Z" fill="white"/>
<path fill-rule="evenodd" clip-rule="evenodd" d="M37.007 0L74.0139 37.007L67.8979 43.123L37.007 12.2321L6.11606 43.123L0 37.007L37.007 0Z" fill="#F14F33"/>
<path fill-rule="evenodd" clip-rule="evenodd" d="M9.28711 46.8099L13.2625 42.8345L37.0068 66.5788L60.7511 42.8345L64.7265 46.8099L37.0068 74.5296L9.28711 46.8099Z" fill="white"/>
<path fill-rule="evenodd" clip-rule="evenodd" d="M57.1172 38.9026L37.0073 18.7927L16.8975 38.9026L37.0073 59.0125L57.1172 38.9026ZM36.3279 33.4353H31.5707V38.1925H36.3279V33.4353ZM36.3279 39.4899H31.5707V44.247H36.3279V39.4899ZM37.6253 33.4353H42.3825V38.1925H37.6253V33.4353ZM42.3825 39.4899H37.6253V44.247H42.3825V39.4899Z" fill="white"/>
</svg>
