<svg width="32" height="32" viewBox="0 0 32 32" fill="none" xmlns="http://www.w3.org/2000/svg">
<path fill-rule="evenodd" clip-rule="evenodd" d="M16 0L32 15.8893L29.3557 18.5153L16 5.25197L2.64428 18.5153L0 15.8893L16 0Z" fill="#2D3547"/>
<path fill-rule="evenodd" clip-rule="evenodd" d="M4.01562 20.0982L5.73441 18.3914L16.0003 28.5862L26.2661 18.3914L27.9849 20.0982L16.0003 32L4.01562 20.0982Z" fill="#F14F33"/>
<path fill-rule="evenodd" clip-rule="evenodd" d="M24.6947 16.2738L16.0002 7.6394L7.30566 16.2738L16.0002 24.9081L24.6947 16.2738ZM15.7064 13.9263H13.6497V15.9689H15.7064V13.9263ZM15.7064 16.5259H13.6497V18.5685H15.7064V16.5259ZM16.2674 13.9263H18.3241V15.9689H16.2674V13.9263ZM18.3241 16.5259H16.2674V18.5685H18.3241V16.5259Z" fill="#F14F33"/>
</svg>
