<svg width="230" height="452" viewBox="0 0 230 452" fill="none" xmlns="http://www.w3.org/2000/svg">
<path fill-rule="evenodd" clip-rule="evenodd" d="M228.712 0L457.425 224.436L419.626 261.528L228.712 74.1841L37.7988 261.528L0 224.436L228.712 0Z" fill="white" fill-opacity="0.1"/>
<path fill-rule="evenodd" clip-rule="evenodd" d="M57.3975 283.888L81.9667 259.778L228.712 403.78L375.458 259.778L400.027 283.888L228.712 452L57.3975 283.888Z" fill="white" fill-opacity="0.1"/>
<path fill-rule="evenodd" clip-rule="evenodd" d="M352.996 229.868L228.712 107.908L104.428 229.868L228.712 351.829L352.996 229.868ZM224.513 196.711H195.112V225.562H224.513V196.711ZM224.513 233.43H195.112V262.281H224.513V233.43ZM232.531 196.711H261.931V225.562H232.531V196.711ZM261.931 233.43H232.531V262.281H261.931V233.43Z" fill="white" fill-opacity="0.1"/>
</svg>
