<svg width="25" height="25" viewBox="0 0 25 25" fill="none" xmlns="http://www.w3.org/2000/svg">
<path d="M22.8027 2.97852H2.19722C1.85898 2.97852 1.54233 3.06167 1.25586 3.19873L12.4511 14.394L14.9604 11.9825C14.9604 11.9825 14.9605 11.9823 14.9606 11.9822C14.9606 11.9821 14.9608 11.982 14.9608 11.982L23.7444 3.19893C23.4579 3.06177 23.141 2.97852 22.8027 2.97852Z" fill="#3B8ACA"/>
<path d="M24.7799 4.23486L16.5142 12.5002L24.7796 20.7657C24.9167 20.4792 24.9999 20.1625 24.9999 19.8243V5.17588C24.9999 4.83784 24.9169 4.52124 24.7799 4.23486Z" fill="#3B8ACA"/>
<path d="M0.220215 4.23438C0.0831543 4.52085 0 4.8375 0 5.17573V19.8242C0 20.1622 0.0830566 20.4789 0.22002 20.7653L8.48579 12.5L0.220215 4.23438Z" fill="#3B8ACA"/>
<path d="M15.4784 13.5357L12.9688 15.9475C12.8258 16.0906 12.6384 16.1621 12.451 16.1621C12.2637 16.1621 12.0762 16.0906 11.9332 15.9475L9.52129 13.5356L1.25537 21.801C1.54189 21.9382 1.85874 22.0214 2.19707 22.0214H22.8025C23.1408 22.0214 23.4574 21.9383 23.7439 21.8012L15.4784 13.5357Z" fill="#3B8ACA"/>
</svg>
