<svg width="25" height="25" viewBox="0 0 25 25" fill="none" xmlns="http://www.w3.org/2000/svg">
<path d="M24.5139 19.879L21.7424 18.0312L19.2786 16.389C18.8031 16.0726 18.1641 16.1764 17.8131 16.6269L16.2885 18.5868C15.961 19.0121 15.3719 19.1343 14.9023 18.8743C13.8679 18.2989 12.6446 17.7571 9.94548 15.0545C7.24639 12.352 6.70113 11.1322 6.12569 10.0977C5.86569 9.62808 5.9879 9.03897 6.41319 8.71153L8.37308 7.18699C8.82362 6.83601 8.92738 6.19701 8.61102 5.72148L7.01924 3.33356L5.12097 0.486129C4.79788 0.00146584 4.15111 -0.144041 3.6516 0.155517L1.46236 1.46888C0.870719 1.81746 0.435812 2.38035 0.247728 3.04084C-0.350948 5.22358 -0.47165 10.0386 7.24507 17.7553C14.9618 25.4721 19.7764 25.351 21.9591 24.7522C22.6196 24.5642 23.1825 24.1293 23.5311 23.5376L24.8444 21.3484C25.1441 20.8489 24.9985 20.2021 24.5139 19.879Z" fill="#F14F33"/>
</svg>
