<svg width="25" height="25" viewBox="0 0 25 25" fill="none" xmlns="http://www.w3.org/2000/svg">
<path d="M5.48315 7.34192C6.18108 8.90203 7.06561 10.373 8.23061 11.6934C8.38512 11.8692 8.5799 12.0254 8.78508 12.1526C9.08478 12.3389 9.36755 12.2734 9.48941 11.9631C9.6183 11.6374 9.73658 10.9775 9.74361 10.6355C9.76285 9.74196 9.74074 9.15636 9.6877 8.26392C9.65332 7.69232 9.42883 7.19043 8.49996 7.03894C8.2131 6.99197 8.18645 6.77824 8.37075 6.56504C8.75441 6.12116 9.28889 6.05042 9.86848 6.02242C10.8078 5.97649 11.7506 6.01398 12.6911 6.02242C13.0742 6.0256 13.4596 6.05354 13.8369 6.12798C14.329 6.2251 14.5925 6.53756 14.6736 6.97242C14.7156 7.19673 14.7372 7.42735 14.7313 7.65432C14.7069 8.62965 14.655 9.60447 14.6427 10.5793C14.6375 10.9619 14.6683 11.3541 14.7588 11.7267C14.8853 12.246 15.2759 12.3764 15.6754 12.0012C16.1826 11.5246 16.6299 10.9883 17.0496 10.4437C17.8123 9.45304 18.3819 8.36584 18.8723 7.24486C19.1259 6.66643 19.3201 6.5408 20.0075 6.53924C21.2996 6.53658 22.5917 6.53554 23.8838 6.53924C24.113 6.54028 24.3526 6.55983 24.5689 6.62213C24.9199 6.72347 25.0593 6.9826 24.977 7.31143C24.7852 8.082 24.3252 8.73695 23.8325 9.36662C23.0418 10.3768 22.2133 11.3627 21.404 12.3612C21.3008 12.4884 21.2099 12.6241 21.1253 12.7618C20.8227 13.2568 20.8437 13.5344 21.2851 13.9466C21.9877 14.6027 22.7398 15.2164 23.4203 15.8904C23.9147 16.3807 24.3724 16.9127 24.7643 17.4727C25.2599 18.1809 24.9537 18.848 24.0278 18.9668C23.4454 19.0412 20.6001 18.9674 20.4531 18.9668C19.6881 18.9637 19.0176 18.7235 18.4776 18.2532C17.877 17.7297 17.3313 17.1555 16.7546 16.6092C16.5809 16.4445 16.3954 16.2867 16.1955 16.149C15.7237 15.8233 15.2608 15.8956 15.0404 16.397C14.8521 16.8277 14.6894 17.9587 14.6818 18.0553C14.6421 18.5604 14.287 18.8823 13.6619 18.9135C11.8574 19.0021 10.1087 18.82 8.47963 18.03C7.09891 17.3607 5.99634 16.4144 5.04127 15.3109C3.52411 13.558 2.32576 11.6313 1.2317 9.64791C1.17578 9.54651 0.067659 7.41214 0.0378808 7.31132C-0.0611032 6.97375 0.031235 6.65128 0.346335 6.54028C0.542769 6.4711 4.19629 6.54005 4.25706 6.543C4.84004 6.57157 5.23757 6.79421 5.48315 7.34192Z" fill="#5BB2E2"/>
</svg>
