<svg width="25" height="25" viewBox="0 0 25 25" fill="none" xmlns="http://www.w3.org/2000/svg">
<path d="M0 25L1.75086 18.7883C0.624955 16.8776 0.0321573 14.7037 0.0321573 12.4704C0.0321573 5.59421 5.63244 0 12.5161 0C19.3998 0 25 5.59421 25 12.4704C25 19.3466 19.3998 24.9408 12.5161 24.9408C10.3712 24.9408 8.27093 24.3924 6.41293 23.351L0 25ZM6.74078 21.0823L7.1229 21.3154C8.74286 22.3033 10.6078 22.8254 12.5161 22.8254C18.2321 22.8254 22.8823 18.1802 22.8823 12.4704C22.8823 6.76065 18.2321 2.1154 12.5161 2.1154C6.80015 2.1154 2.14985 6.76065 2.14985 12.4704C2.14985 14.4599 2.7159 16.3919 3.78667 18.0575L4.04401 18.4578L3.03575 22.035L6.74078 21.0823Z" fill="#69C992"/>
<path d="M9.00895 6.66643L8.19889 6.62232C7.94446 6.60845 7.69488 6.69338 7.50256 6.86026C7.10985 7.20092 6.48191 7.85951 6.28905 8.71773C6.00143 9.99739 6.44591 11.5644 7.59629 13.1313C8.74667 14.6983 10.8905 17.2054 14.6814 18.2762C15.903 18.6212 16.8639 18.3886 17.6054 17.9149C18.1926 17.5396 18.5974 16.9374 18.7433 16.2565L18.8726 15.6531C18.9137 15.4613 18.8162 15.2667 18.6379 15.1846L15.9002 13.924C15.7224 13.8422 15.5117 13.894 15.3921 14.0487L14.3174 15.4405C14.2362 15.5456 14.0972 15.5873 13.9717 15.5433C13.2357 15.2849 10.7702 14.2534 9.41743 11.6504C9.35876 11.5375 9.37335 11.4004 9.45657 11.3042L10.4837 10.1172C10.5887 9.99598 10.6152 9.82558 10.5521 9.67828L9.37202 6.92035C9.30919 6.77353 9.1684 6.67512 9.00895 6.66643Z" fill="#69C992"/>
</svg>
