<svg width="24" height="24" viewBox="0 0 24 24" fill="none" xmlns="http://www.w3.org/2000/svg">
<path d="M22.9006 19.5082C22.5259 19.5082 22.2221 19.812 22.2221 20.1867V22.2221H20.1868C19.8121 22.2221 19.5083 22.5258 19.5083 22.9005C19.5083 23.2752 19.8121 23.579 20.1868 23.579H22.9006C23.2752 23.579 23.579 23.2752 23.579 22.9005V20.1867C23.579 19.812 23.2752 19.5082 22.9006 19.5082Z" fill="white"/>
<path d="M3.8134 22.2221H1.77805V20.1867C1.77805 19.812 1.47428 19.5082 1.09959 19.5082C0.724908 19.5082 0.421143 19.812 0.421143 20.1867V22.9005C0.421143 23.2752 0.724908 23.579 1.09959 23.579H3.8134C4.18809 23.579 4.49186 23.2752 4.49186 22.9005C4.49186 22.5258 4.18809 22.2221 3.8134 22.2221Z" fill="white"/>
<path d="M22.9006 0.421082H20.1868C19.8121 0.421082 19.5083 0.724847 19.5083 1.09953C19.5083 1.47422 19.8121 1.77799 20.1868 1.77799H22.2221V3.81334C22.2221 4.18803 22.5259 4.4918 22.9006 4.4918C23.2752 4.4918 23.579 4.18803 23.579 3.81334V1.09953C23.579 0.724847 23.2752 0.421082 22.9006 0.421082Z" fill="white"/>
<path d="M1.09959 4.4918C1.47428 4.4918 1.77805 4.18803 1.77805 3.81334V1.77799H3.8134C4.18809 1.77799 4.49186 1.47422 4.49186 1.09953C4.49186 0.724847 4.18809 0.421082 3.8134 0.421082H1.09959C0.724908 0.421082 0.421143 0.724847 0.421143 1.09953V3.81334C0.421143 4.18803 0.724908 4.4918 1.09959 4.4918Z" fill="white"/>
<path d="M20.0907 8.74637C17.398 6.90347 14.6024 5.91713 12.0061 5.89411C12.0021 5.89402 11.998 5.89402 11.994 5.89411C9.39771 5.91713 6.60208 6.90342 3.90939 8.74637C1.8943 10.1256 0.649385 11.4865 0.597371 11.5438C0.3624 11.8025 0.3624 12.1974 0.597371 12.4561C0.649385 12.5134 1.89425 13.8743 3.90939 15.2535C6.60208 17.0964 9.39771 18.0828 11.994 18.1058C11.996 18.1058 11.998 18.1059 12 18.1059C12.002 18.1059 12.0041 18.1058 12.006 18.1058C14.6023 18.0828 17.398 17.0965 20.0907 15.2535C22.1058 13.8743 23.3507 12.5134 23.4027 12.4561C23.6377 12.1974 23.6377 11.8025 23.4027 11.5438C23.3508 11.4865 22.1058 10.1256 20.0907 8.74637V8.74637ZM12.0001 16.7491C9.38138 16.7491 7.25091 14.6186 7.25091 12C7.25091 9.38127 9.38138 7.25079 12.0001 7.25079C14.6188 7.25079 16.7492 9.38127 16.7492 12C16.7492 14.6186 14.6188 16.7491 12.0001 16.7491ZM2.05337 12C2.56687 11.5044 3.49305 10.6727 4.70327 9.84741C5.34292 9.41116 6.11414 8.94326 6.98115 8.52637C6.29601 9.51302 5.894 10.7104 5.894 12C5.894 13.2899 6.29655 14.4873 6.98192 15.4742C6.11454 15.0571 5.34314 14.5889 4.70327 14.1525C3.49291 13.3271 2.56674 12.4955 2.05337 12V12ZM19.2969 14.1525C18.6568 14.589 17.8852 15.0573 17.0176 15.4745C17.7032 14.4876 18.1061 13.2901 18.1061 12C18.1061 10.7104 17.7042 9.51298 17.019 8.52628C17.8861 8.94321 18.6572 9.41116 19.2969 9.84741C20.5072 10.6728 21.4334 11.5045 21.9468 12C21.4333 12.4955 20.5071 13.3272 19.2969 14.1525Z" fill="white"/>
<path d="M12 9.06012C10.3789 9.06012 9.06006 10.379 9.06006 12.0001C9.06006 13.6212 10.3789 14.94 12 14.94C13.6211 14.94 14.94 13.6212 14.94 12.0001C14.94 10.379 13.6211 9.06012 12 9.06012ZM12 13.5831C11.1271 13.5831 10.417 12.873 10.417 12.0001C10.417 11.1272 11.1271 10.417 12 10.417C12.8729 10.417 13.5831 11.1272 13.5831 12.0001C13.5831 12.873 12.8729 13.5831 12 13.5831Z" fill="white"/>
</svg>
